G04 #@! TF.GenerationSoftware,KiCad,Pcbnew,(5.1.10)-1*
G04 #@! TF.CreationDate,2021-11-20T19:19:08-05:00*
G04 #@! TF.ProjectId,SM72442 Breakout Board,534d3732-3434-4322-9042-7265616b6f75,rev?*
G04 #@! TF.SameCoordinates,Original*
G04 #@! TF.FileFunction,Legend,Top*
G04 #@! TF.FilePolarity,Positive*
%FSLAX46Y46*%
G04 Gerber Fmt 4.6, Leading zero omitted, Abs format (unit mm)*
G04 Created by KiCad (PCBNEW (5.1.10)-1) date 2021-11-20 19:19:08*
%MOMM*%
%LPD*%
G01*
G04 APERTURE LIST*
%ADD10C,0.150000*%
%ADD11C,0.120000*%
%ADD12C,0.127000*%
%ADD13C,0.200000*%
%ADD14O,1.800000X1.800000*%
G04 APERTURE END LIST*
D10*
X132310952Y-120419761D02*
X132453809Y-120467380D01*
X132691904Y-120467380D01*
X132787142Y-120419761D01*
X132834761Y-120372142D01*
X132882380Y-120276904D01*
X132882380Y-120181666D01*
X132834761Y-120086428D01*
X132787142Y-120038809D01*
X132691904Y-119991190D01*
X132501428Y-119943571D01*
X132406190Y-119895952D01*
X132358571Y-119848333D01*
X132310952Y-119753095D01*
X132310952Y-119657857D01*
X132358571Y-119562619D01*
X132406190Y-119515000D01*
X132501428Y-119467380D01*
X132739523Y-119467380D01*
X132882380Y-119515000D01*
X133310952Y-120467380D02*
X133310952Y-119467380D01*
X133644285Y-120181666D01*
X133977619Y-119467380D01*
X133977619Y-120467380D01*
X135120476Y-119467380D02*
X135787142Y-119467380D01*
X135358571Y-120467380D01*
X136120476Y-119562619D02*
X136168095Y-119515000D01*
X136263333Y-119467380D01*
X136501428Y-119467380D01*
X136596666Y-119515000D01*
X136644285Y-119562619D01*
X136691904Y-119657857D01*
X136691904Y-119753095D01*
X136644285Y-119895952D01*
X136072857Y-120467380D01*
X136691904Y-120467380D01*
X137549047Y-119800714D02*
X137549047Y-120467380D01*
X137310952Y-119419761D02*
X137072857Y-120134047D01*
X137691904Y-120134047D01*
X138501428Y-119800714D02*
X138501428Y-120467380D01*
X138263333Y-119419761D02*
X138025238Y-120134047D01*
X138644285Y-120134047D01*
X138977619Y-119562619D02*
X139025238Y-119515000D01*
X139120476Y-119467380D01*
X139358571Y-119467380D01*
X139453809Y-119515000D01*
X139501428Y-119562619D01*
X139549047Y-119657857D01*
X139549047Y-119753095D01*
X139501428Y-119895952D01*
X138930000Y-120467380D01*
X139549047Y-120467380D01*
X140739523Y-120467380D02*
X140739523Y-119467380D01*
X140739523Y-119848333D02*
X140834761Y-119800714D01*
X141025238Y-119800714D01*
X141120476Y-119848333D01*
X141168095Y-119895952D01*
X141215714Y-119991190D01*
X141215714Y-120276904D01*
X141168095Y-120372142D01*
X141120476Y-120419761D01*
X141025238Y-120467380D01*
X140834761Y-120467380D01*
X140739523Y-120419761D01*
X141787142Y-120467380D02*
X141691904Y-120419761D01*
X141644285Y-120372142D01*
X141596666Y-120276904D01*
X141596666Y-119991190D01*
X141644285Y-119895952D01*
X141691904Y-119848333D01*
X141787142Y-119800714D01*
X141930000Y-119800714D01*
X142025238Y-119848333D01*
X142072857Y-119895952D01*
X142120476Y-119991190D01*
X142120476Y-120276904D01*
X142072857Y-120372142D01*
X142025238Y-120419761D01*
X141930000Y-120467380D01*
X141787142Y-120467380D01*
X142977619Y-120467380D02*
X142977619Y-119943571D01*
X142930000Y-119848333D01*
X142834761Y-119800714D01*
X142644285Y-119800714D01*
X142549047Y-119848333D01*
X142977619Y-120419761D02*
X142882380Y-120467380D01*
X142644285Y-120467380D01*
X142549047Y-120419761D01*
X142501428Y-120324523D01*
X142501428Y-120229285D01*
X142549047Y-120134047D01*
X142644285Y-120086428D01*
X142882380Y-120086428D01*
X142977619Y-120038809D01*
X143453809Y-120467380D02*
X143453809Y-119800714D01*
X143453809Y-119991190D02*
X143501428Y-119895952D01*
X143549047Y-119848333D01*
X143644285Y-119800714D01*
X143739523Y-119800714D01*
X144501428Y-120467380D02*
X144501428Y-119467380D01*
X144501428Y-120419761D02*
X144406190Y-120467380D01*
X144215714Y-120467380D01*
X144120476Y-120419761D01*
X144072857Y-120372142D01*
X144025238Y-120276904D01*
X144025238Y-119991190D01*
X144072857Y-119895952D01*
X144120476Y-119848333D01*
X144215714Y-119800714D01*
X144406190Y-119800714D01*
X144501428Y-119848333D01*
D11*
G04 #@! TO.C,J1*
X128210000Y-152460000D02*
X130870000Y-152460000D01*
X128210000Y-119380000D02*
X128210000Y-152460000D01*
X130870000Y-119380000D02*
X130870000Y-152460000D01*
X128210000Y-119380000D02*
X130870000Y-119380000D01*
X128210000Y-118110000D02*
X128210000Y-116780000D01*
X128210000Y-116780000D02*
X129540000Y-116780000D01*
G04 #@! TO.C,J2*
X145990000Y-116780000D02*
X147320000Y-116780000D01*
X145990000Y-118110000D02*
X145990000Y-116780000D01*
X145990000Y-119380000D02*
X148650000Y-119380000D01*
X148650000Y-119380000D02*
X148650000Y-152460000D01*
X145990000Y-119380000D02*
X145990000Y-152460000D01*
X145990000Y-152460000D02*
X148650000Y-152460000D01*
D12*
G04 #@! TO.C,U1*
X136230000Y-139470000D02*
X140630000Y-139470000D01*
X136230000Y-129770000D02*
X140630000Y-129770000D01*
D13*
X134090000Y-129985000D02*
G75*
G03*
X134090000Y-129985000I-100000J0D01*
G01*
G04 #@! TO.C,J1*
D10*
X131746666Y-117562380D02*
X131746666Y-118276666D01*
X131699047Y-118419523D01*
X131603809Y-118514761D01*
X131460952Y-118562380D01*
X131365714Y-118562380D01*
X132746666Y-118562380D02*
X132175238Y-118562380D01*
X132460952Y-118562380D02*
X132460952Y-117562380D01*
X132365714Y-117705238D01*
X132270476Y-117800476D01*
X132175238Y-117848095D01*
G04 #@! TO.C,J2*
X144446666Y-117562380D02*
X144446666Y-118276666D01*
X144399047Y-118419523D01*
X144303809Y-118514761D01*
X144160952Y-118562380D01*
X144065714Y-118562380D01*
X144875238Y-117657619D02*
X144922857Y-117610000D01*
X145018095Y-117562380D01*
X145256190Y-117562380D01*
X145351428Y-117610000D01*
X145399047Y-117657619D01*
X145446666Y-117752857D01*
X145446666Y-117848095D01*
X145399047Y-117990952D01*
X144827619Y-118562380D01*
X145446666Y-118562380D01*
G04 #@! TO.C,U1*
X137023095Y-128160380D02*
X137023095Y-128969904D01*
X137070714Y-129065142D01*
X137118333Y-129112761D01*
X137213571Y-129160380D01*
X137404047Y-129160380D01*
X137499285Y-129112761D01*
X137546904Y-129065142D01*
X137594523Y-128969904D01*
X137594523Y-128160380D01*
X138594523Y-129160380D02*
X138023095Y-129160380D01*
X138308809Y-129160380D02*
X138308809Y-128160380D01*
X138213571Y-128303238D01*
X138118333Y-128398476D01*
X138023095Y-128446095D01*
G04 #@! TD*
%LPC*%
D14*
G04 #@! TO.C,J1*
X129540000Y-151130000D03*
X129540000Y-148590000D03*
X129540000Y-146050000D03*
X129540000Y-143510000D03*
X129540000Y-140970000D03*
X129540000Y-138430000D03*
X129540000Y-135890000D03*
X129540000Y-133350000D03*
X129540000Y-130810000D03*
X129540000Y-128270000D03*
X129540000Y-125730000D03*
X129540000Y-123190000D03*
X129540000Y-120650000D03*
G36*
G01*
X128640000Y-118960000D02*
X128640000Y-117260000D01*
G75*
G02*
X128690000Y-117210000I50000J0D01*
G01*
X130390000Y-117210000D01*
G75*
G02*
X130440000Y-117260000I0J-50000D01*
G01*
X130440000Y-118960000D01*
G75*
G02*
X130390000Y-119010000I-50000J0D01*
G01*
X128690000Y-119010000D01*
G75*
G02*
X128640000Y-118960000I0J50000D01*
G01*
G37*
G04 #@! TD*
G04 #@! TO.C,J2*
G36*
G01*
X146420000Y-118960000D02*
X146420000Y-117260000D01*
G75*
G02*
X146470000Y-117210000I50000J0D01*
G01*
X148170000Y-117210000D01*
G75*
G02*
X148220000Y-117260000I0J-50000D01*
G01*
X148220000Y-118960000D01*
G75*
G02*
X148170000Y-119010000I-50000J0D01*
G01*
X146470000Y-119010000D01*
G75*
G02*
X146420000Y-118960000I0J50000D01*
G01*
G37*
X147320000Y-120650000D03*
X147320000Y-123190000D03*
X147320000Y-125730000D03*
X147320000Y-128270000D03*
X147320000Y-130810000D03*
X147320000Y-133350000D03*
X147320000Y-135890000D03*
X147320000Y-138430000D03*
X147320000Y-140970000D03*
X147320000Y-143510000D03*
X147320000Y-146050000D03*
X147320000Y-148590000D03*
X147320000Y-151130000D03*
G04 #@! TD*
G04 #@! TO.C,U1*
G36*
G01*
X134725000Y-130624500D02*
X134725000Y-130165500D01*
G75*
G02*
X134750500Y-130140000I25500J0D01*
G01*
X136369500Y-130140000D01*
G75*
G02*
X136395000Y-130165500I0J-25500D01*
G01*
X136395000Y-130624500D01*
G75*
G02*
X136369500Y-130650000I-25500J0D01*
G01*
X134750500Y-130650000D01*
G75*
G02*
X134725000Y-130624500I0J25500D01*
G01*
G37*
G36*
G01*
X134725000Y-131274500D02*
X134725000Y-130815500D01*
G75*
G02*
X134750500Y-130790000I25500J0D01*
G01*
X136369500Y-130790000D01*
G75*
G02*
X136395000Y-130815500I0J-25500D01*
G01*
X136395000Y-131274500D01*
G75*
G02*
X136369500Y-131300000I-25500J0D01*
G01*
X134750500Y-131300000D01*
G75*
G02*
X134725000Y-131274500I0J25500D01*
G01*
G37*
G36*
G01*
X134725000Y-131924500D02*
X134725000Y-131465500D01*
G75*
G02*
X134750500Y-131440000I25500J0D01*
G01*
X136369500Y-131440000D01*
G75*
G02*
X136395000Y-131465500I0J-25500D01*
G01*
X136395000Y-131924500D01*
G75*
G02*
X136369500Y-131950000I-25500J0D01*
G01*
X134750500Y-131950000D01*
G75*
G02*
X134725000Y-131924500I0J25500D01*
G01*
G37*
G36*
G01*
X134725000Y-132574500D02*
X134725000Y-132115500D01*
G75*
G02*
X134750500Y-132090000I25500J0D01*
G01*
X136369500Y-132090000D01*
G75*
G02*
X136395000Y-132115500I0J-25500D01*
G01*
X136395000Y-132574500D01*
G75*
G02*
X136369500Y-132600000I-25500J0D01*
G01*
X134750500Y-132600000D01*
G75*
G02*
X134725000Y-132574500I0J25500D01*
G01*
G37*
G36*
G01*
X134725000Y-133224500D02*
X134725000Y-132765500D01*
G75*
G02*
X134750500Y-132740000I25500J0D01*
G01*
X136369500Y-132740000D01*
G75*
G02*
X136395000Y-132765500I0J-25500D01*
G01*
X136395000Y-133224500D01*
G75*
G02*
X136369500Y-133250000I-25500J0D01*
G01*
X134750500Y-133250000D01*
G75*
G02*
X134725000Y-133224500I0J25500D01*
G01*
G37*
G36*
G01*
X134725000Y-133874500D02*
X134725000Y-133415500D01*
G75*
G02*
X134750500Y-133390000I25500J0D01*
G01*
X136369500Y-133390000D01*
G75*
G02*
X136395000Y-133415500I0J-25500D01*
G01*
X136395000Y-133874500D01*
G75*
G02*
X136369500Y-133900000I-25500J0D01*
G01*
X134750500Y-133900000D01*
G75*
G02*
X134725000Y-133874500I0J25500D01*
G01*
G37*
G36*
G01*
X134725000Y-134524500D02*
X134725000Y-134065500D01*
G75*
G02*
X134750500Y-134040000I25500J0D01*
G01*
X136369500Y-134040000D01*
G75*
G02*
X136395000Y-134065500I0J-25500D01*
G01*
X136395000Y-134524500D01*
G75*
G02*
X136369500Y-134550000I-25500J0D01*
G01*
X134750500Y-134550000D01*
G75*
G02*
X134725000Y-134524500I0J25500D01*
G01*
G37*
G36*
G01*
X134725000Y-135174500D02*
X134725000Y-134715500D01*
G75*
G02*
X134750500Y-134690000I25500J0D01*
G01*
X136369500Y-134690000D01*
G75*
G02*
X136395000Y-134715500I0J-25500D01*
G01*
X136395000Y-135174500D01*
G75*
G02*
X136369500Y-135200000I-25500J0D01*
G01*
X134750500Y-135200000D01*
G75*
G02*
X134725000Y-135174500I0J25500D01*
G01*
G37*
G36*
G01*
X134725000Y-135824500D02*
X134725000Y-135365500D01*
G75*
G02*
X134750500Y-135340000I25500J0D01*
G01*
X136369500Y-135340000D01*
G75*
G02*
X136395000Y-135365500I0J-25500D01*
G01*
X136395000Y-135824500D01*
G75*
G02*
X136369500Y-135850000I-25500J0D01*
G01*
X134750500Y-135850000D01*
G75*
G02*
X134725000Y-135824500I0J25500D01*
G01*
G37*
G36*
G01*
X134725000Y-136474500D02*
X134725000Y-136015500D01*
G75*
G02*
X134750500Y-135990000I25500J0D01*
G01*
X136369500Y-135990000D01*
G75*
G02*
X136395000Y-136015500I0J-25500D01*
G01*
X136395000Y-136474500D01*
G75*
G02*
X136369500Y-136500000I-25500J0D01*
G01*
X134750500Y-136500000D01*
G75*
G02*
X134725000Y-136474500I0J25500D01*
G01*
G37*
G36*
G01*
X134725000Y-137124500D02*
X134725000Y-136665500D01*
G75*
G02*
X134750500Y-136640000I25500J0D01*
G01*
X136369500Y-136640000D01*
G75*
G02*
X136395000Y-136665500I0J-25500D01*
G01*
X136395000Y-137124500D01*
G75*
G02*
X136369500Y-137150000I-25500J0D01*
G01*
X134750500Y-137150000D01*
G75*
G02*
X134725000Y-137124500I0J25500D01*
G01*
G37*
G36*
G01*
X134725000Y-137774500D02*
X134725000Y-137315500D01*
G75*
G02*
X134750500Y-137290000I25500J0D01*
G01*
X136369500Y-137290000D01*
G75*
G02*
X136395000Y-137315500I0J-25500D01*
G01*
X136395000Y-137774500D01*
G75*
G02*
X136369500Y-137800000I-25500J0D01*
G01*
X134750500Y-137800000D01*
G75*
G02*
X134725000Y-137774500I0J25500D01*
G01*
G37*
G36*
G01*
X134725000Y-138424500D02*
X134725000Y-137965500D01*
G75*
G02*
X134750500Y-137940000I25500J0D01*
G01*
X136369500Y-137940000D01*
G75*
G02*
X136395000Y-137965500I0J-25500D01*
G01*
X136395000Y-138424500D01*
G75*
G02*
X136369500Y-138450000I-25500J0D01*
G01*
X134750500Y-138450000D01*
G75*
G02*
X134725000Y-138424500I0J25500D01*
G01*
G37*
G36*
G01*
X134725000Y-139074500D02*
X134725000Y-138615500D01*
G75*
G02*
X134750500Y-138590000I25500J0D01*
G01*
X136369500Y-138590000D01*
G75*
G02*
X136395000Y-138615500I0J-25500D01*
G01*
X136395000Y-139074500D01*
G75*
G02*
X136369500Y-139100000I-25500J0D01*
G01*
X134750500Y-139100000D01*
G75*
G02*
X134725000Y-139074500I0J25500D01*
G01*
G37*
G36*
G01*
X140465000Y-139074500D02*
X140465000Y-138615500D01*
G75*
G02*
X140490500Y-138590000I25500J0D01*
G01*
X142109500Y-138590000D01*
G75*
G02*
X142135000Y-138615500I0J-25500D01*
G01*
X142135000Y-139074500D01*
G75*
G02*
X142109500Y-139100000I-25500J0D01*
G01*
X140490500Y-139100000D01*
G75*
G02*
X140465000Y-139074500I0J25500D01*
G01*
G37*
G36*
G01*
X140465000Y-138424500D02*
X140465000Y-137965500D01*
G75*
G02*
X140490500Y-137940000I25500J0D01*
G01*
X142109500Y-137940000D01*
G75*
G02*
X142135000Y-137965500I0J-25500D01*
G01*
X142135000Y-138424500D01*
G75*
G02*
X142109500Y-138450000I-25500J0D01*
G01*
X140490500Y-138450000D01*
G75*
G02*
X140465000Y-138424500I0J25500D01*
G01*
G37*
G36*
G01*
X140465000Y-137774500D02*
X140465000Y-137315500D01*
G75*
G02*
X140490500Y-137290000I25500J0D01*
G01*
X142109500Y-137290000D01*
G75*
G02*
X142135000Y-137315500I0J-25500D01*
G01*
X142135000Y-137774500D01*
G75*
G02*
X142109500Y-137800000I-25500J0D01*
G01*
X140490500Y-137800000D01*
G75*
G02*
X140465000Y-137774500I0J25500D01*
G01*
G37*
G36*
G01*
X140465000Y-137124500D02*
X140465000Y-136665500D01*
G75*
G02*
X140490500Y-136640000I25500J0D01*
G01*
X142109500Y-136640000D01*
G75*
G02*
X142135000Y-136665500I0J-25500D01*
G01*
X142135000Y-137124500D01*
G75*
G02*
X142109500Y-137150000I-25500J0D01*
G01*
X140490500Y-137150000D01*
G75*
G02*
X140465000Y-137124500I0J25500D01*
G01*
G37*
G36*
G01*
X140465000Y-136474500D02*
X140465000Y-136015500D01*
G75*
G02*
X140490500Y-135990000I25500J0D01*
G01*
X142109500Y-135990000D01*
G75*
G02*
X142135000Y-136015500I0J-25500D01*
G01*
X142135000Y-136474500D01*
G75*
G02*
X142109500Y-136500000I-25500J0D01*
G01*
X140490500Y-136500000D01*
G75*
G02*
X140465000Y-136474500I0J25500D01*
G01*
G37*
G36*
G01*
X140465000Y-135824500D02*
X140465000Y-135365500D01*
G75*
G02*
X140490500Y-135340000I25500J0D01*
G01*
X142109500Y-135340000D01*
G75*
G02*
X142135000Y-135365500I0J-25500D01*
G01*
X142135000Y-135824500D01*
G75*
G02*
X142109500Y-135850000I-25500J0D01*
G01*
X140490500Y-135850000D01*
G75*
G02*
X140465000Y-135824500I0J25500D01*
G01*
G37*
G36*
G01*
X140465000Y-135174500D02*
X140465000Y-134715500D01*
G75*
G02*
X140490500Y-134690000I25500J0D01*
G01*
X142109500Y-134690000D01*
G75*
G02*
X142135000Y-134715500I0J-25500D01*
G01*
X142135000Y-135174500D01*
G75*
G02*
X142109500Y-135200000I-25500J0D01*
G01*
X140490500Y-135200000D01*
G75*
G02*
X140465000Y-135174500I0J25500D01*
G01*
G37*
G36*
G01*
X140465000Y-134524500D02*
X140465000Y-134065500D01*
G75*
G02*
X140490500Y-134040000I25500J0D01*
G01*
X142109500Y-134040000D01*
G75*
G02*
X142135000Y-134065500I0J-25500D01*
G01*
X142135000Y-134524500D01*
G75*
G02*
X142109500Y-134550000I-25500J0D01*
G01*
X140490500Y-134550000D01*
G75*
G02*
X140465000Y-134524500I0J25500D01*
G01*
G37*
G36*
G01*
X140465000Y-133874500D02*
X140465000Y-133415500D01*
G75*
G02*
X140490500Y-133390000I25500J0D01*
G01*
X142109500Y-133390000D01*
G75*
G02*
X142135000Y-133415500I0J-25500D01*
G01*
X142135000Y-133874500D01*
G75*
G02*
X142109500Y-133900000I-25500J0D01*
G01*
X140490500Y-133900000D01*
G75*
G02*
X140465000Y-133874500I0J25500D01*
G01*
G37*
G36*
G01*
X140465000Y-133224500D02*
X140465000Y-132765500D01*
G75*
G02*
X140490500Y-132740000I25500J0D01*
G01*
X142109500Y-132740000D01*
G75*
G02*
X142135000Y-132765500I0J-25500D01*
G01*
X142135000Y-133224500D01*
G75*
G02*
X142109500Y-133250000I-25500J0D01*
G01*
X140490500Y-133250000D01*
G75*
G02*
X140465000Y-133224500I0J25500D01*
G01*
G37*
G36*
G01*
X140465000Y-132574500D02*
X140465000Y-132115500D01*
G75*
G02*
X140490500Y-132090000I25500J0D01*
G01*
X142109500Y-132090000D01*
G75*
G02*
X142135000Y-132115500I0J-25500D01*
G01*
X142135000Y-132574500D01*
G75*
G02*
X142109500Y-132600000I-25500J0D01*
G01*
X140490500Y-132600000D01*
G75*
G02*
X140465000Y-132574500I0J25500D01*
G01*
G37*
G36*
G01*
X140465000Y-131924500D02*
X140465000Y-131465500D01*
G75*
G02*
X140490500Y-131440000I25500J0D01*
G01*
X142109500Y-131440000D01*
G75*
G02*
X142135000Y-131465500I0J-25500D01*
G01*
X142135000Y-131924500D01*
G75*
G02*
X142109500Y-131950000I-25500J0D01*
G01*
X140490500Y-131950000D01*
G75*
G02*
X140465000Y-131924500I0J25500D01*
G01*
G37*
G36*
G01*
X140465000Y-131274500D02*
X140465000Y-130815500D01*
G75*
G02*
X140490500Y-130790000I25500J0D01*
G01*
X142109500Y-130790000D01*
G75*
G02*
X142135000Y-130815500I0J-25500D01*
G01*
X142135000Y-131274500D01*
G75*
G02*
X142109500Y-131300000I-25500J0D01*
G01*
X140490500Y-131300000D01*
G75*
G02*
X140465000Y-131274500I0J25500D01*
G01*
G37*
G36*
G01*
X140465000Y-130624500D02*
X140465000Y-130165500D01*
G75*
G02*
X140490500Y-130140000I25500J0D01*
G01*
X142109500Y-130140000D01*
G75*
G02*
X142135000Y-130165500I0J-25500D01*
G01*
X142135000Y-130624500D01*
G75*
G02*
X142109500Y-130650000I-25500J0D01*
G01*
X140490500Y-130650000D01*
G75*
G02*
X140465000Y-130624500I0J25500D01*
G01*
G37*
G04 #@! TD*
M02*
