G04 #@! TF.GenerationSoftware,KiCad,Pcbnew,(5.1.10)-1*
G04 #@! TF.CreationDate,2021-11-20T19:19:08-05:00*
G04 #@! TF.ProjectId,SM72442 Breakout Board,534d3732-3434-4322-9042-7265616b6f75,rev?*
G04 #@! TF.SameCoordinates,Original*
G04 #@! TF.FileFunction,Copper,L1,Top*
G04 #@! TF.FilePolarity,Positive*
%FSLAX46Y46*%
G04 Gerber Fmt 4.6, Leading zero omitted, Abs format (unit mm)*
G04 Created by KiCad (PCBNEW (5.1.10)-1) date 2021-11-20 19:19:08*
%MOMM*%
%LPD*%
G01*
G04 APERTURE LIST*
G04 #@! TA.AperFunction,ComponentPad*
%ADD10O,1.700000X1.700000*%
G04 #@! TD*
G04 #@! TA.AperFunction,ComponentPad*
%ADD11R,1.700000X1.700000*%
G04 #@! TD*
G04 #@! TA.AperFunction,Conductor*
%ADD12C,0.250000*%
G04 #@! TD*
G04 APERTURE END LIST*
D10*
G04 #@! TO.P,J1,14*
G04 #@! TO.N,/A0*
X129540000Y-151130000D03*
G04 #@! TO.P,J1,13*
G04 #@! TO.N,/VSSA*
X129540000Y-148590000D03*
G04 #@! TO.P,J1,12*
G04 #@! TO.N,/VDDA*
X129540000Y-146050000D03*
G04 #@! TO.P,J1,11*
G04 #@! TO.N,/PM_OUT*
X129540000Y-143510000D03*
G04 #@! TO.P,J1,10*
G04 #@! TO.N,/NC3*
X129540000Y-140970000D03*
G04 #@! TO.P,J1,9*
G04 #@! TO.N,/SDA*
X129540000Y-138430000D03*
G04 #@! TO.P,J1,8*
G04 #@! TO.N,/SCL*
X129540000Y-135890000D03*
G04 #@! TO.P,J1,7*
G04 #@! TO.N,/I2C1*
X129540000Y-133350000D03*
G04 #@! TO.P,J1,6*
G04 #@! TO.N,/I2C0*
X129540000Y-130810000D03*
G04 #@! TO.P,J1,5*
G04 #@! TO.N,/NC2*
X129540000Y-128270000D03*
G04 #@! TO.P,J1,4*
G04 #@! TO.N,/VSSD*
X129540000Y-125730000D03*
G04 #@! TO.P,J1,3*
G04 #@! TO.N,/VDDD*
X129540000Y-123190000D03*
G04 #@! TO.P,J1,2*
G04 #@! TO.N,/NC1*
X129540000Y-120650000D03*
D11*
G04 #@! TO.P,J1,1*
G04 #@! TO.N,/\u002ARST*
X129540000Y-118110000D03*
G04 #@! TD*
G04 #@! TO.P,J2,1*
G04 #@! TO.N,/PM*
X147320000Y-118110000D03*
D10*
G04 #@! TO.P,J2,2*
G04 #@! TO.N,/LIA*
X147320000Y-120650000D03*
G04 #@! TO.P,J2,3*
G04 #@! TO.N,/HIA*
X147320000Y-123190000D03*
G04 #@! TO.P,J2,4*
G04 #@! TO.N,/HIB*
X147320000Y-125730000D03*
G04 #@! TO.P,J2,5*
G04 #@! TO.N,/LIB*
X147320000Y-128270000D03*
G04 #@! TO.P,J2,6*
G04 #@! TO.N,/NC4*
X147320000Y-130810000D03*
G04 #@! TO.P,J2,7*
G04 #@! TO.N,/I2C2*
X147320000Y-133350000D03*
G04 #@! TO.P,J2,8*
G04 #@! TO.N,/AIOUT*
X147320000Y-135890000D03*
G04 #@! TO.P,J2,9*
G04 #@! TO.N,/A6*
X147320000Y-138430000D03*
G04 #@! TO.P,J2,10*
G04 #@! TO.N,/AIIN*
X147320000Y-140970000D03*
G04 #@! TO.P,J2,11*
G04 #@! TO.N,/A4*
X147320000Y-143510000D03*
G04 #@! TO.P,J2,12*
G04 #@! TO.N,/AVOUT*
X147320000Y-146050000D03*
G04 #@! TO.P,J2,13*
G04 #@! TO.N,/A2*
X147320000Y-148590000D03*
G04 #@! TO.P,J2,14*
G04 #@! TO.N,/AVIN*
X147320000Y-151130000D03*
G04 #@! TD*
G04 #@! TO.P,U1,1*
G04 #@! TO.N,/\u002ARST*
G04 #@! TA.AperFunction,SMDPad,CuDef*
G36*
G01*
X134775000Y-130579500D02*
X134775000Y-130210500D01*
G75*
G02*
X134795500Y-130190000I20500J0D01*
G01*
X136324500Y-130190000D01*
G75*
G02*
X136345000Y-130210500I0J-20500D01*
G01*
X136345000Y-130579500D01*
G75*
G02*
X136324500Y-130600000I-20500J0D01*
G01*
X134795500Y-130600000D01*
G75*
G02*
X134775000Y-130579500I0J20500D01*
G01*
G37*
G04 #@! TD.AperFunction*
G04 #@! TO.P,U1,2*
G04 #@! TO.N,/NC1*
G04 #@! TA.AperFunction,SMDPad,CuDef*
G36*
G01*
X134775000Y-131229500D02*
X134775000Y-130860500D01*
G75*
G02*
X134795500Y-130840000I20500J0D01*
G01*
X136324500Y-130840000D01*
G75*
G02*
X136345000Y-130860500I0J-20500D01*
G01*
X136345000Y-131229500D01*
G75*
G02*
X136324500Y-131250000I-20500J0D01*
G01*
X134795500Y-131250000D01*
G75*
G02*
X134775000Y-131229500I0J20500D01*
G01*
G37*
G04 #@! TD.AperFunction*
G04 #@! TO.P,U1,3*
G04 #@! TO.N,/VDDD*
G04 #@! TA.AperFunction,SMDPad,CuDef*
G36*
G01*
X134775000Y-131879500D02*
X134775000Y-131510500D01*
G75*
G02*
X134795500Y-131490000I20500J0D01*
G01*
X136324500Y-131490000D01*
G75*
G02*
X136345000Y-131510500I0J-20500D01*
G01*
X136345000Y-131879500D01*
G75*
G02*
X136324500Y-131900000I-20500J0D01*
G01*
X134795500Y-131900000D01*
G75*
G02*
X134775000Y-131879500I0J20500D01*
G01*
G37*
G04 #@! TD.AperFunction*
G04 #@! TO.P,U1,4*
G04 #@! TO.N,/VSSD*
G04 #@! TA.AperFunction,SMDPad,CuDef*
G36*
G01*
X134775000Y-132529500D02*
X134775000Y-132160500D01*
G75*
G02*
X134795500Y-132140000I20500J0D01*
G01*
X136324500Y-132140000D01*
G75*
G02*
X136345000Y-132160500I0J-20500D01*
G01*
X136345000Y-132529500D01*
G75*
G02*
X136324500Y-132550000I-20500J0D01*
G01*
X134795500Y-132550000D01*
G75*
G02*
X134775000Y-132529500I0J20500D01*
G01*
G37*
G04 #@! TD.AperFunction*
G04 #@! TO.P,U1,5*
G04 #@! TO.N,/NC2*
G04 #@! TA.AperFunction,SMDPad,CuDef*
G36*
G01*
X134775000Y-133179500D02*
X134775000Y-132810500D01*
G75*
G02*
X134795500Y-132790000I20500J0D01*
G01*
X136324500Y-132790000D01*
G75*
G02*
X136345000Y-132810500I0J-20500D01*
G01*
X136345000Y-133179500D01*
G75*
G02*
X136324500Y-133200000I-20500J0D01*
G01*
X134795500Y-133200000D01*
G75*
G02*
X134775000Y-133179500I0J20500D01*
G01*
G37*
G04 #@! TD.AperFunction*
G04 #@! TO.P,U1,6*
G04 #@! TO.N,/I2C0*
G04 #@! TA.AperFunction,SMDPad,CuDef*
G36*
G01*
X134775000Y-133829500D02*
X134775000Y-133460500D01*
G75*
G02*
X134795500Y-133440000I20500J0D01*
G01*
X136324500Y-133440000D01*
G75*
G02*
X136345000Y-133460500I0J-20500D01*
G01*
X136345000Y-133829500D01*
G75*
G02*
X136324500Y-133850000I-20500J0D01*
G01*
X134795500Y-133850000D01*
G75*
G02*
X134775000Y-133829500I0J20500D01*
G01*
G37*
G04 #@! TD.AperFunction*
G04 #@! TO.P,U1,7*
G04 #@! TO.N,/I2C1*
G04 #@! TA.AperFunction,SMDPad,CuDef*
G36*
G01*
X134775000Y-134479500D02*
X134775000Y-134110500D01*
G75*
G02*
X134795500Y-134090000I20500J0D01*
G01*
X136324500Y-134090000D01*
G75*
G02*
X136345000Y-134110500I0J-20500D01*
G01*
X136345000Y-134479500D01*
G75*
G02*
X136324500Y-134500000I-20500J0D01*
G01*
X134795500Y-134500000D01*
G75*
G02*
X134775000Y-134479500I0J20500D01*
G01*
G37*
G04 #@! TD.AperFunction*
G04 #@! TO.P,U1,8*
G04 #@! TO.N,/SCL*
G04 #@! TA.AperFunction,SMDPad,CuDef*
G36*
G01*
X134775000Y-135129500D02*
X134775000Y-134760500D01*
G75*
G02*
X134795500Y-134740000I20500J0D01*
G01*
X136324500Y-134740000D01*
G75*
G02*
X136345000Y-134760500I0J-20500D01*
G01*
X136345000Y-135129500D01*
G75*
G02*
X136324500Y-135150000I-20500J0D01*
G01*
X134795500Y-135150000D01*
G75*
G02*
X134775000Y-135129500I0J20500D01*
G01*
G37*
G04 #@! TD.AperFunction*
G04 #@! TO.P,U1,9*
G04 #@! TO.N,/SDA*
G04 #@! TA.AperFunction,SMDPad,CuDef*
G36*
G01*
X134775000Y-135779500D02*
X134775000Y-135410500D01*
G75*
G02*
X134795500Y-135390000I20500J0D01*
G01*
X136324500Y-135390000D01*
G75*
G02*
X136345000Y-135410500I0J-20500D01*
G01*
X136345000Y-135779500D01*
G75*
G02*
X136324500Y-135800000I-20500J0D01*
G01*
X134795500Y-135800000D01*
G75*
G02*
X134775000Y-135779500I0J20500D01*
G01*
G37*
G04 #@! TD.AperFunction*
G04 #@! TO.P,U1,10*
G04 #@! TO.N,/NC3*
G04 #@! TA.AperFunction,SMDPad,CuDef*
G36*
G01*
X134775000Y-136429500D02*
X134775000Y-136060500D01*
G75*
G02*
X134795500Y-136040000I20500J0D01*
G01*
X136324500Y-136040000D01*
G75*
G02*
X136345000Y-136060500I0J-20500D01*
G01*
X136345000Y-136429500D01*
G75*
G02*
X136324500Y-136450000I-20500J0D01*
G01*
X134795500Y-136450000D01*
G75*
G02*
X134775000Y-136429500I0J20500D01*
G01*
G37*
G04 #@! TD.AperFunction*
G04 #@! TO.P,U1,11*
G04 #@! TO.N,/PM_OUT*
G04 #@! TA.AperFunction,SMDPad,CuDef*
G36*
G01*
X134775000Y-137079500D02*
X134775000Y-136710500D01*
G75*
G02*
X134795500Y-136690000I20500J0D01*
G01*
X136324500Y-136690000D01*
G75*
G02*
X136345000Y-136710500I0J-20500D01*
G01*
X136345000Y-137079500D01*
G75*
G02*
X136324500Y-137100000I-20500J0D01*
G01*
X134795500Y-137100000D01*
G75*
G02*
X134775000Y-137079500I0J20500D01*
G01*
G37*
G04 #@! TD.AperFunction*
G04 #@! TO.P,U1,12*
G04 #@! TO.N,/VDDA*
G04 #@! TA.AperFunction,SMDPad,CuDef*
G36*
G01*
X134775000Y-137729500D02*
X134775000Y-137360500D01*
G75*
G02*
X134795500Y-137340000I20500J0D01*
G01*
X136324500Y-137340000D01*
G75*
G02*
X136345000Y-137360500I0J-20500D01*
G01*
X136345000Y-137729500D01*
G75*
G02*
X136324500Y-137750000I-20500J0D01*
G01*
X134795500Y-137750000D01*
G75*
G02*
X134775000Y-137729500I0J20500D01*
G01*
G37*
G04 #@! TD.AperFunction*
G04 #@! TO.P,U1,13*
G04 #@! TO.N,/VSSA*
G04 #@! TA.AperFunction,SMDPad,CuDef*
G36*
G01*
X134775000Y-138379500D02*
X134775000Y-138010500D01*
G75*
G02*
X134795500Y-137990000I20500J0D01*
G01*
X136324500Y-137990000D01*
G75*
G02*
X136345000Y-138010500I0J-20500D01*
G01*
X136345000Y-138379500D01*
G75*
G02*
X136324500Y-138400000I-20500J0D01*
G01*
X134795500Y-138400000D01*
G75*
G02*
X134775000Y-138379500I0J20500D01*
G01*
G37*
G04 #@! TD.AperFunction*
G04 #@! TO.P,U1,14*
G04 #@! TO.N,/A0*
G04 #@! TA.AperFunction,SMDPad,CuDef*
G36*
G01*
X134775000Y-139029500D02*
X134775000Y-138660500D01*
G75*
G02*
X134795500Y-138640000I20500J0D01*
G01*
X136324500Y-138640000D01*
G75*
G02*
X136345000Y-138660500I0J-20500D01*
G01*
X136345000Y-139029500D01*
G75*
G02*
X136324500Y-139050000I-20500J0D01*
G01*
X134795500Y-139050000D01*
G75*
G02*
X134775000Y-139029500I0J20500D01*
G01*
G37*
G04 #@! TD.AperFunction*
G04 #@! TO.P,U1,15*
G04 #@! TO.N,/AVIN*
G04 #@! TA.AperFunction,SMDPad,CuDef*
G36*
G01*
X140515000Y-139029500D02*
X140515000Y-138660500D01*
G75*
G02*
X140535500Y-138640000I20500J0D01*
G01*
X142064500Y-138640000D01*
G75*
G02*
X142085000Y-138660500I0J-20500D01*
G01*
X142085000Y-139029500D01*
G75*
G02*
X142064500Y-139050000I-20500J0D01*
G01*
X140535500Y-139050000D01*
G75*
G02*
X140515000Y-139029500I0J20500D01*
G01*
G37*
G04 #@! TD.AperFunction*
G04 #@! TO.P,U1,16*
G04 #@! TO.N,/A2*
G04 #@! TA.AperFunction,SMDPad,CuDef*
G36*
G01*
X140515000Y-138379500D02*
X140515000Y-138010500D01*
G75*
G02*
X140535500Y-137990000I20500J0D01*
G01*
X142064500Y-137990000D01*
G75*
G02*
X142085000Y-138010500I0J-20500D01*
G01*
X142085000Y-138379500D01*
G75*
G02*
X142064500Y-138400000I-20500J0D01*
G01*
X140535500Y-138400000D01*
G75*
G02*
X140515000Y-138379500I0J20500D01*
G01*
G37*
G04 #@! TD.AperFunction*
G04 #@! TO.P,U1,17*
G04 #@! TO.N,/AVOUT*
G04 #@! TA.AperFunction,SMDPad,CuDef*
G36*
G01*
X140515000Y-137729500D02*
X140515000Y-137360500D01*
G75*
G02*
X140535500Y-137340000I20500J0D01*
G01*
X142064500Y-137340000D01*
G75*
G02*
X142085000Y-137360500I0J-20500D01*
G01*
X142085000Y-137729500D01*
G75*
G02*
X142064500Y-137750000I-20500J0D01*
G01*
X140535500Y-137750000D01*
G75*
G02*
X140515000Y-137729500I0J20500D01*
G01*
G37*
G04 #@! TD.AperFunction*
G04 #@! TO.P,U1,18*
G04 #@! TO.N,/A4*
G04 #@! TA.AperFunction,SMDPad,CuDef*
G36*
G01*
X140515000Y-137079500D02*
X140515000Y-136710500D01*
G75*
G02*
X140535500Y-136690000I20500J0D01*
G01*
X142064500Y-136690000D01*
G75*
G02*
X142085000Y-136710500I0J-20500D01*
G01*
X142085000Y-137079500D01*
G75*
G02*
X142064500Y-137100000I-20500J0D01*
G01*
X140535500Y-137100000D01*
G75*
G02*
X140515000Y-137079500I0J20500D01*
G01*
G37*
G04 #@! TD.AperFunction*
G04 #@! TO.P,U1,19*
G04 #@! TO.N,/AIIN*
G04 #@! TA.AperFunction,SMDPad,CuDef*
G36*
G01*
X140515000Y-136429500D02*
X140515000Y-136060500D01*
G75*
G02*
X140535500Y-136040000I20500J0D01*
G01*
X142064500Y-136040000D01*
G75*
G02*
X142085000Y-136060500I0J-20500D01*
G01*
X142085000Y-136429500D01*
G75*
G02*
X142064500Y-136450000I-20500J0D01*
G01*
X140535500Y-136450000D01*
G75*
G02*
X140515000Y-136429500I0J20500D01*
G01*
G37*
G04 #@! TD.AperFunction*
G04 #@! TO.P,U1,20*
G04 #@! TO.N,/A6*
G04 #@! TA.AperFunction,SMDPad,CuDef*
G36*
G01*
X140515000Y-135779500D02*
X140515000Y-135410500D01*
G75*
G02*
X140535500Y-135390000I20500J0D01*
G01*
X142064500Y-135390000D01*
G75*
G02*
X142085000Y-135410500I0J-20500D01*
G01*
X142085000Y-135779500D01*
G75*
G02*
X142064500Y-135800000I-20500J0D01*
G01*
X140535500Y-135800000D01*
G75*
G02*
X140515000Y-135779500I0J20500D01*
G01*
G37*
G04 #@! TD.AperFunction*
G04 #@! TO.P,U1,21*
G04 #@! TO.N,/AIOUT*
G04 #@! TA.AperFunction,SMDPad,CuDef*
G36*
G01*
X140515000Y-135129500D02*
X140515000Y-134760500D01*
G75*
G02*
X140535500Y-134740000I20500J0D01*
G01*
X142064500Y-134740000D01*
G75*
G02*
X142085000Y-134760500I0J-20500D01*
G01*
X142085000Y-135129500D01*
G75*
G02*
X142064500Y-135150000I-20500J0D01*
G01*
X140535500Y-135150000D01*
G75*
G02*
X140515000Y-135129500I0J20500D01*
G01*
G37*
G04 #@! TD.AperFunction*
G04 #@! TO.P,U1,22*
G04 #@! TO.N,/I2C2*
G04 #@! TA.AperFunction,SMDPad,CuDef*
G36*
G01*
X140515000Y-134479500D02*
X140515000Y-134110500D01*
G75*
G02*
X140535500Y-134090000I20500J0D01*
G01*
X142064500Y-134090000D01*
G75*
G02*
X142085000Y-134110500I0J-20500D01*
G01*
X142085000Y-134479500D01*
G75*
G02*
X142064500Y-134500000I-20500J0D01*
G01*
X140535500Y-134500000D01*
G75*
G02*
X140515000Y-134479500I0J20500D01*
G01*
G37*
G04 #@! TD.AperFunction*
G04 #@! TO.P,U1,23*
G04 #@! TO.N,/NC4*
G04 #@! TA.AperFunction,SMDPad,CuDef*
G36*
G01*
X140515000Y-133829500D02*
X140515000Y-133460500D01*
G75*
G02*
X140535500Y-133440000I20500J0D01*
G01*
X142064500Y-133440000D01*
G75*
G02*
X142085000Y-133460500I0J-20500D01*
G01*
X142085000Y-133829500D01*
G75*
G02*
X142064500Y-133850000I-20500J0D01*
G01*
X140535500Y-133850000D01*
G75*
G02*
X140515000Y-133829500I0J20500D01*
G01*
G37*
G04 #@! TD.AperFunction*
G04 #@! TO.P,U1,24*
G04 #@! TO.N,/LIB*
G04 #@! TA.AperFunction,SMDPad,CuDef*
G36*
G01*
X140515000Y-133179500D02*
X140515000Y-132810500D01*
G75*
G02*
X140535500Y-132790000I20500J0D01*
G01*
X142064500Y-132790000D01*
G75*
G02*
X142085000Y-132810500I0J-20500D01*
G01*
X142085000Y-133179500D01*
G75*
G02*
X142064500Y-133200000I-20500J0D01*
G01*
X140535500Y-133200000D01*
G75*
G02*
X140515000Y-133179500I0J20500D01*
G01*
G37*
G04 #@! TD.AperFunction*
G04 #@! TO.P,U1,25*
G04 #@! TO.N,/HIB*
G04 #@! TA.AperFunction,SMDPad,CuDef*
G36*
G01*
X140515000Y-132529500D02*
X140515000Y-132160500D01*
G75*
G02*
X140535500Y-132140000I20500J0D01*
G01*
X142064500Y-132140000D01*
G75*
G02*
X142085000Y-132160500I0J-20500D01*
G01*
X142085000Y-132529500D01*
G75*
G02*
X142064500Y-132550000I-20500J0D01*
G01*
X140535500Y-132550000D01*
G75*
G02*
X140515000Y-132529500I0J20500D01*
G01*
G37*
G04 #@! TD.AperFunction*
G04 #@! TO.P,U1,26*
G04 #@! TO.N,/HIA*
G04 #@! TA.AperFunction,SMDPad,CuDef*
G36*
G01*
X140515000Y-131879500D02*
X140515000Y-131510500D01*
G75*
G02*
X140535500Y-131490000I20500J0D01*
G01*
X142064500Y-131490000D01*
G75*
G02*
X142085000Y-131510500I0J-20500D01*
G01*
X142085000Y-131879500D01*
G75*
G02*
X142064500Y-131900000I-20500J0D01*
G01*
X140535500Y-131900000D01*
G75*
G02*
X140515000Y-131879500I0J20500D01*
G01*
G37*
G04 #@! TD.AperFunction*
G04 #@! TO.P,U1,27*
G04 #@! TO.N,/LIA*
G04 #@! TA.AperFunction,SMDPad,CuDef*
G36*
G01*
X140515000Y-131229500D02*
X140515000Y-130860500D01*
G75*
G02*
X140535500Y-130840000I20500J0D01*
G01*
X142064500Y-130840000D01*
G75*
G02*
X142085000Y-130860500I0J-20500D01*
G01*
X142085000Y-131229500D01*
G75*
G02*
X142064500Y-131250000I-20500J0D01*
G01*
X140535500Y-131250000D01*
G75*
G02*
X140515000Y-131229500I0J20500D01*
G01*
G37*
G04 #@! TD.AperFunction*
G04 #@! TO.P,U1,28*
G04 #@! TO.N,/PM*
G04 #@! TA.AperFunction,SMDPad,CuDef*
G36*
G01*
X140515000Y-130579500D02*
X140515000Y-130210500D01*
G75*
G02*
X140535500Y-130190000I20500J0D01*
G01*
X142064500Y-130190000D01*
G75*
G02*
X142085000Y-130210500I0J-20500D01*
G01*
X142085000Y-130579500D01*
G75*
G02*
X142064500Y-130600000I-20500J0D01*
G01*
X140535500Y-130600000D01*
G75*
G02*
X140515000Y-130579500I0J20500D01*
G01*
G37*
G04 #@! TD.AperFunction*
G04 #@! TD*
D12*
G04 #@! TO.N,/A0*
X129540000Y-151130000D02*
X132715000Y-147955000D01*
X132715000Y-141690000D02*
X135560000Y-138845000D01*
X132715000Y-147955000D02*
X132715000Y-141690000D01*
G04 #@! TO.N,/VSSA*
X129540000Y-148590000D02*
X132080000Y-146050000D01*
X134772372Y-138195000D02*
X135560000Y-138195000D01*
X132080000Y-140887372D02*
X134772372Y-138195000D01*
X132080000Y-146050000D02*
X132080000Y-140887372D01*
G04 #@! TO.N,/VDDA*
X129540000Y-146050000D02*
X131446410Y-144143590D01*
X134772372Y-137545000D02*
X135560000Y-137545000D01*
X131446410Y-140870962D02*
X134772372Y-137545000D01*
X131446410Y-144143590D02*
X131446410Y-140870962D01*
G04 #@! TO.N,/PM_OUT*
X134251410Y-136895000D02*
X135560000Y-136895000D01*
X130810000Y-140336410D02*
X134251410Y-136895000D01*
X130810000Y-142240000D02*
X130810000Y-140336410D01*
X129540000Y-143510000D02*
X130810000Y-142240000D01*
G04 #@! TO.N,/NC3*
X134265000Y-136245000D02*
X135560000Y-136245000D01*
X129540000Y-140970000D02*
X134265000Y-136245000D01*
G04 #@! TO.N,/SDA*
X132375000Y-135595000D02*
X135560000Y-135595000D01*
X129540000Y-138430000D02*
X132375000Y-135595000D01*
G04 #@! TO.N,/SCL*
X130485000Y-134945000D02*
X135560000Y-134945000D01*
X129540000Y-135890000D02*
X130485000Y-134945000D01*
G04 #@! TO.N,/I2C1*
X130485000Y-134295000D02*
X135560000Y-134295000D01*
X129540000Y-133350000D02*
X130485000Y-134295000D01*
G04 #@! TO.N,/I2C0*
X132375000Y-133645000D02*
X135560000Y-133645000D01*
X129540000Y-130810000D02*
X132375000Y-133645000D01*
G04 #@! TO.N,/NC2*
X134265000Y-132995000D02*
X135560000Y-132995000D01*
X129540000Y-128270000D02*
X134265000Y-132995000D01*
G04 #@! TO.N,/VSSD*
X129540000Y-125730000D02*
X130810000Y-127000000D01*
X134772372Y-132345000D02*
X135560000Y-132345000D01*
X130810000Y-128382628D02*
X134772372Y-132345000D01*
X130810000Y-127000000D02*
X130810000Y-128382628D01*
G04 #@! TO.N,/VDDD*
X129540000Y-123190000D02*
X130810000Y-124460000D01*
X130810000Y-124460000D02*
X130810000Y-126363590D01*
X130810000Y-126363590D02*
X131445000Y-126998590D01*
X135440010Y-131575010D02*
X135560000Y-131695000D01*
X134652382Y-131575010D02*
X135440010Y-131575010D01*
X131445000Y-128367628D02*
X134652382Y-131575010D01*
X131445000Y-126998590D02*
X131445000Y-128367628D01*
G04 #@! TO.N,/NC1*
X129540000Y-120650000D02*
X131445000Y-122555000D01*
X131445000Y-122555000D02*
X131445000Y-125730000D01*
X131445000Y-125730000D02*
X132080000Y-126365000D01*
X132080000Y-128352628D02*
X134772372Y-131045000D01*
X134772372Y-131045000D02*
X135560000Y-131045000D01*
X132080000Y-126365000D02*
X132080000Y-128352628D01*
G04 #@! TO.N,/\u002ARST*
X129540000Y-118110000D02*
X135255000Y-123825000D01*
X135475000Y-130395000D02*
X135560000Y-130395000D01*
X135255000Y-130175000D02*
X135475000Y-130395000D01*
X135255000Y-123825000D02*
X135255000Y-130175000D01*
G04 #@! TO.N,/AVIN*
X147320000Y-151130000D02*
X144145000Y-147955000D01*
X144145000Y-141690000D02*
X141300000Y-138845000D01*
X144145000Y-147955000D02*
X144145000Y-141690000D01*
G04 #@! TO.N,/A2*
X147320000Y-148590000D02*
X144780000Y-146050000D01*
X142087628Y-138195000D02*
X141300000Y-138195000D01*
X144780000Y-140887372D02*
X142087628Y-138195000D01*
X144780000Y-146050000D02*
X144780000Y-140887372D01*
G04 #@! TO.N,/AVOUT*
X147320000Y-146050000D02*
X145415000Y-144145000D01*
X141419990Y-137664990D02*
X141300000Y-137545000D01*
X142207618Y-137664990D02*
X141419990Y-137664990D01*
X145415000Y-140872372D02*
X142207618Y-137664990D01*
X145415000Y-144145000D02*
X145415000Y-140872372D01*
G04 #@! TO.N,/A4*
X147320000Y-143510000D02*
X146050000Y-142240000D01*
X142087628Y-136895000D02*
X141300000Y-136895000D01*
X146050000Y-140857372D02*
X142087628Y-136895000D01*
X146050000Y-142240000D02*
X146050000Y-140857372D01*
G04 #@! TO.N,/AIIN*
X142595000Y-136245000D02*
X141300000Y-136245000D01*
X147320000Y-140970000D02*
X142595000Y-136245000D01*
G04 #@! TO.N,/A6*
X144485000Y-135595000D02*
X141300000Y-135595000D01*
X147320000Y-138430000D02*
X144485000Y-135595000D01*
G04 #@! TO.N,/AIOUT*
X146375000Y-134945000D02*
X141300000Y-134945000D01*
X147320000Y-135890000D02*
X146375000Y-134945000D01*
G04 #@! TO.N,/I2C2*
X146375000Y-134295000D02*
X141300000Y-134295000D01*
X147320000Y-133350000D02*
X146375000Y-134295000D01*
G04 #@! TO.N,/NC4*
X144485000Y-133645000D02*
X141300000Y-133645000D01*
X147320000Y-130810000D02*
X144485000Y-133645000D01*
G04 #@! TO.N,/LIB*
X142595000Y-132995000D02*
X141300000Y-132995000D01*
X147320000Y-128270000D02*
X142595000Y-132995000D01*
G04 #@! TO.N,/HIB*
X147320000Y-125730000D02*
X146050000Y-127000000D01*
X142087628Y-132345000D02*
X141300000Y-132345000D01*
X146050000Y-128382628D02*
X142087628Y-132345000D01*
X146050000Y-127000000D02*
X146050000Y-128382628D01*
G04 #@! TO.N,/HIA*
X142087628Y-131695000D02*
X141300000Y-131695000D01*
X145415000Y-128367628D02*
X142087628Y-131695000D01*
X145415000Y-125095000D02*
X145415000Y-128367628D01*
X147320000Y-123190000D02*
X145415000Y-125095000D01*
G04 #@! TO.N,/LIA*
X147320000Y-120650000D02*
X144780000Y-123190000D01*
X142087628Y-131045000D02*
X141300000Y-131045000D01*
X144780000Y-128352628D02*
X142087628Y-131045000D01*
X144780000Y-123190000D02*
X144780000Y-128352628D01*
G04 #@! TO.N,/PM*
X141300000Y-124130000D02*
X141300000Y-130395000D01*
X147320000Y-118110000D02*
X141300000Y-124130000D01*
G04 #@! TD*
M02*
