G04 #@! TF.GenerationSoftware,KiCad,Pcbnew,(5.1.10)-1*
G04 #@! TF.CreationDate,2021-11-20T19:19:08-05:00*
G04 #@! TF.ProjectId,SM72442 Breakout Board,534d3732-3434-4322-9042-7265616b6f75,rev?*
G04 #@! TF.SameCoordinates,Original*
G04 #@! TF.FileFunction,Soldermask,Top*
G04 #@! TF.FilePolarity,Negative*
%FSLAX46Y46*%
G04 Gerber Fmt 4.6, Leading zero omitted, Abs format (unit mm)*
G04 Created by KiCad (PCBNEW (5.1.10)-1) date 2021-11-20 19:19:08*
%MOMM*%
%LPD*%
G01*
G04 APERTURE LIST*
%ADD10O,1.800000X1.800000*%
G04 APERTURE END LIST*
D10*
G04 #@! TO.C,J1*
X129540000Y-151130000D03*
X129540000Y-148590000D03*
X129540000Y-146050000D03*
X129540000Y-143510000D03*
X129540000Y-140970000D03*
X129540000Y-138430000D03*
X129540000Y-135890000D03*
X129540000Y-133350000D03*
X129540000Y-130810000D03*
X129540000Y-128270000D03*
X129540000Y-125730000D03*
X129540000Y-123190000D03*
X129540000Y-120650000D03*
G36*
G01*
X128640000Y-118960000D02*
X128640000Y-117260000D01*
G75*
G02*
X128690000Y-117210000I50000J0D01*
G01*
X130390000Y-117210000D01*
G75*
G02*
X130440000Y-117260000I0J-50000D01*
G01*
X130440000Y-118960000D01*
G75*
G02*
X130390000Y-119010000I-50000J0D01*
G01*
X128690000Y-119010000D01*
G75*
G02*
X128640000Y-118960000I0J50000D01*
G01*
G37*
G04 #@! TD*
G04 #@! TO.C,J2*
G36*
G01*
X146420000Y-118960000D02*
X146420000Y-117260000D01*
G75*
G02*
X146470000Y-117210000I50000J0D01*
G01*
X148170000Y-117210000D01*
G75*
G02*
X148220000Y-117260000I0J-50000D01*
G01*
X148220000Y-118960000D01*
G75*
G02*
X148170000Y-119010000I-50000J0D01*
G01*
X146470000Y-119010000D01*
G75*
G02*
X146420000Y-118960000I0J50000D01*
G01*
G37*
X147320000Y-120650000D03*
X147320000Y-123190000D03*
X147320000Y-125730000D03*
X147320000Y-128270000D03*
X147320000Y-130810000D03*
X147320000Y-133350000D03*
X147320000Y-135890000D03*
X147320000Y-138430000D03*
X147320000Y-140970000D03*
X147320000Y-143510000D03*
X147320000Y-146050000D03*
X147320000Y-148590000D03*
X147320000Y-151130000D03*
G04 #@! TD*
G04 #@! TO.C,U1*
G36*
G01*
X134725000Y-130624500D02*
X134725000Y-130165500D01*
G75*
G02*
X134750500Y-130140000I25500J0D01*
G01*
X136369500Y-130140000D01*
G75*
G02*
X136395000Y-130165500I0J-25500D01*
G01*
X136395000Y-130624500D01*
G75*
G02*
X136369500Y-130650000I-25500J0D01*
G01*
X134750500Y-130650000D01*
G75*
G02*
X134725000Y-130624500I0J25500D01*
G01*
G37*
G36*
G01*
X134725000Y-131274500D02*
X134725000Y-130815500D01*
G75*
G02*
X134750500Y-130790000I25500J0D01*
G01*
X136369500Y-130790000D01*
G75*
G02*
X136395000Y-130815500I0J-25500D01*
G01*
X136395000Y-131274500D01*
G75*
G02*
X136369500Y-131300000I-25500J0D01*
G01*
X134750500Y-131300000D01*
G75*
G02*
X134725000Y-131274500I0J25500D01*
G01*
G37*
G36*
G01*
X134725000Y-131924500D02*
X134725000Y-131465500D01*
G75*
G02*
X134750500Y-131440000I25500J0D01*
G01*
X136369500Y-131440000D01*
G75*
G02*
X136395000Y-131465500I0J-25500D01*
G01*
X136395000Y-131924500D01*
G75*
G02*
X136369500Y-131950000I-25500J0D01*
G01*
X134750500Y-131950000D01*
G75*
G02*
X134725000Y-131924500I0J25500D01*
G01*
G37*
G36*
G01*
X134725000Y-132574500D02*
X134725000Y-132115500D01*
G75*
G02*
X134750500Y-132090000I25500J0D01*
G01*
X136369500Y-132090000D01*
G75*
G02*
X136395000Y-132115500I0J-25500D01*
G01*
X136395000Y-132574500D01*
G75*
G02*
X136369500Y-132600000I-25500J0D01*
G01*
X134750500Y-132600000D01*
G75*
G02*
X134725000Y-132574500I0J25500D01*
G01*
G37*
G36*
G01*
X134725000Y-133224500D02*
X134725000Y-132765500D01*
G75*
G02*
X134750500Y-132740000I25500J0D01*
G01*
X136369500Y-132740000D01*
G75*
G02*
X136395000Y-132765500I0J-25500D01*
G01*
X136395000Y-133224500D01*
G75*
G02*
X136369500Y-133250000I-25500J0D01*
G01*
X134750500Y-133250000D01*
G75*
G02*
X134725000Y-133224500I0J25500D01*
G01*
G37*
G36*
G01*
X134725000Y-133874500D02*
X134725000Y-133415500D01*
G75*
G02*
X134750500Y-133390000I25500J0D01*
G01*
X136369500Y-133390000D01*
G75*
G02*
X136395000Y-133415500I0J-25500D01*
G01*
X136395000Y-133874500D01*
G75*
G02*
X136369500Y-133900000I-25500J0D01*
G01*
X134750500Y-133900000D01*
G75*
G02*
X134725000Y-133874500I0J25500D01*
G01*
G37*
G36*
G01*
X134725000Y-134524500D02*
X134725000Y-134065500D01*
G75*
G02*
X134750500Y-134040000I25500J0D01*
G01*
X136369500Y-134040000D01*
G75*
G02*
X136395000Y-134065500I0J-25500D01*
G01*
X136395000Y-134524500D01*
G75*
G02*
X136369500Y-134550000I-25500J0D01*
G01*
X134750500Y-134550000D01*
G75*
G02*
X134725000Y-134524500I0J25500D01*
G01*
G37*
G36*
G01*
X134725000Y-135174500D02*
X134725000Y-134715500D01*
G75*
G02*
X134750500Y-134690000I25500J0D01*
G01*
X136369500Y-134690000D01*
G75*
G02*
X136395000Y-134715500I0J-25500D01*
G01*
X136395000Y-135174500D01*
G75*
G02*
X136369500Y-135200000I-25500J0D01*
G01*
X134750500Y-135200000D01*
G75*
G02*
X134725000Y-135174500I0J25500D01*
G01*
G37*
G36*
G01*
X134725000Y-135824500D02*
X134725000Y-135365500D01*
G75*
G02*
X134750500Y-135340000I25500J0D01*
G01*
X136369500Y-135340000D01*
G75*
G02*
X136395000Y-135365500I0J-25500D01*
G01*
X136395000Y-135824500D01*
G75*
G02*
X136369500Y-135850000I-25500J0D01*
G01*
X134750500Y-135850000D01*
G75*
G02*
X134725000Y-135824500I0J25500D01*
G01*
G37*
G36*
G01*
X134725000Y-136474500D02*
X134725000Y-136015500D01*
G75*
G02*
X134750500Y-135990000I25500J0D01*
G01*
X136369500Y-135990000D01*
G75*
G02*
X136395000Y-136015500I0J-25500D01*
G01*
X136395000Y-136474500D01*
G75*
G02*
X136369500Y-136500000I-25500J0D01*
G01*
X134750500Y-136500000D01*
G75*
G02*
X134725000Y-136474500I0J25500D01*
G01*
G37*
G36*
G01*
X134725000Y-137124500D02*
X134725000Y-136665500D01*
G75*
G02*
X134750500Y-136640000I25500J0D01*
G01*
X136369500Y-136640000D01*
G75*
G02*
X136395000Y-136665500I0J-25500D01*
G01*
X136395000Y-137124500D01*
G75*
G02*
X136369500Y-137150000I-25500J0D01*
G01*
X134750500Y-137150000D01*
G75*
G02*
X134725000Y-137124500I0J25500D01*
G01*
G37*
G36*
G01*
X134725000Y-137774500D02*
X134725000Y-137315500D01*
G75*
G02*
X134750500Y-137290000I25500J0D01*
G01*
X136369500Y-137290000D01*
G75*
G02*
X136395000Y-137315500I0J-25500D01*
G01*
X136395000Y-137774500D01*
G75*
G02*
X136369500Y-137800000I-25500J0D01*
G01*
X134750500Y-137800000D01*
G75*
G02*
X134725000Y-137774500I0J25500D01*
G01*
G37*
G36*
G01*
X134725000Y-138424500D02*
X134725000Y-137965500D01*
G75*
G02*
X134750500Y-137940000I25500J0D01*
G01*
X136369500Y-137940000D01*
G75*
G02*
X136395000Y-137965500I0J-25500D01*
G01*
X136395000Y-138424500D01*
G75*
G02*
X136369500Y-138450000I-25500J0D01*
G01*
X134750500Y-138450000D01*
G75*
G02*
X134725000Y-138424500I0J25500D01*
G01*
G37*
G36*
G01*
X134725000Y-139074500D02*
X134725000Y-138615500D01*
G75*
G02*
X134750500Y-138590000I25500J0D01*
G01*
X136369500Y-138590000D01*
G75*
G02*
X136395000Y-138615500I0J-25500D01*
G01*
X136395000Y-139074500D01*
G75*
G02*
X136369500Y-139100000I-25500J0D01*
G01*
X134750500Y-139100000D01*
G75*
G02*
X134725000Y-139074500I0J25500D01*
G01*
G37*
G36*
G01*
X140465000Y-139074500D02*
X140465000Y-138615500D01*
G75*
G02*
X140490500Y-138590000I25500J0D01*
G01*
X142109500Y-138590000D01*
G75*
G02*
X142135000Y-138615500I0J-25500D01*
G01*
X142135000Y-139074500D01*
G75*
G02*
X142109500Y-139100000I-25500J0D01*
G01*
X140490500Y-139100000D01*
G75*
G02*
X140465000Y-139074500I0J25500D01*
G01*
G37*
G36*
G01*
X140465000Y-138424500D02*
X140465000Y-137965500D01*
G75*
G02*
X140490500Y-137940000I25500J0D01*
G01*
X142109500Y-137940000D01*
G75*
G02*
X142135000Y-137965500I0J-25500D01*
G01*
X142135000Y-138424500D01*
G75*
G02*
X142109500Y-138450000I-25500J0D01*
G01*
X140490500Y-138450000D01*
G75*
G02*
X140465000Y-138424500I0J25500D01*
G01*
G37*
G36*
G01*
X140465000Y-137774500D02*
X140465000Y-137315500D01*
G75*
G02*
X140490500Y-137290000I25500J0D01*
G01*
X142109500Y-137290000D01*
G75*
G02*
X142135000Y-137315500I0J-25500D01*
G01*
X142135000Y-137774500D01*
G75*
G02*
X142109500Y-137800000I-25500J0D01*
G01*
X140490500Y-137800000D01*
G75*
G02*
X140465000Y-137774500I0J25500D01*
G01*
G37*
G36*
G01*
X140465000Y-137124500D02*
X140465000Y-136665500D01*
G75*
G02*
X140490500Y-136640000I25500J0D01*
G01*
X142109500Y-136640000D01*
G75*
G02*
X142135000Y-136665500I0J-25500D01*
G01*
X142135000Y-137124500D01*
G75*
G02*
X142109500Y-137150000I-25500J0D01*
G01*
X140490500Y-137150000D01*
G75*
G02*
X140465000Y-137124500I0J25500D01*
G01*
G37*
G36*
G01*
X140465000Y-136474500D02*
X140465000Y-136015500D01*
G75*
G02*
X140490500Y-135990000I25500J0D01*
G01*
X142109500Y-135990000D01*
G75*
G02*
X142135000Y-136015500I0J-25500D01*
G01*
X142135000Y-136474500D01*
G75*
G02*
X142109500Y-136500000I-25500J0D01*
G01*
X140490500Y-136500000D01*
G75*
G02*
X140465000Y-136474500I0J25500D01*
G01*
G37*
G36*
G01*
X140465000Y-135824500D02*
X140465000Y-135365500D01*
G75*
G02*
X140490500Y-135340000I25500J0D01*
G01*
X142109500Y-135340000D01*
G75*
G02*
X142135000Y-135365500I0J-25500D01*
G01*
X142135000Y-135824500D01*
G75*
G02*
X142109500Y-135850000I-25500J0D01*
G01*
X140490500Y-135850000D01*
G75*
G02*
X140465000Y-135824500I0J25500D01*
G01*
G37*
G36*
G01*
X140465000Y-135174500D02*
X140465000Y-134715500D01*
G75*
G02*
X140490500Y-134690000I25500J0D01*
G01*
X142109500Y-134690000D01*
G75*
G02*
X142135000Y-134715500I0J-25500D01*
G01*
X142135000Y-135174500D01*
G75*
G02*
X142109500Y-135200000I-25500J0D01*
G01*
X140490500Y-135200000D01*
G75*
G02*
X140465000Y-135174500I0J25500D01*
G01*
G37*
G36*
G01*
X140465000Y-134524500D02*
X140465000Y-134065500D01*
G75*
G02*
X140490500Y-134040000I25500J0D01*
G01*
X142109500Y-134040000D01*
G75*
G02*
X142135000Y-134065500I0J-25500D01*
G01*
X142135000Y-134524500D01*
G75*
G02*
X142109500Y-134550000I-25500J0D01*
G01*
X140490500Y-134550000D01*
G75*
G02*
X140465000Y-134524500I0J25500D01*
G01*
G37*
G36*
G01*
X140465000Y-133874500D02*
X140465000Y-133415500D01*
G75*
G02*
X140490500Y-133390000I25500J0D01*
G01*
X142109500Y-133390000D01*
G75*
G02*
X142135000Y-133415500I0J-25500D01*
G01*
X142135000Y-133874500D01*
G75*
G02*
X142109500Y-133900000I-25500J0D01*
G01*
X140490500Y-133900000D01*
G75*
G02*
X140465000Y-133874500I0J25500D01*
G01*
G37*
G36*
G01*
X140465000Y-133224500D02*
X140465000Y-132765500D01*
G75*
G02*
X140490500Y-132740000I25500J0D01*
G01*
X142109500Y-132740000D01*
G75*
G02*
X142135000Y-132765500I0J-25500D01*
G01*
X142135000Y-133224500D01*
G75*
G02*
X142109500Y-133250000I-25500J0D01*
G01*
X140490500Y-133250000D01*
G75*
G02*
X140465000Y-133224500I0J25500D01*
G01*
G37*
G36*
G01*
X140465000Y-132574500D02*
X140465000Y-132115500D01*
G75*
G02*
X140490500Y-132090000I25500J0D01*
G01*
X142109500Y-132090000D01*
G75*
G02*
X142135000Y-132115500I0J-25500D01*
G01*
X142135000Y-132574500D01*
G75*
G02*
X142109500Y-132600000I-25500J0D01*
G01*
X140490500Y-132600000D01*
G75*
G02*
X140465000Y-132574500I0J25500D01*
G01*
G37*
G36*
G01*
X140465000Y-131924500D02*
X140465000Y-131465500D01*
G75*
G02*
X140490500Y-131440000I25500J0D01*
G01*
X142109500Y-131440000D01*
G75*
G02*
X142135000Y-131465500I0J-25500D01*
G01*
X142135000Y-131924500D01*
G75*
G02*
X142109500Y-131950000I-25500J0D01*
G01*
X140490500Y-131950000D01*
G75*
G02*
X140465000Y-131924500I0J25500D01*
G01*
G37*
G36*
G01*
X140465000Y-131274500D02*
X140465000Y-130815500D01*
G75*
G02*
X140490500Y-130790000I25500J0D01*
G01*
X142109500Y-130790000D01*
G75*
G02*
X142135000Y-130815500I0J-25500D01*
G01*
X142135000Y-131274500D01*
G75*
G02*
X142109500Y-131300000I-25500J0D01*
G01*
X140490500Y-131300000D01*
G75*
G02*
X140465000Y-131274500I0J25500D01*
G01*
G37*
G36*
G01*
X140465000Y-130624500D02*
X140465000Y-130165500D01*
G75*
G02*
X140490500Y-130140000I25500J0D01*
G01*
X142109500Y-130140000D01*
G75*
G02*
X142135000Y-130165500I0J-25500D01*
G01*
X142135000Y-130624500D01*
G75*
G02*
X142109500Y-130650000I-25500J0D01*
G01*
X140490500Y-130650000D01*
G75*
G02*
X140465000Y-130624500I0J25500D01*
G01*
G37*
G04 #@! TD*
M02*
