M48
; DRILL file {KiCad (5.1.10)-1} date 11/20/21 19:23:09
; FORMAT={-:-/ absolute / metric / decimal}
; #@! TF.CreationDate,2021-11-20T19:23:09-05:00
; #@! TF.GenerationSoftware,Kicad,Pcbnew,(5.1.10)-1
; #@! TF.FileFunction,Plated,1,2,PTH
FMAT,2
METRIC
T1C1.000
%
G90
G05
T1
X129.54Y-118.11
X129.54Y-120.65
X129.54Y-123.19
X129.54Y-125.73
X129.54Y-128.27
X129.54Y-130.81
X129.54Y-133.35
X129.54Y-135.89
X129.54Y-138.43
X129.54Y-140.97
X129.54Y-143.51
X129.54Y-146.05
X129.54Y-148.59
X129.54Y-151.13
X147.32Y-118.11
X147.32Y-120.65
X147.32Y-123.19
X147.32Y-125.73
X147.32Y-128.27
X147.32Y-130.81
X147.32Y-133.35
X147.32Y-135.89
X147.32Y-138.43
X147.32Y-140.97
X147.32Y-143.51
X147.32Y-146.05
X147.32Y-148.59
X147.32Y-151.13
T0
M30
