G04 #@! TF.GenerationSoftware,KiCad,Pcbnew,(5.1.10)-1*
G04 #@! TF.CreationDate,2022-01-18T14:13:32-05:00*
G04 #@! TF.ProjectId,breakoutboard-2,62726561-6b6f-4757-9462-6f6172642d32,rev?*
G04 #@! TF.SameCoordinates,Original*
G04 #@! TF.FileFunction,Soldermask,Top*
G04 #@! TF.FilePolarity,Negative*
%FSLAX46Y46*%
G04 Gerber Fmt 4.6, Leading zero omitted, Abs format (unit mm)*
G04 Created by KiCad (PCBNEW (5.1.10)-1) date 2022-01-18 14:13:32*
%MOMM*%
%LPD*%
G01*
G04 APERTURE LIST*
%ADD10R,4.600000X1.100000*%
%ADD11R,9.400000X10.800000*%
%ADD12R,2.400000X1.500000*%
%ADD13R,1.050000X1.500000*%
%ADD14R,1.350000X1.350000*%
%ADD15R,7.696200X10.718800*%
%ADD16R,3.505200X1.041400*%
%ADD17R,0.900000X1.200000*%
%ADD18C,3.000000*%
%ADD19C,2.700000*%
%ADD20O,1.350000X1.350000*%
%ADD21C,2.800000*%
%ADD22R,2.800000X2.800000*%
%ADD23R,5.330000X5.590000*%
%ADD24R,6.350000X5.280000*%
%ADD25R,0.850001X0.399999*%
G04 APERTURE END LIST*
D10*
X125155000Y-97155000D03*
X125155000Y-92075000D03*
D11*
X116005000Y-94615000D03*
D10*
X192345000Y-93980000D03*
X192345000Y-99060000D03*
D11*
X201495000Y-96520000D03*
D12*
X141184999Y-72390000D03*
D13*
X138810000Y-72390000D03*
D12*
X177458001Y-66167000D03*
D13*
X179833000Y-66167000D03*
X138810000Y-79375000D03*
D12*
X141184999Y-79375000D03*
X147105001Y-85725000D03*
D13*
X149480000Y-85725000D03*
X168020000Y-86360000D03*
D12*
X170394999Y-86360000D03*
X176188001Y-81280000D03*
D13*
X178563000Y-81280000D03*
G36*
G01*
X193200000Y-60775000D02*
X194150000Y-60775000D01*
G75*
G02*
X194400000Y-61025000I0J-250000D01*
G01*
X194400000Y-61525000D01*
G75*
G02*
X194150000Y-61775000I-250000J0D01*
G01*
X193200000Y-61775000D01*
G75*
G02*
X192950000Y-61525000I0J250000D01*
G01*
X192950000Y-61025000D01*
G75*
G02*
X193200000Y-60775000I250000J0D01*
G01*
G37*
G36*
G01*
X193200000Y-58875000D02*
X194150000Y-58875000D01*
G75*
G02*
X194400000Y-59125000I0J-250000D01*
G01*
X194400000Y-59625000D01*
G75*
G02*
X194150000Y-59875000I-250000J0D01*
G01*
X193200000Y-59875000D01*
G75*
G02*
X192950000Y-59625000I0J250000D01*
G01*
X192950000Y-59125000D01*
G75*
G02*
X193200000Y-58875000I250000J0D01*
G01*
G37*
G36*
G01*
X120810000Y-56970000D02*
X121760000Y-56970000D01*
G75*
G02*
X122010000Y-57220000I0J-250000D01*
G01*
X122010000Y-57720000D01*
G75*
G02*
X121760000Y-57970000I-250000J0D01*
G01*
X120810000Y-57970000D01*
G75*
G02*
X120560000Y-57720000I0J250000D01*
G01*
X120560000Y-57220000D01*
G75*
G02*
X120810000Y-56970000I250000J0D01*
G01*
G37*
G36*
G01*
X120810000Y-58870000D02*
X121760000Y-58870000D01*
G75*
G02*
X122010000Y-59120000I0J-250000D01*
G01*
X122010000Y-59620000D01*
G75*
G02*
X121760000Y-59870000I-250000J0D01*
G01*
X120810000Y-59870000D01*
G75*
G02*
X120560000Y-59620000I0J250000D01*
G01*
X120560000Y-59120000D01*
G75*
G02*
X120810000Y-58870000I250000J0D01*
G01*
G37*
G36*
G01*
X151925000Y-93800000D02*
X152875000Y-93800000D01*
G75*
G02*
X153125000Y-94050000I0J-250000D01*
G01*
X153125000Y-94550000D01*
G75*
G02*
X152875000Y-94800000I-250000J0D01*
G01*
X151925000Y-94800000D01*
G75*
G02*
X151675000Y-94550000I0J250000D01*
G01*
X151675000Y-94050000D01*
G75*
G02*
X151925000Y-93800000I250000J0D01*
G01*
G37*
G36*
G01*
X151925000Y-95700000D02*
X152875000Y-95700000D01*
G75*
G02*
X153125000Y-95950000I0J-250000D01*
G01*
X153125000Y-96450000D01*
G75*
G02*
X152875000Y-96700000I-250000J0D01*
G01*
X151925000Y-96700000D01*
G75*
G02*
X151675000Y-96450000I0J250000D01*
G01*
X151675000Y-95950000D01*
G75*
G02*
X151925000Y-95700000I250000J0D01*
G01*
G37*
D14*
X139700000Y-118110000D03*
D15*
X203200000Y-79375000D03*
D16*
X192036700Y-81915000D03*
X192036700Y-76835000D03*
D15*
X203187300Y-67310000D03*
D16*
X192024000Y-69850000D03*
X192024000Y-64770000D03*
D15*
X116852700Y-78740000D03*
D16*
X128016000Y-76200000D03*
X128016000Y-81280000D03*
D15*
X116979700Y-66040000D03*
D16*
X128143000Y-63500000D03*
X128143000Y-68580000D03*
G36*
G01*
X108995600Y-57945000D02*
X109444400Y-57945000D01*
G75*
G02*
X109520000Y-58020600I0J-75600D01*
G01*
X109520000Y-58409400D01*
G75*
G02*
X109444400Y-58485000I-75600J0D01*
G01*
X108995600Y-58485000D01*
G75*
G02*
X108920000Y-58409400I0J75600D01*
G01*
X108920000Y-58020600D01*
G75*
G02*
X108995600Y-57945000I75600J0D01*
G01*
G37*
G36*
G01*
X108995600Y-57085000D02*
X109444400Y-57085000D01*
G75*
G02*
X109520000Y-57160600I0J-75600D01*
G01*
X109520000Y-57549400D01*
G75*
G02*
X109444400Y-57625000I-75600J0D01*
G01*
X108995600Y-57625000D01*
G75*
G02*
X108920000Y-57549400I0J75600D01*
G01*
X108920000Y-57160600D01*
G75*
G02*
X108995600Y-57085000I75600J0D01*
G01*
G37*
G36*
G01*
X209774400Y-58895000D02*
X209325600Y-58895000D01*
G75*
G02*
X209250000Y-58819400I0J75600D01*
G01*
X209250000Y-58430600D01*
G75*
G02*
X209325600Y-58355000I75600J0D01*
G01*
X209774400Y-58355000D01*
G75*
G02*
X209850000Y-58430600I0J-75600D01*
G01*
X209850000Y-58819400D01*
G75*
G02*
X209774400Y-58895000I-75600J0D01*
G01*
G37*
G36*
G01*
X209774400Y-59755000D02*
X209325600Y-59755000D01*
G75*
G02*
X209250000Y-59679400I0J75600D01*
G01*
X209250000Y-59290600D01*
G75*
G02*
X209325600Y-59215000I75600J0D01*
G01*
X209774400Y-59215000D01*
G75*
G02*
X209850000Y-59290600I0J-75600D01*
G01*
X209850000Y-59679400D01*
G75*
G02*
X209774400Y-59755000I-75600J0D01*
G01*
G37*
G36*
G01*
X118080400Y-54196000D02*
X117631600Y-54196000D01*
G75*
G02*
X117556000Y-54120400I0J75600D01*
G01*
X117556000Y-53731600D01*
G75*
G02*
X117631600Y-53656000I75600J0D01*
G01*
X118080400Y-53656000D01*
G75*
G02*
X118156000Y-53731600I0J-75600D01*
G01*
X118156000Y-54120400D01*
G75*
G02*
X118080400Y-54196000I-75600J0D01*
G01*
G37*
G36*
G01*
X118080400Y-55056000D02*
X117631600Y-55056000D01*
G75*
G02*
X117556000Y-54980400I0J75600D01*
G01*
X117556000Y-54591600D01*
G75*
G02*
X117631600Y-54516000I75600J0D01*
G01*
X118080400Y-54516000D01*
G75*
G02*
X118156000Y-54591600I0J-75600D01*
G01*
X118156000Y-54980400D01*
G75*
G02*
X118080400Y-55056000I-75600J0D01*
G01*
G37*
G36*
G01*
X175992400Y-55310000D02*
X175543600Y-55310000D01*
G75*
G02*
X175468000Y-55234400I0J75600D01*
G01*
X175468000Y-54845600D01*
G75*
G02*
X175543600Y-54770000I75600J0D01*
G01*
X175992400Y-54770000D01*
G75*
G02*
X176068000Y-54845600I0J-75600D01*
G01*
X176068000Y-55234400D01*
G75*
G02*
X175992400Y-55310000I-75600J0D01*
G01*
G37*
G36*
G01*
X175992400Y-54450000D02*
X175543600Y-54450000D01*
G75*
G02*
X175468000Y-54374400I0J75600D01*
G01*
X175468000Y-53985600D01*
G75*
G02*
X175543600Y-53910000I75600J0D01*
G01*
X175992400Y-53910000D01*
G75*
G02*
X176068000Y-53985600I0J-75600D01*
G01*
X176068000Y-54374400D01*
G75*
G02*
X175992400Y-54450000I-75600J0D01*
G01*
G37*
G36*
G01*
X119604400Y-55056000D02*
X119155600Y-55056000D01*
G75*
G02*
X119080000Y-54980400I0J75600D01*
G01*
X119080000Y-54591600D01*
G75*
G02*
X119155600Y-54516000I75600J0D01*
G01*
X119604400Y-54516000D01*
G75*
G02*
X119680000Y-54591600I0J-75600D01*
G01*
X119680000Y-54980400D01*
G75*
G02*
X119604400Y-55056000I-75600J0D01*
G01*
G37*
G36*
G01*
X119604400Y-54196000D02*
X119155600Y-54196000D01*
G75*
G02*
X119080000Y-54120400I0J75600D01*
G01*
X119080000Y-53731600D01*
G75*
G02*
X119155600Y-53656000I75600J0D01*
G01*
X119604400Y-53656000D01*
G75*
G02*
X119680000Y-53731600I0J-75600D01*
G01*
X119680000Y-54120400D01*
G75*
G02*
X119604400Y-54196000I-75600J0D01*
G01*
G37*
G36*
G01*
X177770400Y-54450000D02*
X177321600Y-54450000D01*
G75*
G02*
X177246000Y-54374400I0J75600D01*
G01*
X177246000Y-53985600D01*
G75*
G02*
X177321600Y-53910000I75600J0D01*
G01*
X177770400Y-53910000D01*
G75*
G02*
X177846000Y-53985600I0J-75600D01*
G01*
X177846000Y-54374400D01*
G75*
G02*
X177770400Y-54450000I-75600J0D01*
G01*
G37*
G36*
G01*
X177770400Y-55310000D02*
X177321600Y-55310000D01*
G75*
G02*
X177246000Y-55234400I0J75600D01*
G01*
X177246000Y-54845600D01*
G75*
G02*
X177321600Y-54770000I75600J0D01*
G01*
X177770400Y-54770000D01*
G75*
G02*
X177846000Y-54845600I0J-75600D01*
G01*
X177846000Y-55234400D01*
G75*
G02*
X177770400Y-55310000I-75600J0D01*
G01*
G37*
G36*
G01*
X121128400Y-54196000D02*
X120679600Y-54196000D01*
G75*
G02*
X120604000Y-54120400I0J75600D01*
G01*
X120604000Y-53731600D01*
G75*
G02*
X120679600Y-53656000I75600J0D01*
G01*
X121128400Y-53656000D01*
G75*
G02*
X121204000Y-53731600I0J-75600D01*
G01*
X121204000Y-54120400D01*
G75*
G02*
X121128400Y-54196000I-75600J0D01*
G01*
G37*
G36*
G01*
X121128400Y-55056000D02*
X120679600Y-55056000D01*
G75*
G02*
X120604000Y-54980400I0J75600D01*
G01*
X120604000Y-54591600D01*
G75*
G02*
X120679600Y-54516000I75600J0D01*
G01*
X121128400Y-54516000D01*
G75*
G02*
X121204000Y-54591600I0J-75600D01*
G01*
X121204000Y-54980400D01*
G75*
G02*
X121128400Y-55056000I-75600J0D01*
G01*
G37*
G36*
G01*
X154378000Y-85641000D02*
X154378000Y-85301000D01*
G75*
G02*
X154518000Y-85161000I140000J0D01*
G01*
X154798000Y-85161000D01*
G75*
G02*
X154938000Y-85301000I0J-140000D01*
G01*
X154938000Y-85641000D01*
G75*
G02*
X154798000Y-85781000I-140000J0D01*
G01*
X154518000Y-85781000D01*
G75*
G02*
X154378000Y-85641000I0J140000D01*
G01*
G37*
G36*
G01*
X153418000Y-85641000D02*
X153418000Y-85301000D01*
G75*
G02*
X153558000Y-85161000I140000J0D01*
G01*
X153838000Y-85161000D01*
G75*
G02*
X153978000Y-85301000I0J-140000D01*
G01*
X153978000Y-85641000D01*
G75*
G02*
X153838000Y-85781000I-140000J0D01*
G01*
X153558000Y-85781000D01*
G75*
G02*
X153418000Y-85641000I0J140000D01*
G01*
G37*
G36*
G01*
X163955000Y-85555000D02*
X163955000Y-85895000D01*
G75*
G02*
X163815000Y-86035000I-140000J0D01*
G01*
X163535000Y-86035000D01*
G75*
G02*
X163395000Y-85895000I0J140000D01*
G01*
X163395000Y-85555000D01*
G75*
G02*
X163535000Y-85415000I140000J0D01*
G01*
X163815000Y-85415000D01*
G75*
G02*
X163955000Y-85555000I0J-140000D01*
G01*
G37*
G36*
G01*
X162995000Y-85555000D02*
X162995000Y-85895000D01*
G75*
G02*
X162855000Y-86035000I-140000J0D01*
G01*
X162575000Y-86035000D01*
G75*
G02*
X162435000Y-85895000I0J140000D01*
G01*
X162435000Y-85555000D01*
G75*
G02*
X162575000Y-85415000I140000J0D01*
G01*
X162855000Y-85415000D01*
G75*
G02*
X162995000Y-85555000I0J-140000D01*
G01*
G37*
G36*
G01*
X179421400Y-55310000D02*
X178972600Y-55310000D01*
G75*
G02*
X178897000Y-55234400I0J75600D01*
G01*
X178897000Y-54845600D01*
G75*
G02*
X178972600Y-54770000I75600J0D01*
G01*
X179421400Y-54770000D01*
G75*
G02*
X179497000Y-54845600I0J-75600D01*
G01*
X179497000Y-55234400D01*
G75*
G02*
X179421400Y-55310000I-75600J0D01*
G01*
G37*
G36*
G01*
X179421400Y-54450000D02*
X178972600Y-54450000D01*
G75*
G02*
X178897000Y-54374400I0J75600D01*
G01*
X178897000Y-53985600D01*
G75*
G02*
X178972600Y-53910000I75600J0D01*
G01*
X179421400Y-53910000D01*
G75*
G02*
X179497000Y-53985600I0J-75600D01*
G01*
X179497000Y-54374400D01*
G75*
G02*
X179421400Y-54450000I-75600J0D01*
G01*
G37*
G36*
G01*
X122652400Y-55056000D02*
X122203600Y-55056000D01*
G75*
G02*
X122128000Y-54980400I0J75600D01*
G01*
X122128000Y-54591600D01*
G75*
G02*
X122203600Y-54516000I75600J0D01*
G01*
X122652400Y-54516000D01*
G75*
G02*
X122728000Y-54591600I0J-75600D01*
G01*
X122728000Y-54980400D01*
G75*
G02*
X122652400Y-55056000I-75600J0D01*
G01*
G37*
G36*
G01*
X122652400Y-54196000D02*
X122203600Y-54196000D01*
G75*
G02*
X122128000Y-54120400I0J75600D01*
G01*
X122128000Y-53731600D01*
G75*
G02*
X122203600Y-53656000I75600J0D01*
G01*
X122652400Y-53656000D01*
G75*
G02*
X122728000Y-53731600I0J-75600D01*
G01*
X122728000Y-54120400D01*
G75*
G02*
X122652400Y-54196000I-75600J0D01*
G01*
G37*
G36*
G01*
X180945400Y-54450000D02*
X180496600Y-54450000D01*
G75*
G02*
X180421000Y-54374400I0J75600D01*
G01*
X180421000Y-53985600D01*
G75*
G02*
X180496600Y-53910000I75600J0D01*
G01*
X180945400Y-53910000D01*
G75*
G02*
X181021000Y-53985600I0J-75600D01*
G01*
X181021000Y-54374400D01*
G75*
G02*
X180945400Y-54450000I-75600J0D01*
G01*
G37*
G36*
G01*
X180945400Y-55310000D02*
X180496600Y-55310000D01*
G75*
G02*
X180421000Y-55234400I0J75600D01*
G01*
X180421000Y-54845600D01*
G75*
G02*
X180496600Y-54770000I75600J0D01*
G01*
X180945400Y-54770000D01*
G75*
G02*
X181021000Y-54845600I0J-75600D01*
G01*
X181021000Y-55234400D01*
G75*
G02*
X180945400Y-55310000I-75600J0D01*
G01*
G37*
G36*
G01*
X182469400Y-55310000D02*
X182020600Y-55310000D01*
G75*
G02*
X181945000Y-55234400I0J75600D01*
G01*
X181945000Y-54845600D01*
G75*
G02*
X182020600Y-54770000I75600J0D01*
G01*
X182469400Y-54770000D01*
G75*
G02*
X182545000Y-54845600I0J-75600D01*
G01*
X182545000Y-55234400D01*
G75*
G02*
X182469400Y-55310000I-75600J0D01*
G01*
G37*
G36*
G01*
X182469400Y-54450000D02*
X182020600Y-54450000D01*
G75*
G02*
X181945000Y-54374400I0J75600D01*
G01*
X181945000Y-53985600D01*
G75*
G02*
X182020600Y-53910000I75600J0D01*
G01*
X182469400Y-53910000D01*
G75*
G02*
X182545000Y-53985600I0J-75600D01*
G01*
X182545000Y-54374400D01*
G75*
G02*
X182469400Y-54450000I-75600J0D01*
G01*
G37*
G36*
G01*
X124176400Y-55056000D02*
X123727600Y-55056000D01*
G75*
G02*
X123652000Y-54980400I0J75600D01*
G01*
X123652000Y-54591600D01*
G75*
G02*
X123727600Y-54516000I75600J0D01*
G01*
X124176400Y-54516000D01*
G75*
G02*
X124252000Y-54591600I0J-75600D01*
G01*
X124252000Y-54980400D01*
G75*
G02*
X124176400Y-55056000I-75600J0D01*
G01*
G37*
G36*
G01*
X124176400Y-54196000D02*
X123727600Y-54196000D01*
G75*
G02*
X123652000Y-54120400I0J75600D01*
G01*
X123652000Y-53731600D01*
G75*
G02*
X123727600Y-53656000I75600J0D01*
G01*
X124176400Y-53656000D01*
G75*
G02*
X124252000Y-53731600I0J-75600D01*
G01*
X124252000Y-54120400D01*
G75*
G02*
X124176400Y-54196000I-75600J0D01*
G01*
G37*
G36*
G01*
X125700400Y-55056000D02*
X125251600Y-55056000D01*
G75*
G02*
X125176000Y-54980400I0J75600D01*
G01*
X125176000Y-54591600D01*
G75*
G02*
X125251600Y-54516000I75600J0D01*
G01*
X125700400Y-54516000D01*
G75*
G02*
X125776000Y-54591600I0J-75600D01*
G01*
X125776000Y-54980400D01*
G75*
G02*
X125700400Y-55056000I-75600J0D01*
G01*
G37*
G36*
G01*
X125700400Y-54196000D02*
X125251600Y-54196000D01*
G75*
G02*
X125176000Y-54120400I0J75600D01*
G01*
X125176000Y-53731600D01*
G75*
G02*
X125251600Y-53656000I75600J0D01*
G01*
X125700400Y-53656000D01*
G75*
G02*
X125776000Y-53731600I0J-75600D01*
G01*
X125776000Y-54120400D01*
G75*
G02*
X125700400Y-54196000I-75600J0D01*
G01*
G37*
G36*
G01*
X183993400Y-54450000D02*
X183544600Y-54450000D01*
G75*
G02*
X183469000Y-54374400I0J75600D01*
G01*
X183469000Y-53985600D01*
G75*
G02*
X183544600Y-53910000I75600J0D01*
G01*
X183993400Y-53910000D01*
G75*
G02*
X184069000Y-53985600I0J-75600D01*
G01*
X184069000Y-54374400D01*
G75*
G02*
X183993400Y-54450000I-75600J0D01*
G01*
G37*
G36*
G01*
X183993400Y-55310000D02*
X183544600Y-55310000D01*
G75*
G02*
X183469000Y-55234400I0J75600D01*
G01*
X183469000Y-54845600D01*
G75*
G02*
X183544600Y-54770000I75600J0D01*
G01*
X183993400Y-54770000D01*
G75*
G02*
X184069000Y-54845600I0J-75600D01*
G01*
X184069000Y-55234400D01*
G75*
G02*
X183993400Y-55310000I-75600J0D01*
G01*
G37*
G36*
G01*
X127224400Y-54196000D02*
X126775600Y-54196000D01*
G75*
G02*
X126700000Y-54120400I0J75600D01*
G01*
X126700000Y-53731600D01*
G75*
G02*
X126775600Y-53656000I75600J0D01*
G01*
X127224400Y-53656000D01*
G75*
G02*
X127300000Y-53731600I0J-75600D01*
G01*
X127300000Y-54120400D01*
G75*
G02*
X127224400Y-54196000I-75600J0D01*
G01*
G37*
G36*
G01*
X127224400Y-55056000D02*
X126775600Y-55056000D01*
G75*
G02*
X126700000Y-54980400I0J75600D01*
G01*
X126700000Y-54591600D01*
G75*
G02*
X126775600Y-54516000I75600J0D01*
G01*
X127224400Y-54516000D01*
G75*
G02*
X127300000Y-54591600I0J-75600D01*
G01*
X127300000Y-54980400D01*
G75*
G02*
X127224400Y-55056000I-75600J0D01*
G01*
G37*
G36*
G01*
X185517400Y-55310000D02*
X185068600Y-55310000D01*
G75*
G02*
X184993000Y-55234400I0J75600D01*
G01*
X184993000Y-54845600D01*
G75*
G02*
X185068600Y-54770000I75600J0D01*
G01*
X185517400Y-54770000D01*
G75*
G02*
X185593000Y-54845600I0J-75600D01*
G01*
X185593000Y-55234400D01*
G75*
G02*
X185517400Y-55310000I-75600J0D01*
G01*
G37*
G36*
G01*
X185517400Y-54450000D02*
X185068600Y-54450000D01*
G75*
G02*
X184993000Y-54374400I0J75600D01*
G01*
X184993000Y-53985600D01*
G75*
G02*
X185068600Y-53910000I75600J0D01*
G01*
X185517400Y-53910000D01*
G75*
G02*
X185593000Y-53985600I0J-75600D01*
G01*
X185593000Y-54374400D01*
G75*
G02*
X185517400Y-54450000I-75600J0D01*
G01*
G37*
G36*
G01*
X128748400Y-55056000D02*
X128299600Y-55056000D01*
G75*
G02*
X128224000Y-54980400I0J75600D01*
G01*
X128224000Y-54591600D01*
G75*
G02*
X128299600Y-54516000I75600J0D01*
G01*
X128748400Y-54516000D01*
G75*
G02*
X128824000Y-54591600I0J-75600D01*
G01*
X128824000Y-54980400D01*
G75*
G02*
X128748400Y-55056000I-75600J0D01*
G01*
G37*
G36*
G01*
X128748400Y-54196000D02*
X128299600Y-54196000D01*
G75*
G02*
X128224000Y-54120400I0J75600D01*
G01*
X128224000Y-53731600D01*
G75*
G02*
X128299600Y-53656000I75600J0D01*
G01*
X128748400Y-53656000D01*
G75*
G02*
X128824000Y-53731600I0J-75600D01*
G01*
X128824000Y-54120400D01*
G75*
G02*
X128748400Y-54196000I-75600J0D01*
G01*
G37*
G36*
G01*
X187041400Y-54450000D02*
X186592600Y-54450000D01*
G75*
G02*
X186517000Y-54374400I0J75600D01*
G01*
X186517000Y-53985600D01*
G75*
G02*
X186592600Y-53910000I75600J0D01*
G01*
X187041400Y-53910000D01*
G75*
G02*
X187117000Y-53985600I0J-75600D01*
G01*
X187117000Y-54374400D01*
G75*
G02*
X187041400Y-54450000I-75600J0D01*
G01*
G37*
G36*
G01*
X187041400Y-55310000D02*
X186592600Y-55310000D01*
G75*
G02*
X186517000Y-55234400I0J75600D01*
G01*
X186517000Y-54845600D01*
G75*
G02*
X186592600Y-54770000I75600J0D01*
G01*
X187041400Y-54770000D01*
G75*
G02*
X187117000Y-54845600I0J-75600D01*
G01*
X187117000Y-55234400D01*
G75*
G02*
X187041400Y-55310000I-75600J0D01*
G01*
G37*
G36*
G01*
X130272400Y-54196000D02*
X129823600Y-54196000D01*
G75*
G02*
X129748000Y-54120400I0J75600D01*
G01*
X129748000Y-53731600D01*
G75*
G02*
X129823600Y-53656000I75600J0D01*
G01*
X130272400Y-53656000D01*
G75*
G02*
X130348000Y-53731600I0J-75600D01*
G01*
X130348000Y-54120400D01*
G75*
G02*
X130272400Y-54196000I-75600J0D01*
G01*
G37*
G36*
G01*
X130272400Y-55056000D02*
X129823600Y-55056000D01*
G75*
G02*
X129748000Y-54980400I0J75600D01*
G01*
X129748000Y-54591600D01*
G75*
G02*
X129823600Y-54516000I75600J0D01*
G01*
X130272400Y-54516000D01*
G75*
G02*
X130348000Y-54591600I0J-75600D01*
G01*
X130348000Y-54980400D01*
G75*
G02*
X130272400Y-55056000I-75600J0D01*
G01*
G37*
G36*
G01*
X188565400Y-55310000D02*
X188116600Y-55310000D01*
G75*
G02*
X188041000Y-55234400I0J75600D01*
G01*
X188041000Y-54845600D01*
G75*
G02*
X188116600Y-54770000I75600J0D01*
G01*
X188565400Y-54770000D01*
G75*
G02*
X188641000Y-54845600I0J-75600D01*
G01*
X188641000Y-55234400D01*
G75*
G02*
X188565400Y-55310000I-75600J0D01*
G01*
G37*
G36*
G01*
X188565400Y-54450000D02*
X188116600Y-54450000D01*
G75*
G02*
X188041000Y-54374400I0J75600D01*
G01*
X188041000Y-53985600D01*
G75*
G02*
X188116600Y-53910000I75600J0D01*
G01*
X188565400Y-53910000D01*
G75*
G02*
X188641000Y-53985600I0J-75600D01*
G01*
X188641000Y-54374400D01*
G75*
G02*
X188565400Y-54450000I-75600J0D01*
G01*
G37*
G36*
G01*
X131796400Y-54196000D02*
X131347600Y-54196000D01*
G75*
G02*
X131272000Y-54120400I0J75600D01*
G01*
X131272000Y-53731600D01*
G75*
G02*
X131347600Y-53656000I75600J0D01*
G01*
X131796400Y-53656000D01*
G75*
G02*
X131872000Y-53731600I0J-75600D01*
G01*
X131872000Y-54120400D01*
G75*
G02*
X131796400Y-54196000I-75600J0D01*
G01*
G37*
G36*
G01*
X131796400Y-55056000D02*
X131347600Y-55056000D01*
G75*
G02*
X131272000Y-54980400I0J75600D01*
G01*
X131272000Y-54591600D01*
G75*
G02*
X131347600Y-54516000I75600J0D01*
G01*
X131796400Y-54516000D01*
G75*
G02*
X131872000Y-54591600I0J-75600D01*
G01*
X131872000Y-54980400D01*
G75*
G02*
X131796400Y-55056000I-75600J0D01*
G01*
G37*
G36*
G01*
X190089400Y-54450000D02*
X189640600Y-54450000D01*
G75*
G02*
X189565000Y-54374400I0J75600D01*
G01*
X189565000Y-53985600D01*
G75*
G02*
X189640600Y-53910000I75600J0D01*
G01*
X190089400Y-53910000D01*
G75*
G02*
X190165000Y-53985600I0J-75600D01*
G01*
X190165000Y-54374400D01*
G75*
G02*
X190089400Y-54450000I-75600J0D01*
G01*
G37*
G36*
G01*
X190089400Y-55310000D02*
X189640600Y-55310000D01*
G75*
G02*
X189565000Y-55234400I0J75600D01*
G01*
X189565000Y-54845600D01*
G75*
G02*
X189640600Y-54770000I75600J0D01*
G01*
X190089400Y-54770000D01*
G75*
G02*
X190165000Y-54845600I0J-75600D01*
G01*
X190165000Y-55234400D01*
G75*
G02*
X190089400Y-55310000I-75600J0D01*
G01*
G37*
G36*
G01*
X133320400Y-54196000D02*
X132871600Y-54196000D01*
G75*
G02*
X132796000Y-54120400I0J75600D01*
G01*
X132796000Y-53731600D01*
G75*
G02*
X132871600Y-53656000I75600J0D01*
G01*
X133320400Y-53656000D01*
G75*
G02*
X133396000Y-53731600I0J-75600D01*
G01*
X133396000Y-54120400D01*
G75*
G02*
X133320400Y-54196000I-75600J0D01*
G01*
G37*
G36*
G01*
X133320400Y-55056000D02*
X132871600Y-55056000D01*
G75*
G02*
X132796000Y-54980400I0J75600D01*
G01*
X132796000Y-54591600D01*
G75*
G02*
X132871600Y-54516000I75600J0D01*
G01*
X133320400Y-54516000D01*
G75*
G02*
X133396000Y-54591600I0J-75600D01*
G01*
X133396000Y-54980400D01*
G75*
G02*
X133320400Y-55056000I-75600J0D01*
G01*
G37*
G36*
G01*
X191613400Y-55310000D02*
X191164600Y-55310000D01*
G75*
G02*
X191089000Y-55234400I0J75600D01*
G01*
X191089000Y-54845600D01*
G75*
G02*
X191164600Y-54770000I75600J0D01*
G01*
X191613400Y-54770000D01*
G75*
G02*
X191689000Y-54845600I0J-75600D01*
G01*
X191689000Y-55234400D01*
G75*
G02*
X191613400Y-55310000I-75600J0D01*
G01*
G37*
G36*
G01*
X191613400Y-54450000D02*
X191164600Y-54450000D01*
G75*
G02*
X191089000Y-54374400I0J75600D01*
G01*
X191089000Y-53985600D01*
G75*
G02*
X191164600Y-53910000I75600J0D01*
G01*
X191613400Y-53910000D01*
G75*
G02*
X191689000Y-53985600I0J-75600D01*
G01*
X191689000Y-54374400D01*
G75*
G02*
X191613400Y-54450000I-75600J0D01*
G01*
G37*
G36*
G01*
X134844400Y-55056000D02*
X134395600Y-55056000D01*
G75*
G02*
X134320000Y-54980400I0J75600D01*
G01*
X134320000Y-54591600D01*
G75*
G02*
X134395600Y-54516000I75600J0D01*
G01*
X134844400Y-54516000D01*
G75*
G02*
X134920000Y-54591600I0J-75600D01*
G01*
X134920000Y-54980400D01*
G75*
G02*
X134844400Y-55056000I-75600J0D01*
G01*
G37*
G36*
G01*
X134844400Y-54196000D02*
X134395600Y-54196000D01*
G75*
G02*
X134320000Y-54120400I0J75600D01*
G01*
X134320000Y-53731600D01*
G75*
G02*
X134395600Y-53656000I75600J0D01*
G01*
X134844400Y-53656000D01*
G75*
G02*
X134920000Y-53731600I0J-75600D01*
G01*
X134920000Y-54120400D01*
G75*
G02*
X134844400Y-54196000I-75600J0D01*
G01*
G37*
G36*
G01*
X193137400Y-54450000D02*
X192688600Y-54450000D01*
G75*
G02*
X192613000Y-54374400I0J75600D01*
G01*
X192613000Y-53985600D01*
G75*
G02*
X192688600Y-53910000I75600J0D01*
G01*
X193137400Y-53910000D01*
G75*
G02*
X193213000Y-53985600I0J-75600D01*
G01*
X193213000Y-54374400D01*
G75*
G02*
X193137400Y-54450000I-75600J0D01*
G01*
G37*
G36*
G01*
X193137400Y-55310000D02*
X192688600Y-55310000D01*
G75*
G02*
X192613000Y-55234400I0J75600D01*
G01*
X192613000Y-54845600D01*
G75*
G02*
X192688600Y-54770000I75600J0D01*
G01*
X193137400Y-54770000D01*
G75*
G02*
X193213000Y-54845600I0J-75600D01*
G01*
X193213000Y-55234400D01*
G75*
G02*
X193137400Y-55310000I-75600J0D01*
G01*
G37*
G36*
G01*
X136368400Y-54196000D02*
X135919600Y-54196000D01*
G75*
G02*
X135844000Y-54120400I0J75600D01*
G01*
X135844000Y-53731600D01*
G75*
G02*
X135919600Y-53656000I75600J0D01*
G01*
X136368400Y-53656000D01*
G75*
G02*
X136444000Y-53731600I0J-75600D01*
G01*
X136444000Y-54120400D01*
G75*
G02*
X136368400Y-54196000I-75600J0D01*
G01*
G37*
G36*
G01*
X136368400Y-55056000D02*
X135919600Y-55056000D01*
G75*
G02*
X135844000Y-54980400I0J75600D01*
G01*
X135844000Y-54591600D01*
G75*
G02*
X135919600Y-54516000I75600J0D01*
G01*
X136368400Y-54516000D01*
G75*
G02*
X136444000Y-54591600I0J-75600D01*
G01*
X136444000Y-54980400D01*
G75*
G02*
X136368400Y-55056000I-75600J0D01*
G01*
G37*
G36*
G01*
X194661400Y-55310000D02*
X194212600Y-55310000D01*
G75*
G02*
X194137000Y-55234400I0J75600D01*
G01*
X194137000Y-54845600D01*
G75*
G02*
X194212600Y-54770000I75600J0D01*
G01*
X194661400Y-54770000D01*
G75*
G02*
X194737000Y-54845600I0J-75600D01*
G01*
X194737000Y-55234400D01*
G75*
G02*
X194661400Y-55310000I-75600J0D01*
G01*
G37*
G36*
G01*
X194661400Y-54450000D02*
X194212600Y-54450000D01*
G75*
G02*
X194137000Y-54374400I0J75600D01*
G01*
X194137000Y-53985600D01*
G75*
G02*
X194212600Y-53910000I75600J0D01*
G01*
X194661400Y-53910000D01*
G75*
G02*
X194737000Y-53985600I0J-75600D01*
G01*
X194737000Y-54374400D01*
G75*
G02*
X194661400Y-54450000I-75600J0D01*
G01*
G37*
G36*
G01*
X137892400Y-55056000D02*
X137443600Y-55056000D01*
G75*
G02*
X137368000Y-54980400I0J75600D01*
G01*
X137368000Y-54591600D01*
G75*
G02*
X137443600Y-54516000I75600J0D01*
G01*
X137892400Y-54516000D01*
G75*
G02*
X137968000Y-54591600I0J-75600D01*
G01*
X137968000Y-54980400D01*
G75*
G02*
X137892400Y-55056000I-75600J0D01*
G01*
G37*
G36*
G01*
X137892400Y-54196000D02*
X137443600Y-54196000D01*
G75*
G02*
X137368000Y-54120400I0J75600D01*
G01*
X137368000Y-53731600D01*
G75*
G02*
X137443600Y-53656000I75600J0D01*
G01*
X137892400Y-53656000D01*
G75*
G02*
X137968000Y-53731600I0J-75600D01*
G01*
X137968000Y-54120400D01*
G75*
G02*
X137892400Y-54196000I-75600J0D01*
G01*
G37*
G36*
G01*
X196185400Y-54450000D02*
X195736600Y-54450000D01*
G75*
G02*
X195661000Y-54374400I0J75600D01*
G01*
X195661000Y-53985600D01*
G75*
G02*
X195736600Y-53910000I75600J0D01*
G01*
X196185400Y-53910000D01*
G75*
G02*
X196261000Y-53985600I0J-75600D01*
G01*
X196261000Y-54374400D01*
G75*
G02*
X196185400Y-54450000I-75600J0D01*
G01*
G37*
G36*
G01*
X196185400Y-55310000D02*
X195736600Y-55310000D01*
G75*
G02*
X195661000Y-55234400I0J75600D01*
G01*
X195661000Y-54845600D01*
G75*
G02*
X195736600Y-54770000I75600J0D01*
G01*
X196185400Y-54770000D01*
G75*
G02*
X196261000Y-54845600I0J-75600D01*
G01*
X196261000Y-55234400D01*
G75*
G02*
X196185400Y-55310000I-75600J0D01*
G01*
G37*
G36*
G01*
X139416400Y-55056000D02*
X138967600Y-55056000D01*
G75*
G02*
X138892000Y-54980400I0J75600D01*
G01*
X138892000Y-54591600D01*
G75*
G02*
X138967600Y-54516000I75600J0D01*
G01*
X139416400Y-54516000D01*
G75*
G02*
X139492000Y-54591600I0J-75600D01*
G01*
X139492000Y-54980400D01*
G75*
G02*
X139416400Y-55056000I-75600J0D01*
G01*
G37*
G36*
G01*
X139416400Y-54196000D02*
X138967600Y-54196000D01*
G75*
G02*
X138892000Y-54120400I0J75600D01*
G01*
X138892000Y-53731600D01*
G75*
G02*
X138967600Y-53656000I75600J0D01*
G01*
X139416400Y-53656000D01*
G75*
G02*
X139492000Y-53731600I0J-75600D01*
G01*
X139492000Y-54120400D01*
G75*
G02*
X139416400Y-54196000I-75600J0D01*
G01*
G37*
G36*
G01*
X197709400Y-54450000D02*
X197260600Y-54450000D01*
G75*
G02*
X197185000Y-54374400I0J75600D01*
G01*
X197185000Y-53985600D01*
G75*
G02*
X197260600Y-53910000I75600J0D01*
G01*
X197709400Y-53910000D01*
G75*
G02*
X197785000Y-53985600I0J-75600D01*
G01*
X197785000Y-54374400D01*
G75*
G02*
X197709400Y-54450000I-75600J0D01*
G01*
G37*
G36*
G01*
X197709400Y-55310000D02*
X197260600Y-55310000D01*
G75*
G02*
X197185000Y-55234400I0J75600D01*
G01*
X197185000Y-54845600D01*
G75*
G02*
X197260600Y-54770000I75600J0D01*
G01*
X197709400Y-54770000D01*
G75*
G02*
X197785000Y-54845600I0J-75600D01*
G01*
X197785000Y-55234400D01*
G75*
G02*
X197709400Y-55310000I-75600J0D01*
G01*
G37*
G36*
G01*
X140940400Y-54196000D02*
X140491600Y-54196000D01*
G75*
G02*
X140416000Y-54120400I0J75600D01*
G01*
X140416000Y-53731600D01*
G75*
G02*
X140491600Y-53656000I75600J0D01*
G01*
X140940400Y-53656000D01*
G75*
G02*
X141016000Y-53731600I0J-75600D01*
G01*
X141016000Y-54120400D01*
G75*
G02*
X140940400Y-54196000I-75600J0D01*
G01*
G37*
G36*
G01*
X140940400Y-55056000D02*
X140491600Y-55056000D01*
G75*
G02*
X140416000Y-54980400I0J75600D01*
G01*
X140416000Y-54591600D01*
G75*
G02*
X140491600Y-54516000I75600J0D01*
G01*
X140940400Y-54516000D01*
G75*
G02*
X141016000Y-54591600I0J-75600D01*
G01*
X141016000Y-54980400D01*
G75*
G02*
X140940400Y-55056000I-75600J0D01*
G01*
G37*
G36*
G01*
X199233400Y-55310000D02*
X198784600Y-55310000D01*
G75*
G02*
X198709000Y-55234400I0J75600D01*
G01*
X198709000Y-54845600D01*
G75*
G02*
X198784600Y-54770000I75600J0D01*
G01*
X199233400Y-54770000D01*
G75*
G02*
X199309000Y-54845600I0J-75600D01*
G01*
X199309000Y-55234400D01*
G75*
G02*
X199233400Y-55310000I-75600J0D01*
G01*
G37*
G36*
G01*
X199233400Y-54450000D02*
X198784600Y-54450000D01*
G75*
G02*
X198709000Y-54374400I0J75600D01*
G01*
X198709000Y-53985600D01*
G75*
G02*
X198784600Y-53910000I75600J0D01*
G01*
X199233400Y-53910000D01*
G75*
G02*
X199309000Y-53985600I0J-75600D01*
G01*
X199309000Y-54374400D01*
G75*
G02*
X199233400Y-54450000I-75600J0D01*
G01*
G37*
D17*
X135635000Y-78105000D03*
X132335000Y-78105000D03*
X186435000Y-76835000D03*
X183135000Y-76835000D03*
X136905000Y-86995000D03*
X133605000Y-86995000D03*
X181992000Y-86614000D03*
X185292000Y-86614000D03*
D18*
X104140000Y-65405000D03*
X104140000Y-87905000D03*
D19*
X104140000Y-76655000D03*
X213995000Y-81100000D03*
D18*
X213995000Y-92350000D03*
X213995000Y-69850000D03*
D14*
X103505000Y-59690000D03*
X160655000Y-52070000D03*
D20*
X158655000Y-52070000D03*
X187325000Y-101155000D03*
X187325000Y-99155000D03*
D14*
X187325000Y-97155000D03*
X172085000Y-118745000D03*
D20*
X174085000Y-118745000D03*
X176085000Y-118745000D03*
X104045000Y-113665000D03*
D14*
X106045000Y-113665000D03*
D21*
X104775000Y-94060000D03*
D22*
X104775000Y-99060000D03*
X214630000Y-103505000D03*
D21*
X214630000Y-98505000D03*
D14*
X214630000Y-110490000D03*
D20*
X214630000Y-112490000D03*
D14*
X213360000Y-63500000D03*
X160655000Y-118110000D03*
X118745000Y-118110000D03*
D20*
X120745000Y-118110000D03*
X122745000Y-118110000D03*
X124745000Y-118110000D03*
X126745000Y-118110000D03*
D23*
X153421000Y-79540000D03*
X163571000Y-79540000D03*
D24*
X158496000Y-57620000D03*
G36*
G01*
X116565000Y-57195000D02*
X117115000Y-57195000D01*
G75*
G02*
X117315000Y-57395000I0J-200000D01*
G01*
X117315000Y-57795000D01*
G75*
G02*
X117115000Y-57995000I-200000J0D01*
G01*
X116565000Y-57995000D01*
G75*
G02*
X116365000Y-57795000I0J200000D01*
G01*
X116365000Y-57395000D01*
G75*
G02*
X116565000Y-57195000I200000J0D01*
G01*
G37*
G36*
G01*
X116565000Y-58845000D02*
X117115000Y-58845000D01*
G75*
G02*
X117315000Y-59045000I0J-200000D01*
G01*
X117315000Y-59445000D01*
G75*
G02*
X117115000Y-59645000I-200000J0D01*
G01*
X116565000Y-59645000D01*
G75*
G02*
X116365000Y-59445000I0J200000D01*
G01*
X116365000Y-59045000D01*
G75*
G02*
X116565000Y-58845000I200000J0D01*
G01*
G37*
G36*
G01*
X202925000Y-60115000D02*
X203475000Y-60115000D01*
G75*
G02*
X203675000Y-60315000I0J-200000D01*
G01*
X203675000Y-60715000D01*
G75*
G02*
X203475000Y-60915000I-200000J0D01*
G01*
X202925000Y-60915000D01*
G75*
G02*
X202725000Y-60715000I0J200000D01*
G01*
X202725000Y-60315000D01*
G75*
G02*
X202925000Y-60115000I200000J0D01*
G01*
G37*
G36*
G01*
X202925000Y-58465000D02*
X203475000Y-58465000D01*
G75*
G02*
X203675000Y-58665000I0J-200000D01*
G01*
X203675000Y-59065000D01*
G75*
G02*
X203475000Y-59265000I-200000J0D01*
G01*
X202925000Y-59265000D01*
G75*
G02*
X202725000Y-59065000I0J200000D01*
G01*
X202725000Y-58665000D01*
G75*
G02*
X202925000Y-58465000I200000J0D01*
G01*
G37*
G36*
G01*
X126090000Y-57195000D02*
X126640000Y-57195000D01*
G75*
G02*
X126840000Y-57395000I0J-200000D01*
G01*
X126840000Y-57795000D01*
G75*
G02*
X126640000Y-57995000I-200000J0D01*
G01*
X126090000Y-57995000D01*
G75*
G02*
X125890000Y-57795000I0J200000D01*
G01*
X125890000Y-57395000D01*
G75*
G02*
X126090000Y-57195000I200000J0D01*
G01*
G37*
G36*
G01*
X126090000Y-58845000D02*
X126640000Y-58845000D01*
G75*
G02*
X126840000Y-59045000I0J-200000D01*
G01*
X126840000Y-59445000D01*
G75*
G02*
X126640000Y-59645000I-200000J0D01*
G01*
X126090000Y-59645000D01*
G75*
G02*
X125890000Y-59445000I0J200000D01*
G01*
X125890000Y-59045000D01*
G75*
G02*
X126090000Y-58845000I200000J0D01*
G01*
G37*
G36*
G01*
X198480000Y-58465000D02*
X199030000Y-58465000D01*
G75*
G02*
X199230000Y-58665000I0J-200000D01*
G01*
X199230000Y-59065000D01*
G75*
G02*
X199030000Y-59265000I-200000J0D01*
G01*
X198480000Y-59265000D01*
G75*
G02*
X198280000Y-59065000I0J200000D01*
G01*
X198280000Y-58665000D01*
G75*
G02*
X198480000Y-58465000I200000J0D01*
G01*
G37*
G36*
G01*
X198480000Y-60115000D02*
X199030000Y-60115000D01*
G75*
G02*
X199230000Y-60315000I0J-200000D01*
G01*
X199230000Y-60715000D01*
G75*
G02*
X199030000Y-60915000I-200000J0D01*
G01*
X198480000Y-60915000D01*
G75*
G02*
X198280000Y-60715000I0J200000D01*
G01*
X198280000Y-60315000D01*
G75*
G02*
X198480000Y-60115000I200000J0D01*
G01*
G37*
G36*
G01*
X110890000Y-103984999D02*
X110890000Y-106835001D01*
G75*
G02*
X110640001Y-107085000I-249999J0D01*
G01*
X109914999Y-107085000D01*
G75*
G02*
X109665000Y-106835001I0J249999D01*
G01*
X109665000Y-103984999D01*
G75*
G02*
X109914999Y-103735000I249999J0D01*
G01*
X110640001Y-103735000D01*
G75*
G02*
X110890000Y-103984999I0J-249999D01*
G01*
G37*
G36*
G01*
X104965000Y-103984999D02*
X104965000Y-106835001D01*
G75*
G02*
X104715001Y-107085000I-249999J0D01*
G01*
X103989999Y-107085000D01*
G75*
G02*
X103740000Y-106835001I0J249999D01*
G01*
X103740000Y-103984999D01*
G75*
G02*
X103989999Y-103735000I249999J0D01*
G01*
X104715001Y-103735000D01*
G75*
G02*
X104965000Y-103984999I0J-249999D01*
G01*
G37*
G36*
G01*
X205550000Y-110010001D02*
X205550000Y-107159999D01*
G75*
G02*
X205799999Y-106910000I249999J0D01*
G01*
X206525001Y-106910000D01*
G75*
G02*
X206775000Y-107159999I0J-249999D01*
G01*
X206775000Y-110010001D01*
G75*
G02*
X206525001Y-110260000I-249999J0D01*
G01*
X205799999Y-110260000D01*
G75*
G02*
X205550000Y-110010001I0J249999D01*
G01*
G37*
G36*
G01*
X199625000Y-110010001D02*
X199625000Y-107159999D01*
G75*
G02*
X199874999Y-106910000I249999J0D01*
G01*
X200600001Y-106910000D01*
G75*
G02*
X200850000Y-107159999I0J-249999D01*
G01*
X200850000Y-110010001D01*
G75*
G02*
X200600001Y-110260000I-249999J0D01*
G01*
X199874999Y-110260000D01*
G75*
G02*
X199625000Y-110010001I0J249999D01*
G01*
G37*
G36*
G01*
X132925000Y-73385000D02*
X132925000Y-73935000D01*
G75*
G02*
X132725000Y-74135000I-200000J0D01*
G01*
X132325000Y-74135000D01*
G75*
G02*
X132125000Y-73935000I0J200000D01*
G01*
X132125000Y-73385000D01*
G75*
G02*
X132325000Y-73185000I200000J0D01*
G01*
X132725000Y-73185000D01*
G75*
G02*
X132925000Y-73385000I0J-200000D01*
G01*
G37*
G36*
G01*
X134575000Y-73385000D02*
X134575000Y-73935000D01*
G75*
G02*
X134375000Y-74135000I-200000J0D01*
G01*
X133975000Y-74135000D01*
G75*
G02*
X133775000Y-73935000I0J200000D01*
G01*
X133775000Y-73385000D01*
G75*
G02*
X133975000Y-73185000I200000J0D01*
G01*
X134375000Y-73185000D01*
G75*
G02*
X134575000Y-73385000I0J-200000D01*
G01*
G37*
G36*
G01*
X185210000Y-65680000D02*
X185210000Y-65130000D01*
G75*
G02*
X185410000Y-64930000I200000J0D01*
G01*
X185810000Y-64930000D01*
G75*
G02*
X186010000Y-65130000I0J-200000D01*
G01*
X186010000Y-65680000D01*
G75*
G02*
X185810000Y-65880000I-200000J0D01*
G01*
X185410000Y-65880000D01*
G75*
G02*
X185210000Y-65680000I0J200000D01*
G01*
G37*
G36*
G01*
X183560000Y-65680000D02*
X183560000Y-65130000D01*
G75*
G02*
X183760000Y-64930000I200000J0D01*
G01*
X184160000Y-64930000D01*
G75*
G02*
X184360000Y-65130000I0J-200000D01*
G01*
X184360000Y-65680000D01*
G75*
G02*
X184160000Y-65880000I-200000J0D01*
G01*
X183760000Y-65880000D01*
G75*
G02*
X183560000Y-65680000I0J200000D01*
G01*
G37*
G36*
G01*
X139910000Y-75290000D02*
X139910000Y-75840000D01*
G75*
G02*
X139710000Y-76040000I-200000J0D01*
G01*
X139310000Y-76040000D01*
G75*
G02*
X139110000Y-75840000I0J200000D01*
G01*
X139110000Y-75290000D01*
G75*
G02*
X139310000Y-75090000I200000J0D01*
G01*
X139710000Y-75090000D01*
G75*
G02*
X139910000Y-75290000I0J-200000D01*
G01*
G37*
G36*
G01*
X141560000Y-75290000D02*
X141560000Y-75840000D01*
G75*
G02*
X141360000Y-76040000I-200000J0D01*
G01*
X140960000Y-76040000D01*
G75*
G02*
X140760000Y-75840000I0J200000D01*
G01*
X140760000Y-75290000D01*
G75*
G02*
X140960000Y-75090000I200000J0D01*
G01*
X141360000Y-75090000D01*
G75*
G02*
X141560000Y-75290000I0J-200000D01*
G01*
G37*
G36*
G01*
X176067000Y-73935000D02*
X176067000Y-73385000D01*
G75*
G02*
X176267000Y-73185000I200000J0D01*
G01*
X176667000Y-73185000D01*
G75*
G02*
X176867000Y-73385000I0J-200000D01*
G01*
X176867000Y-73935000D01*
G75*
G02*
X176667000Y-74135000I-200000J0D01*
G01*
X176267000Y-74135000D01*
G75*
G02*
X176067000Y-73935000I0J200000D01*
G01*
G37*
G36*
G01*
X177717000Y-73935000D02*
X177717000Y-73385000D01*
G75*
G02*
X177917000Y-73185000I200000J0D01*
G01*
X178317000Y-73185000D01*
G75*
G02*
X178517000Y-73385000I0J-200000D01*
G01*
X178517000Y-73935000D01*
G75*
G02*
X178317000Y-74135000I-200000J0D01*
G01*
X177917000Y-74135000D01*
G75*
G02*
X177717000Y-73935000I0J200000D01*
G01*
G37*
G36*
G01*
X132560000Y-83635002D02*
X132560000Y-82734998D01*
G75*
G02*
X132809998Y-82485000I249998J0D01*
G01*
X133335002Y-82485000D01*
G75*
G02*
X133585000Y-82734998I0J-249998D01*
G01*
X133585000Y-83635002D01*
G75*
G02*
X133335002Y-83885000I-249998J0D01*
G01*
X132809998Y-83885000D01*
G75*
G02*
X132560000Y-83635002I0J249998D01*
G01*
G37*
G36*
G01*
X134385000Y-83635002D02*
X134385000Y-82734998D01*
G75*
G02*
X134634998Y-82485000I249998J0D01*
G01*
X135160002Y-82485000D01*
G75*
G02*
X135410000Y-82734998I0J-249998D01*
G01*
X135410000Y-83635002D01*
G75*
G02*
X135160002Y-83885000I-249998J0D01*
G01*
X134634998Y-83885000D01*
G75*
G02*
X134385000Y-83635002I0J249998D01*
G01*
G37*
G36*
G01*
X153880000Y-89260000D02*
X153880000Y-89810000D01*
G75*
G02*
X153680000Y-90010000I-200000J0D01*
G01*
X153280000Y-90010000D01*
G75*
G02*
X153080000Y-89810000I0J200000D01*
G01*
X153080000Y-89260000D01*
G75*
G02*
X153280000Y-89060000I200000J0D01*
G01*
X153680000Y-89060000D01*
G75*
G02*
X153880000Y-89260000I0J-200000D01*
G01*
G37*
G36*
G01*
X155530000Y-89260000D02*
X155530000Y-89810000D01*
G75*
G02*
X155330000Y-90010000I-200000J0D01*
G01*
X154930000Y-90010000D01*
G75*
G02*
X154730000Y-89810000I0J200000D01*
G01*
X154730000Y-89260000D01*
G75*
G02*
X154930000Y-89060000I200000J0D01*
G01*
X155330000Y-89060000D01*
G75*
G02*
X155530000Y-89260000I0J-200000D01*
G01*
G37*
G36*
G01*
X161843000Y-89810000D02*
X161843000Y-89260000D01*
G75*
G02*
X162043000Y-89060000I200000J0D01*
G01*
X162443000Y-89060000D01*
G75*
G02*
X162643000Y-89260000I0J-200000D01*
G01*
X162643000Y-89810000D01*
G75*
G02*
X162443000Y-90010000I-200000J0D01*
G01*
X162043000Y-90010000D01*
G75*
G02*
X161843000Y-89810000I0J200000D01*
G01*
G37*
G36*
G01*
X163493000Y-89810000D02*
X163493000Y-89260000D01*
G75*
G02*
X163693000Y-89060000I200000J0D01*
G01*
X164093000Y-89060000D01*
G75*
G02*
X164293000Y-89260000I0J-200000D01*
G01*
X164293000Y-89810000D01*
G75*
G02*
X164093000Y-90010000I-200000J0D01*
G01*
X163693000Y-90010000D01*
G75*
G02*
X163493000Y-89810000I0J200000D01*
G01*
G37*
G36*
G01*
X184169000Y-82492002D02*
X184169000Y-81591998D01*
G75*
G02*
X184418998Y-81342000I249998J0D01*
G01*
X184944002Y-81342000D01*
G75*
G02*
X185194000Y-81591998I0J-249998D01*
G01*
X185194000Y-82492002D01*
G75*
G02*
X184944002Y-82742000I-249998J0D01*
G01*
X184418998Y-82742000D01*
G75*
G02*
X184169000Y-82492002I0J249998D01*
G01*
G37*
G36*
G01*
X182344000Y-82492002D02*
X182344000Y-81591998D01*
G75*
G02*
X182593998Y-81342000I249998J0D01*
G01*
X183119002Y-81342000D01*
G75*
G02*
X183369000Y-81591998I0J-249998D01*
G01*
X183369000Y-82492002D01*
G75*
G02*
X183119002Y-82742000I-249998J0D01*
G01*
X182593998Y-82742000D01*
G75*
G02*
X182344000Y-82492002I0J249998D01*
G01*
G37*
G36*
G01*
X141878000Y-84180000D02*
X141878000Y-84730000D01*
G75*
G02*
X141678000Y-84930000I-200000J0D01*
G01*
X141278000Y-84930000D01*
G75*
G02*
X141078000Y-84730000I0J200000D01*
G01*
X141078000Y-84180000D01*
G75*
G02*
X141278000Y-83980000I200000J0D01*
G01*
X141678000Y-83980000D01*
G75*
G02*
X141878000Y-84180000I0J-200000D01*
G01*
G37*
G36*
G01*
X140228000Y-84180000D02*
X140228000Y-84730000D01*
G75*
G02*
X140028000Y-84930000I-200000J0D01*
G01*
X139628000Y-84930000D01*
G75*
G02*
X139428000Y-84730000I0J200000D01*
G01*
X139428000Y-84180000D01*
G75*
G02*
X139628000Y-83980000I200000J0D01*
G01*
X140028000Y-83980000D01*
G75*
G02*
X140228000Y-84180000I0J-200000D01*
G01*
G37*
G36*
G01*
X176828000Y-87397000D02*
X176828000Y-86847000D01*
G75*
G02*
X177028000Y-86647000I200000J0D01*
G01*
X177428000Y-86647000D01*
G75*
G02*
X177628000Y-86847000I0J-200000D01*
G01*
X177628000Y-87397000D01*
G75*
G02*
X177428000Y-87597000I-200000J0D01*
G01*
X177028000Y-87597000D01*
G75*
G02*
X176828000Y-87397000I0J200000D01*
G01*
G37*
G36*
G01*
X175178000Y-87397000D02*
X175178000Y-86847000D01*
G75*
G02*
X175378000Y-86647000I200000J0D01*
G01*
X175778000Y-86647000D01*
G75*
G02*
X175978000Y-86847000I0J-200000D01*
G01*
X175978000Y-87397000D01*
G75*
G02*
X175778000Y-87597000I-200000J0D01*
G01*
X175378000Y-87597000D01*
G75*
G02*
X175178000Y-87397000I0J200000D01*
G01*
G37*
G36*
G01*
X166645000Y-99840000D02*
X166095000Y-99840000D01*
G75*
G02*
X165895000Y-99640000I0J200000D01*
G01*
X165895000Y-99240000D01*
G75*
G02*
X166095000Y-99040000I200000J0D01*
G01*
X166645000Y-99040000D01*
G75*
G02*
X166845000Y-99240000I0J-200000D01*
G01*
X166845000Y-99640000D01*
G75*
G02*
X166645000Y-99840000I-200000J0D01*
G01*
G37*
G36*
G01*
X166645000Y-98190000D02*
X166095000Y-98190000D01*
G75*
G02*
X165895000Y-97990000I0J200000D01*
G01*
X165895000Y-97590000D01*
G75*
G02*
X166095000Y-97390000I200000J0D01*
G01*
X166645000Y-97390000D01*
G75*
G02*
X166845000Y-97590000I0J-200000D01*
G01*
X166845000Y-97990000D01*
G75*
G02*
X166645000Y-98190000I-200000J0D01*
G01*
G37*
G36*
G01*
X166645000Y-94698000D02*
X166095000Y-94698000D01*
G75*
G02*
X165895000Y-94498000I0J200000D01*
G01*
X165895000Y-94098000D01*
G75*
G02*
X166095000Y-93898000I200000J0D01*
G01*
X166645000Y-93898000D01*
G75*
G02*
X166845000Y-94098000I0J-200000D01*
G01*
X166845000Y-94498000D01*
G75*
G02*
X166645000Y-94698000I-200000J0D01*
G01*
G37*
G36*
G01*
X166645000Y-96348000D02*
X166095000Y-96348000D01*
G75*
G02*
X165895000Y-96148000I0J200000D01*
G01*
X165895000Y-95748000D01*
G75*
G02*
X166095000Y-95548000I200000J0D01*
G01*
X166645000Y-95548000D01*
G75*
G02*
X166845000Y-95748000I0J-200000D01*
G01*
X166845000Y-96148000D01*
G75*
G02*
X166645000Y-96348000I-200000J0D01*
G01*
G37*
G36*
G01*
X166095000Y-101010000D02*
X166645000Y-101010000D01*
G75*
G02*
X166845000Y-101210000I0J-200000D01*
G01*
X166845000Y-101610000D01*
G75*
G02*
X166645000Y-101810000I-200000J0D01*
G01*
X166095000Y-101810000D01*
G75*
G02*
X165895000Y-101610000I0J200000D01*
G01*
X165895000Y-101210000D01*
G75*
G02*
X166095000Y-101010000I200000J0D01*
G01*
G37*
G36*
G01*
X166095000Y-102660000D02*
X166645000Y-102660000D01*
G75*
G02*
X166845000Y-102860000I0J-200000D01*
G01*
X166845000Y-103260000D01*
G75*
G02*
X166645000Y-103460000I-200000J0D01*
G01*
X166095000Y-103460000D01*
G75*
G02*
X165895000Y-103260000I0J200000D01*
G01*
X165895000Y-102860000D01*
G75*
G02*
X166095000Y-102660000I200000J0D01*
G01*
G37*
G36*
G01*
X166095000Y-105835000D02*
X166645000Y-105835000D01*
G75*
G02*
X166845000Y-106035000I0J-200000D01*
G01*
X166845000Y-106435000D01*
G75*
G02*
X166645000Y-106635000I-200000J0D01*
G01*
X166095000Y-106635000D01*
G75*
G02*
X165895000Y-106435000I0J200000D01*
G01*
X165895000Y-106035000D01*
G75*
G02*
X166095000Y-105835000I200000J0D01*
G01*
G37*
G36*
G01*
X166095000Y-104185000D02*
X166645000Y-104185000D01*
G75*
G02*
X166845000Y-104385000I0J-200000D01*
G01*
X166845000Y-104785000D01*
G75*
G02*
X166645000Y-104985000I-200000J0D01*
G01*
X166095000Y-104985000D01*
G75*
G02*
X165895000Y-104785000I0J200000D01*
G01*
X165895000Y-104385000D01*
G75*
G02*
X166095000Y-104185000I200000J0D01*
G01*
G37*
G36*
G01*
X194520000Y-107675000D02*
X194520000Y-108225000D01*
G75*
G02*
X194320000Y-108425000I-200000J0D01*
G01*
X193920000Y-108425000D01*
G75*
G02*
X193720000Y-108225000I0J200000D01*
G01*
X193720000Y-107675000D01*
G75*
G02*
X193920000Y-107475000I200000J0D01*
G01*
X194320000Y-107475000D01*
G75*
G02*
X194520000Y-107675000I0J-200000D01*
G01*
G37*
G36*
G01*
X196170000Y-107675000D02*
X196170000Y-108225000D01*
G75*
G02*
X195970000Y-108425000I-200000J0D01*
G01*
X195570000Y-108425000D01*
G75*
G02*
X195370000Y-108225000I0J200000D01*
G01*
X195370000Y-107675000D01*
G75*
G02*
X195570000Y-107475000I200000J0D01*
G01*
X195970000Y-107475000D01*
G75*
G02*
X196170000Y-107675000I0J-200000D01*
G01*
G37*
G36*
G01*
X116250000Y-103145000D02*
X116250000Y-102595000D01*
G75*
G02*
X116450000Y-102395000I200000J0D01*
G01*
X116850000Y-102395000D01*
G75*
G02*
X117050000Y-102595000I0J-200000D01*
G01*
X117050000Y-103145000D01*
G75*
G02*
X116850000Y-103345000I-200000J0D01*
G01*
X116450000Y-103345000D01*
G75*
G02*
X116250000Y-103145000I0J200000D01*
G01*
G37*
G36*
G01*
X117900000Y-103145000D02*
X117900000Y-102595000D01*
G75*
G02*
X118100000Y-102395000I200000J0D01*
G01*
X118500000Y-102395000D01*
G75*
G02*
X118700000Y-102595000I0J-200000D01*
G01*
X118700000Y-103145000D01*
G75*
G02*
X118500000Y-103345000I-200000J0D01*
G01*
X118100000Y-103345000D01*
G75*
G02*
X117900000Y-103145000I0J200000D01*
G01*
G37*
G36*
G01*
X135615000Y-96565000D02*
X136165000Y-96565000D01*
G75*
G02*
X136365000Y-96765000I0J-200000D01*
G01*
X136365000Y-97165000D01*
G75*
G02*
X136165000Y-97365000I-200000J0D01*
G01*
X135615000Y-97365000D01*
G75*
G02*
X135415000Y-97165000I0J200000D01*
G01*
X135415000Y-96765000D01*
G75*
G02*
X135615000Y-96565000I200000J0D01*
G01*
G37*
G36*
G01*
X135615000Y-98215000D02*
X136165000Y-98215000D01*
G75*
G02*
X136365000Y-98415000I0J-200000D01*
G01*
X136365000Y-98815000D01*
G75*
G02*
X136165000Y-99015000I-200000J0D01*
G01*
X135615000Y-99015000D01*
G75*
G02*
X135415000Y-98815000I0J200000D01*
G01*
X135415000Y-98415000D01*
G75*
G02*
X135615000Y-98215000I200000J0D01*
G01*
G37*
G36*
G01*
X135530000Y-106890000D02*
X134980000Y-106890000D01*
G75*
G02*
X134780000Y-106690000I0J200000D01*
G01*
X134780000Y-106290000D01*
G75*
G02*
X134980000Y-106090000I200000J0D01*
G01*
X135530000Y-106090000D01*
G75*
G02*
X135730000Y-106290000I0J-200000D01*
G01*
X135730000Y-106690000D01*
G75*
G02*
X135530000Y-106890000I-200000J0D01*
G01*
G37*
G36*
G01*
X135530000Y-108540000D02*
X134980000Y-108540000D01*
G75*
G02*
X134780000Y-108340000I0J200000D01*
G01*
X134780000Y-107940000D01*
G75*
G02*
X134980000Y-107740000I200000J0D01*
G01*
X135530000Y-107740000D01*
G75*
G02*
X135730000Y-107940000I0J-200000D01*
G01*
X135730000Y-108340000D01*
G75*
G02*
X135530000Y-108540000I-200000J0D01*
G01*
G37*
G36*
G01*
X135615000Y-93390000D02*
X136165000Y-93390000D01*
G75*
G02*
X136365000Y-93590000I0J-200000D01*
G01*
X136365000Y-93990000D01*
G75*
G02*
X136165000Y-94190000I-200000J0D01*
G01*
X135615000Y-94190000D01*
G75*
G02*
X135415000Y-93990000I0J200000D01*
G01*
X135415000Y-93590000D01*
G75*
G02*
X135615000Y-93390000I200000J0D01*
G01*
G37*
G36*
G01*
X135615000Y-95040000D02*
X136165000Y-95040000D01*
G75*
G02*
X136365000Y-95240000I0J-200000D01*
G01*
X136365000Y-95640000D01*
G75*
G02*
X136165000Y-95840000I-200000J0D01*
G01*
X135615000Y-95840000D01*
G75*
G02*
X135415000Y-95640000I0J200000D01*
G01*
X135415000Y-95240000D01*
G75*
G02*
X135615000Y-95040000I200000J0D01*
G01*
G37*
G36*
G01*
X124100000Y-103650000D02*
X123550000Y-103650000D01*
G75*
G02*
X123350000Y-103450000I0J200000D01*
G01*
X123350000Y-103050000D01*
G75*
G02*
X123550000Y-102850000I200000J0D01*
G01*
X124100000Y-102850000D01*
G75*
G02*
X124300000Y-103050000I0J-200000D01*
G01*
X124300000Y-103450000D01*
G75*
G02*
X124100000Y-103650000I-200000J0D01*
G01*
G37*
G36*
G01*
X124100000Y-102000000D02*
X123550000Y-102000000D01*
G75*
G02*
X123350000Y-101800000I0J200000D01*
G01*
X123350000Y-101400000D01*
G75*
G02*
X123550000Y-101200000I200000J0D01*
G01*
X124100000Y-101200000D01*
G75*
G02*
X124300000Y-101400000I0J-200000D01*
G01*
X124300000Y-101800000D01*
G75*
G02*
X124100000Y-102000000I-200000J0D01*
G01*
G37*
G36*
G01*
X135530000Y-113240000D02*
X134980000Y-113240000D01*
G75*
G02*
X134780000Y-113040000I0J200000D01*
G01*
X134780000Y-112640000D01*
G75*
G02*
X134980000Y-112440000I200000J0D01*
G01*
X135530000Y-112440000D01*
G75*
G02*
X135730000Y-112640000I0J-200000D01*
G01*
X135730000Y-113040000D01*
G75*
G02*
X135530000Y-113240000I-200000J0D01*
G01*
G37*
G36*
G01*
X135530000Y-114890000D02*
X134980000Y-114890000D01*
G75*
G02*
X134780000Y-114690000I0J200000D01*
G01*
X134780000Y-114290000D01*
G75*
G02*
X134980000Y-114090000I200000J0D01*
G01*
X135530000Y-114090000D01*
G75*
G02*
X135730000Y-114290000I0J-200000D01*
G01*
X135730000Y-114690000D01*
G75*
G02*
X135530000Y-114890000I-200000J0D01*
G01*
G37*
G36*
G01*
X135530000Y-110065000D02*
X134980000Y-110065000D01*
G75*
G02*
X134780000Y-109865000I0J200000D01*
G01*
X134780000Y-109465000D01*
G75*
G02*
X134980000Y-109265000I200000J0D01*
G01*
X135530000Y-109265000D01*
G75*
G02*
X135730000Y-109465000I0J-200000D01*
G01*
X135730000Y-109865000D01*
G75*
G02*
X135530000Y-110065000I-200000J0D01*
G01*
G37*
G36*
G01*
X135530000Y-111715000D02*
X134980000Y-111715000D01*
G75*
G02*
X134780000Y-111515000I0J200000D01*
G01*
X134780000Y-111115000D01*
G75*
G02*
X134980000Y-110915000I200000J0D01*
G01*
X135530000Y-110915000D01*
G75*
G02*
X135730000Y-111115000I0J-200000D01*
G01*
X135730000Y-111515000D01*
G75*
G02*
X135530000Y-111715000I-200000J0D01*
G01*
G37*
G36*
G01*
X178415000Y-97557000D02*
X178415000Y-97007000D01*
G75*
G02*
X178615000Y-96807000I200000J0D01*
G01*
X179015000Y-96807000D01*
G75*
G02*
X179215000Y-97007000I0J-200000D01*
G01*
X179215000Y-97557000D01*
G75*
G02*
X179015000Y-97757000I-200000J0D01*
G01*
X178615000Y-97757000D01*
G75*
G02*
X178415000Y-97557000I0J200000D01*
G01*
G37*
G36*
G01*
X176765000Y-97557000D02*
X176765000Y-97007000D01*
G75*
G02*
X176965000Y-96807000I200000J0D01*
G01*
X177365000Y-96807000D01*
G75*
G02*
X177565000Y-97007000I0J-200000D01*
G01*
X177565000Y-97557000D01*
G75*
G02*
X177365000Y-97757000I-200000J0D01*
G01*
X176965000Y-97757000D01*
G75*
G02*
X176765000Y-97557000I0J200000D01*
G01*
G37*
G36*
G01*
X177210000Y-101240000D02*
X177210000Y-100690000D01*
G75*
G02*
X177410000Y-100490000I200000J0D01*
G01*
X177810000Y-100490000D01*
G75*
G02*
X178010000Y-100690000I0J-200000D01*
G01*
X178010000Y-101240000D01*
G75*
G02*
X177810000Y-101440000I-200000J0D01*
G01*
X177410000Y-101440000D01*
G75*
G02*
X177210000Y-101240000I0J200000D01*
G01*
G37*
G36*
G01*
X178860000Y-101240000D02*
X178860000Y-100690000D01*
G75*
G02*
X179060000Y-100490000I200000J0D01*
G01*
X179460000Y-100490000D01*
G75*
G02*
X179660000Y-100690000I0J-200000D01*
G01*
X179660000Y-101240000D01*
G75*
G02*
X179460000Y-101440000I-200000J0D01*
G01*
X179060000Y-101440000D01*
G75*
G02*
X178860000Y-101240000I0J200000D01*
G01*
G37*
G36*
G01*
X178670000Y-104415000D02*
X178670000Y-103865000D01*
G75*
G02*
X178870000Y-103665000I200000J0D01*
G01*
X179270000Y-103665000D01*
G75*
G02*
X179470000Y-103865000I0J-200000D01*
G01*
X179470000Y-104415000D01*
G75*
G02*
X179270000Y-104615000I-200000J0D01*
G01*
X178870000Y-104615000D01*
G75*
G02*
X178670000Y-104415000I0J200000D01*
G01*
G37*
G36*
G01*
X177020000Y-104415000D02*
X177020000Y-103865000D01*
G75*
G02*
X177220000Y-103665000I200000J0D01*
G01*
X177620000Y-103665000D01*
G75*
G02*
X177820000Y-103865000I0J-200000D01*
G01*
X177820000Y-104415000D01*
G75*
G02*
X177620000Y-104615000I-200000J0D01*
G01*
X177220000Y-104615000D01*
G75*
G02*
X177020000Y-104415000I0J200000D01*
G01*
G37*
G36*
G01*
X177210000Y-108225000D02*
X177210000Y-107675000D01*
G75*
G02*
X177410000Y-107475000I200000J0D01*
G01*
X177810000Y-107475000D01*
G75*
G02*
X178010000Y-107675000I0J-200000D01*
G01*
X178010000Y-108225000D01*
G75*
G02*
X177810000Y-108425000I-200000J0D01*
G01*
X177410000Y-108425000D01*
G75*
G02*
X177210000Y-108225000I0J200000D01*
G01*
G37*
G36*
G01*
X178860000Y-108225000D02*
X178860000Y-107675000D01*
G75*
G02*
X179060000Y-107475000I200000J0D01*
G01*
X179460000Y-107475000D01*
G75*
G02*
X179660000Y-107675000I0J-200000D01*
G01*
X179660000Y-108225000D01*
G75*
G02*
X179460000Y-108425000I-200000J0D01*
G01*
X179060000Y-108425000D01*
G75*
G02*
X178860000Y-108225000I0J200000D01*
G01*
G37*
G36*
G01*
X138089000Y-94511000D02*
X138089000Y-94211000D01*
G75*
G02*
X138239000Y-94061000I150000J0D01*
G01*
X139989000Y-94061000D01*
G75*
G02*
X140139000Y-94211000I0J-150000D01*
G01*
X140139000Y-94511000D01*
G75*
G02*
X139989000Y-94661000I-150000J0D01*
G01*
X138239000Y-94661000D01*
G75*
G02*
X138089000Y-94511000I0J150000D01*
G01*
G37*
G36*
G01*
X138089000Y-95781000D02*
X138089000Y-95481000D01*
G75*
G02*
X138239000Y-95331000I150000J0D01*
G01*
X139989000Y-95331000D01*
G75*
G02*
X140139000Y-95481000I0J-150000D01*
G01*
X140139000Y-95781000D01*
G75*
G02*
X139989000Y-95931000I-150000J0D01*
G01*
X138239000Y-95931000D01*
G75*
G02*
X138089000Y-95781000I0J150000D01*
G01*
G37*
G36*
G01*
X138089000Y-97051000D02*
X138089000Y-96751000D01*
G75*
G02*
X138239000Y-96601000I150000J0D01*
G01*
X139989000Y-96601000D01*
G75*
G02*
X140139000Y-96751000I0J-150000D01*
G01*
X140139000Y-97051000D01*
G75*
G02*
X139989000Y-97201000I-150000J0D01*
G01*
X138239000Y-97201000D01*
G75*
G02*
X138089000Y-97051000I0J150000D01*
G01*
G37*
G36*
G01*
X138089000Y-98321000D02*
X138089000Y-98021000D01*
G75*
G02*
X138239000Y-97871000I150000J0D01*
G01*
X139989000Y-97871000D01*
G75*
G02*
X140139000Y-98021000I0J-150000D01*
G01*
X140139000Y-98321000D01*
G75*
G02*
X139989000Y-98471000I-150000J0D01*
G01*
X138239000Y-98471000D01*
G75*
G02*
X138089000Y-98321000I0J150000D01*
G01*
G37*
G36*
G01*
X138089000Y-99591000D02*
X138089000Y-99291000D01*
G75*
G02*
X138239000Y-99141000I150000J0D01*
G01*
X139989000Y-99141000D01*
G75*
G02*
X140139000Y-99291000I0J-150000D01*
G01*
X140139000Y-99591000D01*
G75*
G02*
X139989000Y-99741000I-150000J0D01*
G01*
X138239000Y-99741000D01*
G75*
G02*
X138089000Y-99591000I0J150000D01*
G01*
G37*
G36*
G01*
X138089000Y-100861000D02*
X138089000Y-100561000D01*
G75*
G02*
X138239000Y-100411000I150000J0D01*
G01*
X139989000Y-100411000D01*
G75*
G02*
X140139000Y-100561000I0J-150000D01*
G01*
X140139000Y-100861000D01*
G75*
G02*
X139989000Y-101011000I-150000J0D01*
G01*
X138239000Y-101011000D01*
G75*
G02*
X138089000Y-100861000I0J150000D01*
G01*
G37*
G36*
G01*
X138089000Y-102131000D02*
X138089000Y-101831000D01*
G75*
G02*
X138239000Y-101681000I150000J0D01*
G01*
X139989000Y-101681000D01*
G75*
G02*
X140139000Y-101831000I0J-150000D01*
G01*
X140139000Y-102131000D01*
G75*
G02*
X139989000Y-102281000I-150000J0D01*
G01*
X138239000Y-102281000D01*
G75*
G02*
X138089000Y-102131000I0J150000D01*
G01*
G37*
G36*
G01*
X138089000Y-103401000D02*
X138089000Y-103101000D01*
G75*
G02*
X138239000Y-102951000I150000J0D01*
G01*
X139989000Y-102951000D01*
G75*
G02*
X140139000Y-103101000I0J-150000D01*
G01*
X140139000Y-103401000D01*
G75*
G02*
X139989000Y-103551000I-150000J0D01*
G01*
X138239000Y-103551000D01*
G75*
G02*
X138089000Y-103401000I0J150000D01*
G01*
G37*
G36*
G01*
X138089000Y-104671000D02*
X138089000Y-104371000D01*
G75*
G02*
X138239000Y-104221000I150000J0D01*
G01*
X139989000Y-104221000D01*
G75*
G02*
X140139000Y-104371000I0J-150000D01*
G01*
X140139000Y-104671000D01*
G75*
G02*
X139989000Y-104821000I-150000J0D01*
G01*
X138239000Y-104821000D01*
G75*
G02*
X138089000Y-104671000I0J150000D01*
G01*
G37*
G36*
G01*
X138089000Y-105941000D02*
X138089000Y-105641000D01*
G75*
G02*
X138239000Y-105491000I150000J0D01*
G01*
X139989000Y-105491000D01*
G75*
G02*
X140139000Y-105641000I0J-150000D01*
G01*
X140139000Y-105941000D01*
G75*
G02*
X139989000Y-106091000I-150000J0D01*
G01*
X138239000Y-106091000D01*
G75*
G02*
X138089000Y-105941000I0J150000D01*
G01*
G37*
G36*
G01*
X138089000Y-107211000D02*
X138089000Y-106911000D01*
G75*
G02*
X138239000Y-106761000I150000J0D01*
G01*
X139989000Y-106761000D01*
G75*
G02*
X140139000Y-106911000I0J-150000D01*
G01*
X140139000Y-107211000D01*
G75*
G02*
X139989000Y-107361000I-150000J0D01*
G01*
X138239000Y-107361000D01*
G75*
G02*
X138089000Y-107211000I0J150000D01*
G01*
G37*
G36*
G01*
X138089000Y-108481000D02*
X138089000Y-108181000D01*
G75*
G02*
X138239000Y-108031000I150000J0D01*
G01*
X139989000Y-108031000D01*
G75*
G02*
X140139000Y-108181000I0J-150000D01*
G01*
X140139000Y-108481000D01*
G75*
G02*
X139989000Y-108631000I-150000J0D01*
G01*
X138239000Y-108631000D01*
G75*
G02*
X138089000Y-108481000I0J150000D01*
G01*
G37*
G36*
G01*
X138089000Y-109751000D02*
X138089000Y-109451000D01*
G75*
G02*
X138239000Y-109301000I150000J0D01*
G01*
X139989000Y-109301000D01*
G75*
G02*
X140139000Y-109451000I0J-150000D01*
G01*
X140139000Y-109751000D01*
G75*
G02*
X139989000Y-109901000I-150000J0D01*
G01*
X138239000Y-109901000D01*
G75*
G02*
X138089000Y-109751000I0J150000D01*
G01*
G37*
G36*
G01*
X138089000Y-111021000D02*
X138089000Y-110721000D01*
G75*
G02*
X138239000Y-110571000I150000J0D01*
G01*
X139989000Y-110571000D01*
G75*
G02*
X140139000Y-110721000I0J-150000D01*
G01*
X140139000Y-111021000D01*
G75*
G02*
X139989000Y-111171000I-150000J0D01*
G01*
X138239000Y-111171000D01*
G75*
G02*
X138089000Y-111021000I0J150000D01*
G01*
G37*
G36*
G01*
X147389000Y-111021000D02*
X147389000Y-110721000D01*
G75*
G02*
X147539000Y-110571000I150000J0D01*
G01*
X149289000Y-110571000D01*
G75*
G02*
X149439000Y-110721000I0J-150000D01*
G01*
X149439000Y-111021000D01*
G75*
G02*
X149289000Y-111171000I-150000J0D01*
G01*
X147539000Y-111171000D01*
G75*
G02*
X147389000Y-111021000I0J150000D01*
G01*
G37*
G36*
G01*
X147389000Y-109751000D02*
X147389000Y-109451000D01*
G75*
G02*
X147539000Y-109301000I150000J0D01*
G01*
X149289000Y-109301000D01*
G75*
G02*
X149439000Y-109451000I0J-150000D01*
G01*
X149439000Y-109751000D01*
G75*
G02*
X149289000Y-109901000I-150000J0D01*
G01*
X147539000Y-109901000D01*
G75*
G02*
X147389000Y-109751000I0J150000D01*
G01*
G37*
G36*
G01*
X147389000Y-108481000D02*
X147389000Y-108181000D01*
G75*
G02*
X147539000Y-108031000I150000J0D01*
G01*
X149289000Y-108031000D01*
G75*
G02*
X149439000Y-108181000I0J-150000D01*
G01*
X149439000Y-108481000D01*
G75*
G02*
X149289000Y-108631000I-150000J0D01*
G01*
X147539000Y-108631000D01*
G75*
G02*
X147389000Y-108481000I0J150000D01*
G01*
G37*
G36*
G01*
X147389000Y-107211000D02*
X147389000Y-106911000D01*
G75*
G02*
X147539000Y-106761000I150000J0D01*
G01*
X149289000Y-106761000D01*
G75*
G02*
X149439000Y-106911000I0J-150000D01*
G01*
X149439000Y-107211000D01*
G75*
G02*
X149289000Y-107361000I-150000J0D01*
G01*
X147539000Y-107361000D01*
G75*
G02*
X147389000Y-107211000I0J150000D01*
G01*
G37*
G36*
G01*
X147389000Y-105941000D02*
X147389000Y-105641000D01*
G75*
G02*
X147539000Y-105491000I150000J0D01*
G01*
X149289000Y-105491000D01*
G75*
G02*
X149439000Y-105641000I0J-150000D01*
G01*
X149439000Y-105941000D01*
G75*
G02*
X149289000Y-106091000I-150000J0D01*
G01*
X147539000Y-106091000D01*
G75*
G02*
X147389000Y-105941000I0J150000D01*
G01*
G37*
G36*
G01*
X147389000Y-104671000D02*
X147389000Y-104371000D01*
G75*
G02*
X147539000Y-104221000I150000J0D01*
G01*
X149289000Y-104221000D01*
G75*
G02*
X149439000Y-104371000I0J-150000D01*
G01*
X149439000Y-104671000D01*
G75*
G02*
X149289000Y-104821000I-150000J0D01*
G01*
X147539000Y-104821000D01*
G75*
G02*
X147389000Y-104671000I0J150000D01*
G01*
G37*
G36*
G01*
X147389000Y-103401000D02*
X147389000Y-103101000D01*
G75*
G02*
X147539000Y-102951000I150000J0D01*
G01*
X149289000Y-102951000D01*
G75*
G02*
X149439000Y-103101000I0J-150000D01*
G01*
X149439000Y-103401000D01*
G75*
G02*
X149289000Y-103551000I-150000J0D01*
G01*
X147539000Y-103551000D01*
G75*
G02*
X147389000Y-103401000I0J150000D01*
G01*
G37*
G36*
G01*
X147389000Y-102131000D02*
X147389000Y-101831000D01*
G75*
G02*
X147539000Y-101681000I150000J0D01*
G01*
X149289000Y-101681000D01*
G75*
G02*
X149439000Y-101831000I0J-150000D01*
G01*
X149439000Y-102131000D01*
G75*
G02*
X149289000Y-102281000I-150000J0D01*
G01*
X147539000Y-102281000D01*
G75*
G02*
X147389000Y-102131000I0J150000D01*
G01*
G37*
G36*
G01*
X147389000Y-100861000D02*
X147389000Y-100561000D01*
G75*
G02*
X147539000Y-100411000I150000J0D01*
G01*
X149289000Y-100411000D01*
G75*
G02*
X149439000Y-100561000I0J-150000D01*
G01*
X149439000Y-100861000D01*
G75*
G02*
X149289000Y-101011000I-150000J0D01*
G01*
X147539000Y-101011000D01*
G75*
G02*
X147389000Y-100861000I0J150000D01*
G01*
G37*
G36*
G01*
X147389000Y-99591000D02*
X147389000Y-99291000D01*
G75*
G02*
X147539000Y-99141000I150000J0D01*
G01*
X149289000Y-99141000D01*
G75*
G02*
X149439000Y-99291000I0J-150000D01*
G01*
X149439000Y-99591000D01*
G75*
G02*
X149289000Y-99741000I-150000J0D01*
G01*
X147539000Y-99741000D01*
G75*
G02*
X147389000Y-99591000I0J150000D01*
G01*
G37*
G36*
G01*
X147389000Y-98321000D02*
X147389000Y-98021000D01*
G75*
G02*
X147539000Y-97871000I150000J0D01*
G01*
X149289000Y-97871000D01*
G75*
G02*
X149439000Y-98021000I0J-150000D01*
G01*
X149439000Y-98321000D01*
G75*
G02*
X149289000Y-98471000I-150000J0D01*
G01*
X147539000Y-98471000D01*
G75*
G02*
X147389000Y-98321000I0J150000D01*
G01*
G37*
G36*
G01*
X147389000Y-97051000D02*
X147389000Y-96751000D01*
G75*
G02*
X147539000Y-96601000I150000J0D01*
G01*
X149289000Y-96601000D01*
G75*
G02*
X149439000Y-96751000I0J-150000D01*
G01*
X149439000Y-97051000D01*
G75*
G02*
X149289000Y-97201000I-150000J0D01*
G01*
X147539000Y-97201000D01*
G75*
G02*
X147389000Y-97051000I0J150000D01*
G01*
G37*
G36*
G01*
X147389000Y-95781000D02*
X147389000Y-95481000D01*
G75*
G02*
X147539000Y-95331000I150000J0D01*
G01*
X149289000Y-95331000D01*
G75*
G02*
X149439000Y-95481000I0J-150000D01*
G01*
X149439000Y-95781000D01*
G75*
G02*
X149289000Y-95931000I-150000J0D01*
G01*
X147539000Y-95931000D01*
G75*
G02*
X147389000Y-95781000I0J150000D01*
G01*
G37*
G36*
G01*
X147389000Y-94511000D02*
X147389000Y-94211000D01*
G75*
G02*
X147539000Y-94061000I150000J0D01*
G01*
X149289000Y-94061000D01*
G75*
G02*
X149439000Y-94211000I0J-150000D01*
G01*
X149439000Y-94511000D01*
G75*
G02*
X149289000Y-94661000I-150000J0D01*
G01*
X147539000Y-94661000D01*
G75*
G02*
X147389000Y-94511000I0J150000D01*
G01*
G37*
D25*
X174988002Y-96885999D03*
X174988002Y-97536000D03*
X174988002Y-98185999D03*
X172738001Y-98185999D03*
X172738001Y-97536000D03*
X172738001Y-96885999D03*
X172230001Y-103489999D03*
X172230001Y-104140000D03*
X172230001Y-104789999D03*
X174480002Y-104789999D03*
X174480002Y-104140000D03*
X174480002Y-103489999D03*
M02*
