G04 #@! TF.GenerationSoftware,KiCad,Pcbnew,(5.1.10)-1*
G04 #@! TF.CreationDate,2022-01-18T14:13:32-05:00*
G04 #@! TF.ProjectId,breakoutboard-2,62726561-6b6f-4757-9462-6f6172642d32,rev?*
G04 #@! TF.SameCoordinates,Original*
G04 #@! TF.FileFunction,Legend,Bot*
G04 #@! TF.FilePolarity,Positive*
%FSLAX46Y46*%
G04 Gerber Fmt 4.6, Leading zero omitted, Abs format (unit mm)*
G04 Created by KiCad (PCBNEW (5.1.10)-1) date 2022-01-18 14:13:32*
%MOMM*%
%LPD*%
G01*
G04 APERTURE LIST*
%ADD10C,0.120000*%
%ADD11C,0.127000*%
%ADD12C,0.150000*%
%ADD13C,0.060464*%
%ADD14R,1.350000X1.350000*%
%ADD15C,3.000000*%
%ADD16C,2.700000*%
%ADD17O,1.350000X1.350000*%
%ADD18C,2.800000*%
%ADD19R,2.800000X2.800000*%
G04 APERTURE END LIST*
D10*
X154205000Y-105363747D02*
X154205000Y-105886251D01*
X155675000Y-105363747D02*
X155675000Y-105886251D01*
X153135000Y-105671252D02*
X153135000Y-105148748D01*
X151665000Y-105671252D02*
X151665000Y-105148748D01*
X153135000Y-101226252D02*
X153135000Y-100703748D01*
X151665000Y-101226252D02*
X151665000Y-100703748D01*
X154205000Y-101226252D02*
X154205000Y-100703748D01*
X155675000Y-101226252D02*
X155675000Y-100703748D01*
D11*
X171295000Y-97290000D02*
X171295000Y-98290000D01*
X170335000Y-98290000D02*
X170335000Y-97290000D01*
D10*
X177723748Y-99970000D02*
X179146252Y-99970000D01*
X177723748Y-98150000D02*
X179146252Y-98150000D01*
X177723748Y-105135000D02*
X179146252Y-105135000D01*
X177723748Y-106955000D02*
X179146252Y-106955000D01*
D11*
X169700000Y-104640000D02*
X169700000Y-103640000D01*
X170660000Y-103640000D02*
X170660000Y-104640000D01*
D10*
X152922500Y-109617742D02*
X152922500Y-110092258D01*
X151877500Y-109617742D02*
X151877500Y-110092258D01*
D12*
X154667976Y-102387140D02*
X154715595Y-102434759D01*
X154858452Y-102482378D01*
X154953690Y-102482378D01*
X155096547Y-102434759D01*
X155191785Y-102339521D01*
X155239404Y-102244283D01*
X155287023Y-102053807D01*
X155287023Y-101910950D01*
X155239404Y-101720474D01*
X155191785Y-101625236D01*
X155096547Y-101529998D01*
X154953690Y-101482378D01*
X154858452Y-101482378D01*
X154715595Y-101529998D01*
X154667976Y-101577617D01*
X154287023Y-101577617D02*
X154239404Y-101529998D01*
X154144166Y-101482378D01*
X153906071Y-101482378D01*
X153810833Y-101529998D01*
X153763214Y-101577617D01*
X153715595Y-101672855D01*
X153715595Y-101768093D01*
X153763214Y-101910950D01*
X154334642Y-102482378D01*
X153715595Y-102482378D01*
X153382261Y-101482378D02*
X152715595Y-101482378D01*
X153144166Y-102482378D01*
X154244523Y-103538570D02*
X154244523Y-103659522D01*
X154305000Y-103780475D01*
X154365476Y-103840951D01*
X154486428Y-103901427D01*
X154728333Y-103961903D01*
X155030714Y-103961903D01*
X155272619Y-103901427D01*
X155393571Y-103840951D01*
X155454047Y-103780475D01*
X155514523Y-103659522D01*
X155514523Y-103538570D01*
X155454047Y-103417618D01*
X155393571Y-103357141D01*
X155272619Y-103296665D01*
X155030714Y-103236189D01*
X154728333Y-103236189D01*
X154486428Y-103296665D01*
X154365476Y-103357141D01*
X154305000Y-103417618D01*
X154244523Y-103538570D01*
X155393571Y-104506189D02*
X155454047Y-104566665D01*
X155514523Y-104506189D01*
X155454047Y-104445713D01*
X155393571Y-104506189D01*
X155514523Y-104506189D01*
X155514523Y-105776189D02*
X155514523Y-105050475D01*
X155514523Y-105413332D02*
X154244523Y-105413332D01*
X154425952Y-105292379D01*
X154546904Y-105171427D01*
X154607380Y-105050475D01*
X154667857Y-106864760D02*
X155514523Y-106864760D01*
X154667857Y-106320475D02*
X155333095Y-106320475D01*
X155454047Y-106380951D01*
X155514523Y-106501903D01*
X155514523Y-106683332D01*
X155454047Y-106804284D01*
X155393571Y-106864760D01*
X154849285Y-107892856D02*
X154849285Y-107469522D01*
X155514523Y-107469522D02*
X154244523Y-107469522D01*
X154244523Y-108074284D01*
X153042857Y-108307142D02*
X153090476Y-108354761D01*
X153233333Y-108402380D01*
X153328571Y-108402380D01*
X153471428Y-108354761D01*
X153566666Y-108259523D01*
X153614285Y-108164285D01*
X153661904Y-107973809D01*
X153661904Y-107830952D01*
X153614285Y-107640476D01*
X153566666Y-107545238D01*
X153471428Y-107450000D01*
X153328571Y-107402380D01*
X153233333Y-107402380D01*
X153090476Y-107450000D01*
X153042857Y-107497619D01*
X152709523Y-107402380D02*
X152090476Y-107402380D01*
X152423809Y-107783333D01*
X152280952Y-107783333D01*
X152185714Y-107830952D01*
X152138095Y-107878571D01*
X152090476Y-107973809D01*
X152090476Y-108211904D01*
X152138095Y-108307142D01*
X152185714Y-108354761D01*
X152280952Y-108402380D01*
X152566666Y-108402380D01*
X152661904Y-108354761D01*
X152709523Y-108307142D01*
X151614285Y-108402380D02*
X151423809Y-108402380D01*
X151328571Y-108354761D01*
X151280952Y-108307142D01*
X151185714Y-108164285D01*
X151138095Y-107973809D01*
X151138095Y-107592857D01*
X151185714Y-107497619D01*
X151233333Y-107450000D01*
X151328571Y-107402380D01*
X151519047Y-107402380D01*
X151614285Y-107450000D01*
X151661904Y-107497619D01*
X151709523Y-107592857D01*
X151709523Y-107830952D01*
X151661904Y-107926190D01*
X151614285Y-107973809D01*
X151519047Y-108021428D01*
X151328571Y-108021428D01*
X151233333Y-107973809D01*
X151185714Y-107926190D01*
X151138095Y-107830952D01*
X153042857Y-98782142D02*
X153090476Y-98829761D01*
X153233333Y-98877380D01*
X153328571Y-98877380D01*
X153471428Y-98829761D01*
X153566666Y-98734523D01*
X153614285Y-98639285D01*
X153661904Y-98448809D01*
X153661904Y-98305952D01*
X153614285Y-98115476D01*
X153566666Y-98020238D01*
X153471428Y-97925000D01*
X153328571Y-97877380D01*
X153233333Y-97877380D01*
X153090476Y-97925000D01*
X153042857Y-97972619D01*
X152709523Y-97877380D02*
X152090476Y-97877380D01*
X152423809Y-98258333D01*
X152280952Y-98258333D01*
X152185714Y-98305952D01*
X152138095Y-98353571D01*
X152090476Y-98448809D01*
X152090476Y-98686904D01*
X152138095Y-98782142D01*
X152185714Y-98829761D01*
X152280952Y-98877380D01*
X152566666Y-98877380D01*
X152661904Y-98829761D01*
X152709523Y-98782142D01*
X151757142Y-97877380D02*
X151138095Y-97877380D01*
X151471428Y-98258333D01*
X151328571Y-98258333D01*
X151233333Y-98305952D01*
X151185714Y-98353571D01*
X151138095Y-98448809D01*
X151138095Y-98686904D01*
X151185714Y-98782142D01*
X151233333Y-98829761D01*
X151328571Y-98877380D01*
X151614285Y-98877380D01*
X151709523Y-98829761D01*
X151757142Y-98782142D01*
X155582857Y-98782142D02*
X155630476Y-98829761D01*
X155773333Y-98877380D01*
X155868571Y-98877380D01*
X156011428Y-98829761D01*
X156106666Y-98734523D01*
X156154285Y-98639285D01*
X156201904Y-98448809D01*
X156201904Y-98305952D01*
X156154285Y-98115476D01*
X156106666Y-98020238D01*
X156011428Y-97925000D01*
X155868571Y-97877380D01*
X155773333Y-97877380D01*
X155630476Y-97925000D01*
X155582857Y-97972619D01*
X155201904Y-97972619D02*
X155154285Y-97925000D01*
X155059047Y-97877380D01*
X154820952Y-97877380D01*
X154725714Y-97925000D01*
X154678095Y-97972619D01*
X154630476Y-98067857D01*
X154630476Y-98163095D01*
X154678095Y-98305952D01*
X155249523Y-98877380D01*
X154630476Y-98877380D01*
X154059047Y-98305952D02*
X154154285Y-98258333D01*
X154201904Y-98210714D01*
X154249523Y-98115476D01*
X154249523Y-98067857D01*
X154201904Y-97972619D01*
X154154285Y-97925000D01*
X154059047Y-97877380D01*
X153868571Y-97877380D01*
X153773333Y-97925000D01*
X153725714Y-97972619D01*
X153678095Y-98067857D01*
X153678095Y-98115476D01*
X153725714Y-98210714D01*
X153773333Y-98258333D01*
X153868571Y-98305952D01*
X154059047Y-98305952D01*
X154154285Y-98353571D01*
X154201904Y-98401190D01*
X154249523Y-98496428D01*
X154249523Y-98686904D01*
X154201904Y-98782142D01*
X154154285Y-98829761D01*
X154059047Y-98877380D01*
X153868571Y-98877380D01*
X153773333Y-98829761D01*
X153725714Y-98782142D01*
X153678095Y-98686904D01*
X153678095Y-98496428D01*
X153725714Y-98401190D01*
X153773333Y-98353571D01*
X153868571Y-98305952D01*
D13*
X171659599Y-97672828D02*
X171671116Y-97661311D01*
X171682633Y-97626761D01*
X171682633Y-97603727D01*
X171671116Y-97569176D01*
X171648082Y-97546143D01*
X171625048Y-97534626D01*
X171578981Y-97523109D01*
X171544430Y-97523109D01*
X171498363Y-97534626D01*
X171475329Y-97546143D01*
X171452296Y-97569176D01*
X171440779Y-97603727D01*
X171440779Y-97626761D01*
X171452296Y-97661311D01*
X171463812Y-97672828D01*
X171544430Y-97811030D02*
X171532914Y-97787997D01*
X171521397Y-97776480D01*
X171498363Y-97764963D01*
X171486846Y-97764963D01*
X171463812Y-97776480D01*
X171452296Y-97787997D01*
X171440779Y-97811030D01*
X171440779Y-97857098D01*
X171452296Y-97880131D01*
X171463812Y-97891648D01*
X171486846Y-97903165D01*
X171498363Y-97903165D01*
X171521397Y-97891648D01*
X171532914Y-97880131D01*
X171544430Y-97857098D01*
X171544430Y-97811030D01*
X171555947Y-97787997D01*
X171567464Y-97776480D01*
X171590498Y-97764963D01*
X171636565Y-97764963D01*
X171659599Y-97776480D01*
X171671116Y-97787997D01*
X171682633Y-97811030D01*
X171682633Y-97857098D01*
X171671116Y-97880131D01*
X171659599Y-97891648D01*
X171636565Y-97903165D01*
X171590498Y-97903165D01*
X171567464Y-97891648D01*
X171555947Y-97880131D01*
X171544430Y-97857098D01*
X171682633Y-98018334D02*
X171682633Y-98064401D01*
X171671116Y-98087435D01*
X171659599Y-98098952D01*
X171625048Y-98121985D01*
X171578981Y-98133502D01*
X171486846Y-98133502D01*
X171463812Y-98121985D01*
X171452296Y-98110469D01*
X171440779Y-98087435D01*
X171440779Y-98041367D01*
X171452296Y-98018334D01*
X171463812Y-98006817D01*
X171486846Y-97995300D01*
X171544430Y-97995300D01*
X171567464Y-98006817D01*
X171578981Y-98018334D01*
X171590498Y-98041367D01*
X171590498Y-98087435D01*
X171578981Y-98110469D01*
X171567464Y-98121985D01*
X171544430Y-98133502D01*
D12*
X179077857Y-101267142D02*
X179125476Y-101314761D01*
X179268333Y-101362380D01*
X179363571Y-101362380D01*
X179506428Y-101314761D01*
X179601666Y-101219523D01*
X179649285Y-101124285D01*
X179696904Y-100933809D01*
X179696904Y-100790952D01*
X179649285Y-100600476D01*
X179601666Y-100505238D01*
X179506428Y-100410000D01*
X179363571Y-100362380D01*
X179268333Y-100362380D01*
X179125476Y-100410000D01*
X179077857Y-100457619D01*
X178601666Y-101362380D02*
X178411190Y-101362380D01*
X178315952Y-101314761D01*
X178268333Y-101267142D01*
X178173095Y-101124285D01*
X178125476Y-100933809D01*
X178125476Y-100552857D01*
X178173095Y-100457619D01*
X178220714Y-100410000D01*
X178315952Y-100362380D01*
X178506428Y-100362380D01*
X178601666Y-100410000D01*
X178649285Y-100457619D01*
X178696904Y-100552857D01*
X178696904Y-100790952D01*
X178649285Y-100886190D01*
X178601666Y-100933809D01*
X178506428Y-100981428D01*
X178315952Y-100981428D01*
X178220714Y-100933809D01*
X178173095Y-100886190D01*
X178125476Y-100790952D01*
X177173095Y-101362380D02*
X177744523Y-101362380D01*
X177458809Y-101362380D02*
X177458809Y-100362380D01*
X177554047Y-100505238D01*
X177649285Y-100600476D01*
X177744523Y-100648095D01*
X179077857Y-108252142D02*
X179125476Y-108299761D01*
X179268333Y-108347380D01*
X179363571Y-108347380D01*
X179506428Y-108299761D01*
X179601666Y-108204523D01*
X179649285Y-108109285D01*
X179696904Y-107918809D01*
X179696904Y-107775952D01*
X179649285Y-107585476D01*
X179601666Y-107490238D01*
X179506428Y-107395000D01*
X179363571Y-107347380D01*
X179268333Y-107347380D01*
X179125476Y-107395000D01*
X179077857Y-107442619D01*
X178601666Y-108347380D02*
X178411190Y-108347380D01*
X178315952Y-108299761D01*
X178268333Y-108252142D01*
X178173095Y-108109285D01*
X178125476Y-107918809D01*
X178125476Y-107537857D01*
X178173095Y-107442619D01*
X178220714Y-107395000D01*
X178315952Y-107347380D01*
X178506428Y-107347380D01*
X178601666Y-107395000D01*
X178649285Y-107442619D01*
X178696904Y-107537857D01*
X178696904Y-107775952D01*
X178649285Y-107871190D01*
X178601666Y-107918809D01*
X178506428Y-107966428D01*
X178315952Y-107966428D01*
X178220714Y-107918809D01*
X178173095Y-107871190D01*
X178125476Y-107775952D01*
X177744523Y-107442619D02*
X177696904Y-107395000D01*
X177601666Y-107347380D01*
X177363571Y-107347380D01*
X177268333Y-107395000D01*
X177220714Y-107442619D01*
X177173095Y-107537857D01*
X177173095Y-107633095D01*
X177220714Y-107775952D01*
X177792142Y-108347380D01*
X177173095Y-108347380D01*
D13*
X171024599Y-104022828D02*
X171036116Y-104011311D01*
X171047633Y-103976761D01*
X171047633Y-103953727D01*
X171036116Y-103919176D01*
X171013082Y-103896143D01*
X170990048Y-103884626D01*
X170943981Y-103873109D01*
X170909430Y-103873109D01*
X170863363Y-103884626D01*
X170840329Y-103896143D01*
X170817296Y-103919176D01*
X170805779Y-103953727D01*
X170805779Y-103976761D01*
X170817296Y-104011311D01*
X170828812Y-104022828D01*
X171047633Y-104137997D02*
X171047633Y-104184064D01*
X171036116Y-104207098D01*
X171024599Y-104218615D01*
X170990048Y-104241648D01*
X170943981Y-104253165D01*
X170851846Y-104253165D01*
X170828812Y-104241648D01*
X170817296Y-104230131D01*
X170805779Y-104207098D01*
X170805779Y-104161030D01*
X170817296Y-104137997D01*
X170828812Y-104126480D01*
X170851846Y-104114963D01*
X170909430Y-104114963D01*
X170932464Y-104126480D01*
X170943981Y-104137997D01*
X170955498Y-104161030D01*
X170955498Y-104207098D01*
X170943981Y-104230131D01*
X170932464Y-104241648D01*
X170909430Y-104253165D01*
X171047633Y-104368334D02*
X171047633Y-104414401D01*
X171036116Y-104437435D01*
X171024599Y-104448952D01*
X170990048Y-104471985D01*
X170943981Y-104483502D01*
X170851846Y-104483502D01*
X170828812Y-104471985D01*
X170817296Y-104460469D01*
X170805779Y-104437435D01*
X170805779Y-104391367D01*
X170817296Y-104368334D01*
X170828812Y-104356817D01*
X170851846Y-104345300D01*
X170909430Y-104345300D01*
X170932464Y-104356817D01*
X170943981Y-104368334D01*
X170955498Y-104391367D01*
X170955498Y-104437435D01*
X170943981Y-104460469D01*
X170932464Y-104471985D01*
X170909430Y-104483502D01*
D12*
X153042857Y-112212380D02*
X153376190Y-111736190D01*
X153614285Y-112212380D02*
X153614285Y-111212380D01*
X153233333Y-111212380D01*
X153138095Y-111260000D01*
X153090476Y-111307619D01*
X153042857Y-111402857D01*
X153042857Y-111545714D01*
X153090476Y-111640952D01*
X153138095Y-111688571D01*
X153233333Y-111736190D01*
X153614285Y-111736190D01*
X152185714Y-111545714D02*
X152185714Y-112212380D01*
X152423809Y-111164761D02*
X152661904Y-111879047D01*
X152042857Y-111879047D01*
X151233333Y-111545714D02*
X151233333Y-112212380D01*
X151471428Y-111164761D02*
X151709523Y-111879047D01*
X151090476Y-111879047D01*
%LPC*%
G36*
G01*
X154465000Y-106074999D02*
X155415000Y-106074999D01*
G75*
G02*
X155665000Y-106324999I0J-250000D01*
G01*
X155665000Y-106824999D01*
G75*
G02*
X155415000Y-107074999I-250000J0D01*
G01*
X154465000Y-107074999D01*
G75*
G02*
X154215000Y-106824999I0J250000D01*
G01*
X154215000Y-106324999D01*
G75*
G02*
X154465000Y-106074999I250000J0D01*
G01*
G37*
G36*
G01*
X154465000Y-104174999D02*
X155415000Y-104174999D01*
G75*
G02*
X155665000Y-104424999I0J-250000D01*
G01*
X155665000Y-104924999D01*
G75*
G02*
X155415000Y-105174999I-250000J0D01*
G01*
X154465000Y-105174999D01*
G75*
G02*
X154215000Y-104924999I0J250000D01*
G01*
X154215000Y-104424999D01*
G75*
G02*
X154465000Y-104174999I250000J0D01*
G01*
G37*
G36*
G01*
X152875000Y-104960000D02*
X151925000Y-104960000D01*
G75*
G02*
X151675000Y-104710000I0J250000D01*
G01*
X151675000Y-104210000D01*
G75*
G02*
X151925000Y-103960000I250000J0D01*
G01*
X152875000Y-103960000D01*
G75*
G02*
X153125000Y-104210000I0J-250000D01*
G01*
X153125000Y-104710000D01*
G75*
G02*
X152875000Y-104960000I-250000J0D01*
G01*
G37*
G36*
G01*
X152875000Y-106860000D02*
X151925000Y-106860000D01*
G75*
G02*
X151675000Y-106610000I0J250000D01*
G01*
X151675000Y-106110000D01*
G75*
G02*
X151925000Y-105860000I250000J0D01*
G01*
X152875000Y-105860000D01*
G75*
G02*
X153125000Y-106110000I0J-250000D01*
G01*
X153125000Y-106610000D01*
G75*
G02*
X152875000Y-106860000I-250000J0D01*
G01*
G37*
G36*
G01*
X152875000Y-100515000D02*
X151925000Y-100515000D01*
G75*
G02*
X151675000Y-100265000I0J250000D01*
G01*
X151675000Y-99765000D01*
G75*
G02*
X151925000Y-99515000I250000J0D01*
G01*
X152875000Y-99515000D01*
G75*
G02*
X153125000Y-99765000I0J-250000D01*
G01*
X153125000Y-100265000D01*
G75*
G02*
X152875000Y-100515000I-250000J0D01*
G01*
G37*
G36*
G01*
X152875000Y-102415000D02*
X151925000Y-102415000D01*
G75*
G02*
X151675000Y-102165000I0J250000D01*
G01*
X151675000Y-101665000D01*
G75*
G02*
X151925000Y-101415000I250000J0D01*
G01*
X152875000Y-101415000D01*
G75*
G02*
X153125000Y-101665000I0J-250000D01*
G01*
X153125000Y-102165000D01*
G75*
G02*
X152875000Y-102415000I-250000J0D01*
G01*
G37*
G36*
G01*
X155415000Y-102415000D02*
X154465000Y-102415000D01*
G75*
G02*
X154215000Y-102165000I0J250000D01*
G01*
X154215000Y-101665000D01*
G75*
G02*
X154465000Y-101415000I250000J0D01*
G01*
X155415000Y-101415000D01*
G75*
G02*
X155665000Y-101665000I0J-250000D01*
G01*
X155665000Y-102165000D01*
G75*
G02*
X155415000Y-102415000I-250000J0D01*
G01*
G37*
G36*
G01*
X155415000Y-100515000D02*
X154465000Y-100515000D01*
G75*
G02*
X154215000Y-100265000I0J250000D01*
G01*
X154215000Y-99765000D01*
G75*
G02*
X154465000Y-99515000I250000J0D01*
G01*
X155415000Y-99515000D01*
G75*
G02*
X155665000Y-99765000I0J-250000D01*
G01*
X155665000Y-100265000D01*
G75*
G02*
X155415000Y-100515000I-250000J0D01*
G01*
G37*
D14*
X139700000Y-118110000D03*
G36*
G01*
X171039400Y-97630000D02*
X170590600Y-97630000D01*
G75*
G02*
X170515000Y-97554400I0J75600D01*
G01*
X170515000Y-97165600D01*
G75*
G02*
X170590600Y-97090000I75600J0D01*
G01*
X171039400Y-97090000D01*
G75*
G02*
X171115000Y-97165600I0J-75600D01*
G01*
X171115000Y-97554400D01*
G75*
G02*
X171039400Y-97630000I-75600J0D01*
G01*
G37*
G36*
G01*
X171039400Y-98490000D02*
X170590600Y-98490000D01*
G75*
G02*
X170515000Y-98414400I0J75600D01*
G01*
X170515000Y-98025600D01*
G75*
G02*
X170590600Y-97950000I75600J0D01*
G01*
X171039400Y-97950000D01*
G75*
G02*
X171115000Y-98025600I0J-75600D01*
G01*
X171115000Y-98414400D01*
G75*
G02*
X171039400Y-98490000I-75600J0D01*
G01*
G37*
G36*
G01*
X179335000Y-99710001D02*
X179335000Y-98409999D01*
G75*
G02*
X179584999Y-98160000I249999J0D01*
G01*
X180235001Y-98160000D01*
G75*
G02*
X180485000Y-98409999I0J-249999D01*
G01*
X180485000Y-99710001D01*
G75*
G02*
X180235001Y-99960000I-249999J0D01*
G01*
X179584999Y-99960000D01*
G75*
G02*
X179335000Y-99710001I0J249999D01*
G01*
G37*
G36*
G01*
X176385000Y-99710001D02*
X176385000Y-98409999D01*
G75*
G02*
X176634999Y-98160000I249999J0D01*
G01*
X177285001Y-98160000D01*
G75*
G02*
X177535000Y-98409999I0J-249999D01*
G01*
X177535000Y-99710001D01*
G75*
G02*
X177285001Y-99960000I-249999J0D01*
G01*
X176634999Y-99960000D01*
G75*
G02*
X176385000Y-99710001I0J249999D01*
G01*
G37*
G36*
G01*
X176385000Y-106695001D02*
X176385000Y-105394999D01*
G75*
G02*
X176634999Y-105145000I249999J0D01*
G01*
X177285001Y-105145000D01*
G75*
G02*
X177535000Y-105394999I0J-249999D01*
G01*
X177535000Y-106695001D01*
G75*
G02*
X177285001Y-106945000I-249999J0D01*
G01*
X176634999Y-106945000D01*
G75*
G02*
X176385000Y-106695001I0J249999D01*
G01*
G37*
G36*
G01*
X179335000Y-106695001D02*
X179335000Y-105394999D01*
G75*
G02*
X179584999Y-105145000I249999J0D01*
G01*
X180235001Y-105145000D01*
G75*
G02*
X180485000Y-105394999I0J-249999D01*
G01*
X180485000Y-106695001D01*
G75*
G02*
X180235001Y-106945000I-249999J0D01*
G01*
X179584999Y-106945000D01*
G75*
G02*
X179335000Y-106695001I0J249999D01*
G01*
G37*
G36*
G01*
X170404400Y-104840000D02*
X169955600Y-104840000D01*
G75*
G02*
X169880000Y-104764400I0J75600D01*
G01*
X169880000Y-104375600D01*
G75*
G02*
X169955600Y-104300000I75600J0D01*
G01*
X170404400Y-104300000D01*
G75*
G02*
X170480000Y-104375600I0J-75600D01*
G01*
X170480000Y-104764400D01*
G75*
G02*
X170404400Y-104840000I-75600J0D01*
G01*
G37*
G36*
G01*
X170404400Y-103980000D02*
X169955600Y-103980000D01*
G75*
G02*
X169880000Y-103904400I0J75600D01*
G01*
X169880000Y-103515600D01*
G75*
G02*
X169955600Y-103440000I75600J0D01*
G01*
X170404400Y-103440000D01*
G75*
G02*
X170480000Y-103515600I0J-75600D01*
G01*
X170480000Y-103904400D01*
G75*
G02*
X170404400Y-103980000I-75600J0D01*
G01*
G37*
D15*
X104140000Y-65405000D03*
X104140000Y-87905000D03*
D16*
X104140000Y-76655000D03*
X213995000Y-81100000D03*
D15*
X213995000Y-92350000D03*
X213995000Y-69850000D03*
D14*
X103505000Y-59690000D03*
X160655000Y-52070000D03*
D17*
X158655000Y-52070000D03*
X187325000Y-101155000D03*
X187325000Y-99155000D03*
D14*
X187325000Y-97155000D03*
X172085000Y-118745000D03*
D17*
X174085000Y-118745000D03*
X176085000Y-118745000D03*
X104045000Y-113665000D03*
D14*
X106045000Y-113665000D03*
D18*
X104775000Y-94060000D03*
D19*
X104775000Y-99060000D03*
X214630000Y-103505000D03*
D18*
X214630000Y-98505000D03*
D14*
X214630000Y-110490000D03*
D17*
X214630000Y-112490000D03*
D14*
X213360000Y-63500000D03*
X160655000Y-118110000D03*
X118745000Y-118110000D03*
D17*
X120745000Y-118110000D03*
X122745000Y-118110000D03*
X124745000Y-118110000D03*
X126745000Y-118110000D03*
G36*
G01*
X152125000Y-108630000D02*
X152675000Y-108630000D01*
G75*
G02*
X152875000Y-108830000I0J-200000D01*
G01*
X152875000Y-109230000D01*
G75*
G02*
X152675000Y-109430000I-200000J0D01*
G01*
X152125000Y-109430000D01*
G75*
G02*
X151925000Y-109230000I0J200000D01*
G01*
X151925000Y-108830000D01*
G75*
G02*
X152125000Y-108630000I200000J0D01*
G01*
G37*
G36*
G01*
X152125000Y-110280000D02*
X152675000Y-110280000D01*
G75*
G02*
X152875000Y-110480000I0J-200000D01*
G01*
X152875000Y-110880000D01*
G75*
G02*
X152675000Y-111080000I-200000J0D01*
G01*
X152125000Y-111080000D01*
G75*
G02*
X151925000Y-110880000I0J200000D01*
G01*
X151925000Y-110480000D01*
G75*
G02*
X152125000Y-110280000I200000J0D01*
G01*
G37*
M02*
