G04 #@! TF.GenerationSoftware,KiCad,Pcbnew,(5.1.10)-1*
G04 #@! TF.CreationDate,2022-01-18T14:13:32-05:00*
G04 #@! TF.ProjectId,breakoutboard-2,62726561-6b6f-4757-9462-6f6172642d32,rev?*
G04 #@! TF.SameCoordinates,Original*
G04 #@! TF.FileFunction,Copper,L2,Bot*
G04 #@! TF.FilePolarity,Positive*
%FSLAX46Y46*%
G04 Gerber Fmt 4.6, Leading zero omitted, Abs format (unit mm)*
G04 Created by KiCad (PCBNEW (5.1.10)-1) date 2022-01-18 14:13:32*
%MOMM*%
%LPD*%
G01*
G04 APERTURE LIST*
G04 #@! TA.AperFunction,ComponentPad*
%ADD10R,1.350000X1.350000*%
G04 #@! TD*
G04 #@! TA.AperFunction,ComponentPad*
%ADD11C,3.000000*%
G04 #@! TD*
G04 #@! TA.AperFunction,ComponentPad*
%ADD12O,1.350000X1.350000*%
G04 #@! TD*
G04 #@! TA.AperFunction,ComponentPad*
%ADD13C,2.800000*%
G04 #@! TD*
G04 #@! TA.AperFunction,ComponentPad*
%ADD14R,2.800000X2.800000*%
G04 #@! TD*
G04 #@! TA.AperFunction,ViaPad*
%ADD15C,0.800000*%
G04 #@! TD*
G04 #@! TA.AperFunction,Conductor*
%ADD16C,0.500000*%
G04 #@! TD*
G04 #@! TA.AperFunction,Conductor*
%ADD17C,0.250000*%
G04 #@! TD*
G04 #@! TA.AperFunction,Conductor*
%ADD18C,3.000000*%
G04 #@! TD*
G04 #@! TA.AperFunction,Conductor*
%ADD19C,3.600000*%
G04 #@! TD*
G04 #@! TA.AperFunction,Conductor*
%ADD20C,0.254000*%
G04 #@! TD*
G04 #@! TA.AperFunction,Conductor*
%ADD21C,0.100000*%
G04 #@! TD*
G04 APERTURE END LIST*
G04 #@! TA.AperFunction,SMDPad,CuDef*
G36*
G01*
X154465000Y-106074999D02*
X155415000Y-106074999D01*
G75*
G02*
X155665000Y-106324999I0J-250000D01*
G01*
X155665000Y-106824999D01*
G75*
G02*
X155415000Y-107074999I-250000J0D01*
G01*
X154465000Y-107074999D01*
G75*
G02*
X154215000Y-106824999I0J250000D01*
G01*
X154215000Y-106324999D01*
G75*
G02*
X154465000Y-106074999I250000J0D01*
G01*
G37*
G04 #@! TD.AperFunction*
G04 #@! TA.AperFunction,SMDPad,CuDef*
G36*
G01*
X154465000Y-104174999D02*
X155415000Y-104174999D01*
G75*
G02*
X155665000Y-104424999I0J-250000D01*
G01*
X155665000Y-104924999D01*
G75*
G02*
X155415000Y-105174999I-250000J0D01*
G01*
X154465000Y-105174999D01*
G75*
G02*
X154215000Y-104924999I0J250000D01*
G01*
X154215000Y-104424999D01*
G75*
G02*
X154465000Y-104174999I250000J0D01*
G01*
G37*
G04 #@! TD.AperFunction*
G04 #@! TA.AperFunction,SMDPad,CuDef*
G36*
G01*
X152875000Y-104960000D02*
X151925000Y-104960000D01*
G75*
G02*
X151675000Y-104710000I0J250000D01*
G01*
X151675000Y-104210000D01*
G75*
G02*
X151925000Y-103960000I250000J0D01*
G01*
X152875000Y-103960000D01*
G75*
G02*
X153125000Y-104210000I0J-250000D01*
G01*
X153125000Y-104710000D01*
G75*
G02*
X152875000Y-104960000I-250000J0D01*
G01*
G37*
G04 #@! TD.AperFunction*
G04 #@! TA.AperFunction,SMDPad,CuDef*
G36*
G01*
X152875000Y-106860000D02*
X151925000Y-106860000D01*
G75*
G02*
X151675000Y-106610000I0J250000D01*
G01*
X151675000Y-106110000D01*
G75*
G02*
X151925000Y-105860000I250000J0D01*
G01*
X152875000Y-105860000D01*
G75*
G02*
X153125000Y-106110000I0J-250000D01*
G01*
X153125000Y-106610000D01*
G75*
G02*
X152875000Y-106860000I-250000J0D01*
G01*
G37*
G04 #@! TD.AperFunction*
G04 #@! TA.AperFunction,SMDPad,CuDef*
G36*
G01*
X152875000Y-100515000D02*
X151925000Y-100515000D01*
G75*
G02*
X151675000Y-100265000I0J250000D01*
G01*
X151675000Y-99765000D01*
G75*
G02*
X151925000Y-99515000I250000J0D01*
G01*
X152875000Y-99515000D01*
G75*
G02*
X153125000Y-99765000I0J-250000D01*
G01*
X153125000Y-100265000D01*
G75*
G02*
X152875000Y-100515000I-250000J0D01*
G01*
G37*
G04 #@! TD.AperFunction*
G04 #@! TA.AperFunction,SMDPad,CuDef*
G36*
G01*
X152875000Y-102415000D02*
X151925000Y-102415000D01*
G75*
G02*
X151675000Y-102165000I0J250000D01*
G01*
X151675000Y-101665000D01*
G75*
G02*
X151925000Y-101415000I250000J0D01*
G01*
X152875000Y-101415000D01*
G75*
G02*
X153125000Y-101665000I0J-250000D01*
G01*
X153125000Y-102165000D01*
G75*
G02*
X152875000Y-102415000I-250000J0D01*
G01*
G37*
G04 #@! TD.AperFunction*
G04 #@! TA.AperFunction,SMDPad,CuDef*
G36*
G01*
X155415000Y-102415000D02*
X154465000Y-102415000D01*
G75*
G02*
X154215000Y-102165000I0J250000D01*
G01*
X154215000Y-101665000D01*
G75*
G02*
X154465000Y-101415000I250000J0D01*
G01*
X155415000Y-101415000D01*
G75*
G02*
X155665000Y-101665000I0J-250000D01*
G01*
X155665000Y-102165000D01*
G75*
G02*
X155415000Y-102415000I-250000J0D01*
G01*
G37*
G04 #@! TD.AperFunction*
G04 #@! TA.AperFunction,SMDPad,CuDef*
G36*
G01*
X155415000Y-100515000D02*
X154465000Y-100515000D01*
G75*
G02*
X154215000Y-100265000I0J250000D01*
G01*
X154215000Y-99765000D01*
G75*
G02*
X154465000Y-99515000I250000J0D01*
G01*
X155415000Y-99515000D01*
G75*
G02*
X155665000Y-99765000I0J-250000D01*
G01*
X155665000Y-100265000D01*
G75*
G02*
X155415000Y-100515000I-250000J0D01*
G01*
G37*
G04 #@! TD.AperFunction*
D10*
X139700000Y-118110000D03*
G04 #@! TA.AperFunction,SMDPad,CuDef*
G36*
G01*
X171039400Y-97630000D02*
X170590600Y-97630000D01*
G75*
G02*
X170515000Y-97554400I0J75600D01*
G01*
X170515000Y-97165600D01*
G75*
G02*
X170590600Y-97090000I75600J0D01*
G01*
X171039400Y-97090000D01*
G75*
G02*
X171115000Y-97165600I0J-75600D01*
G01*
X171115000Y-97554400D01*
G75*
G02*
X171039400Y-97630000I-75600J0D01*
G01*
G37*
G04 #@! TD.AperFunction*
G04 #@! TA.AperFunction,SMDPad,CuDef*
G36*
G01*
X171039400Y-98490000D02*
X170590600Y-98490000D01*
G75*
G02*
X170515000Y-98414400I0J75600D01*
G01*
X170515000Y-98025600D01*
G75*
G02*
X170590600Y-97950000I75600J0D01*
G01*
X171039400Y-97950000D01*
G75*
G02*
X171115000Y-98025600I0J-75600D01*
G01*
X171115000Y-98414400D01*
G75*
G02*
X171039400Y-98490000I-75600J0D01*
G01*
G37*
G04 #@! TD.AperFunction*
G04 #@! TA.AperFunction,SMDPad,CuDef*
G36*
G01*
X179335000Y-99710001D02*
X179335000Y-98409999D01*
G75*
G02*
X179584999Y-98160000I249999J0D01*
G01*
X180235001Y-98160000D01*
G75*
G02*
X180485000Y-98409999I0J-249999D01*
G01*
X180485000Y-99710001D01*
G75*
G02*
X180235001Y-99960000I-249999J0D01*
G01*
X179584999Y-99960000D01*
G75*
G02*
X179335000Y-99710001I0J249999D01*
G01*
G37*
G04 #@! TD.AperFunction*
G04 #@! TA.AperFunction,SMDPad,CuDef*
G36*
G01*
X176385000Y-99710001D02*
X176385000Y-98409999D01*
G75*
G02*
X176634999Y-98160000I249999J0D01*
G01*
X177285001Y-98160000D01*
G75*
G02*
X177535000Y-98409999I0J-249999D01*
G01*
X177535000Y-99710001D01*
G75*
G02*
X177285001Y-99960000I-249999J0D01*
G01*
X176634999Y-99960000D01*
G75*
G02*
X176385000Y-99710001I0J249999D01*
G01*
G37*
G04 #@! TD.AperFunction*
G04 #@! TA.AperFunction,SMDPad,CuDef*
G36*
G01*
X176385000Y-106695001D02*
X176385000Y-105394999D01*
G75*
G02*
X176634999Y-105145000I249999J0D01*
G01*
X177285001Y-105145000D01*
G75*
G02*
X177535000Y-105394999I0J-249999D01*
G01*
X177535000Y-106695001D01*
G75*
G02*
X177285001Y-106945000I-249999J0D01*
G01*
X176634999Y-106945000D01*
G75*
G02*
X176385000Y-106695001I0J249999D01*
G01*
G37*
G04 #@! TD.AperFunction*
G04 #@! TA.AperFunction,SMDPad,CuDef*
G36*
G01*
X179335000Y-106695001D02*
X179335000Y-105394999D01*
G75*
G02*
X179584999Y-105145000I249999J0D01*
G01*
X180235001Y-105145000D01*
G75*
G02*
X180485000Y-105394999I0J-249999D01*
G01*
X180485000Y-106695001D01*
G75*
G02*
X180235001Y-106945000I-249999J0D01*
G01*
X179584999Y-106945000D01*
G75*
G02*
X179335000Y-106695001I0J249999D01*
G01*
G37*
G04 #@! TD.AperFunction*
G04 #@! TA.AperFunction,SMDPad,CuDef*
G36*
G01*
X170404400Y-104840000D02*
X169955600Y-104840000D01*
G75*
G02*
X169880000Y-104764400I0J75600D01*
G01*
X169880000Y-104375600D01*
G75*
G02*
X169955600Y-104300000I75600J0D01*
G01*
X170404400Y-104300000D01*
G75*
G02*
X170480000Y-104375600I0J-75600D01*
G01*
X170480000Y-104764400D01*
G75*
G02*
X170404400Y-104840000I-75600J0D01*
G01*
G37*
G04 #@! TD.AperFunction*
G04 #@! TA.AperFunction,SMDPad,CuDef*
G36*
G01*
X170404400Y-103980000D02*
X169955600Y-103980000D01*
G75*
G02*
X169880000Y-103904400I0J75600D01*
G01*
X169880000Y-103515600D01*
G75*
G02*
X169955600Y-103440000I75600J0D01*
G01*
X170404400Y-103440000D01*
G75*
G02*
X170480000Y-103515600I0J-75600D01*
G01*
X170480000Y-103904400D01*
G75*
G02*
X170404400Y-103980000I-75600J0D01*
G01*
G37*
G04 #@! TD.AperFunction*
D11*
X104140000Y-65405000D03*
X104140000Y-87905000D03*
X213995000Y-92350000D03*
X213995000Y-69850000D03*
D10*
X103505000Y-59690000D03*
X160655000Y-52070000D03*
D12*
X158655000Y-52070000D03*
X187325000Y-101155000D03*
X187325000Y-99155000D03*
D10*
X187325000Y-97155000D03*
X172085000Y-118745000D03*
D12*
X174085000Y-118745000D03*
X176085000Y-118745000D03*
X104045000Y-113665000D03*
D10*
X106045000Y-113665000D03*
D13*
X104775000Y-94060000D03*
D14*
X104775000Y-99060000D03*
X214630000Y-103505000D03*
D13*
X214630000Y-98505000D03*
D10*
X214630000Y-110490000D03*
D12*
X214630000Y-112490000D03*
D10*
X213360000Y-63500000D03*
X160655000Y-118110000D03*
X118745000Y-118110000D03*
D12*
X120745000Y-118110000D03*
X122745000Y-118110000D03*
X124745000Y-118110000D03*
X126745000Y-118110000D03*
G04 #@! TA.AperFunction,SMDPad,CuDef*
G36*
G01*
X152125000Y-108630000D02*
X152675000Y-108630000D01*
G75*
G02*
X152875000Y-108830000I0J-200000D01*
G01*
X152875000Y-109230000D01*
G75*
G02*
X152675000Y-109430000I-200000J0D01*
G01*
X152125000Y-109430000D01*
G75*
G02*
X151925000Y-109230000I0J200000D01*
G01*
X151925000Y-108830000D01*
G75*
G02*
X152125000Y-108630000I200000J0D01*
G01*
G37*
G04 #@! TD.AperFunction*
G04 #@! TA.AperFunction,SMDPad,CuDef*
G36*
G01*
X152125000Y-110280000D02*
X152675000Y-110280000D01*
G75*
G02*
X152875000Y-110480000I0J-200000D01*
G01*
X152875000Y-110880000D01*
G75*
G02*
X152675000Y-111080000I-200000J0D01*
G01*
X152125000Y-111080000D01*
G75*
G02*
X151925000Y-110880000I0J200000D01*
G01*
X151925000Y-110480000D01*
G75*
G02*
X152125000Y-110280000I200000J0D01*
G01*
G37*
G04 #@! TD.AperFunction*
D15*
X110490000Y-53340000D03*
X132715000Y-70485000D03*
X133985000Y-78105000D03*
X158596255Y-107874999D03*
X158750000Y-105410000D03*
X171204999Y-103785000D03*
X171738722Y-97263001D03*
X155130010Y-88265000D03*
X162015000Y-88265000D03*
X200660000Y-59690000D03*
X201930000Y-61240000D03*
X133985000Y-97790000D03*
X133350000Y-94615000D03*
X160655000Y-106680000D03*
X168275000Y-105410000D03*
X171425639Y-104804851D03*
X168275000Y-95250000D03*
X172085000Y-99060000D03*
X151130000Y-107950000D03*
X150495000Y-102870000D03*
X152400000Y-98425000D03*
X157480000Y-103505000D03*
X150495000Y-104775000D03*
X161290000Y-96520000D03*
X150228475Y-107517268D03*
X140970000Y-61595000D03*
X144780000Y-53340000D03*
X173355000Y-53340000D03*
X174625000Y-62230000D03*
X178435000Y-98425000D03*
X175260000Y-99060000D03*
X176530000Y-100330000D03*
X175260000Y-105410000D03*
X175895000Y-107950000D03*
X181610000Y-104140000D03*
X188595000Y-67310000D03*
X186690000Y-74295000D03*
X185532561Y-67197439D03*
X180340000Y-72390000D03*
X180340000Y-86814001D03*
X178435000Y-88900000D03*
X150495000Y-110490000D03*
D16*
X132715000Y-76835000D02*
X133985000Y-78105000D01*
X132715000Y-70485000D02*
X132715000Y-76835000D01*
D17*
X157441254Y-109030000D02*
X158596255Y-107874999D01*
X152400000Y-109030000D02*
X157441254Y-109030000D01*
X171129999Y-103710000D02*
X171204999Y-103785000D01*
X170180000Y-103710000D02*
X171129999Y-103710000D01*
X170911999Y-97263001D02*
X170815000Y-97360000D01*
X171738722Y-97263001D02*
X170911999Y-97263001D01*
D16*
X155130010Y-88265000D02*
X155765010Y-87630000D01*
X161380000Y-87630000D02*
X162015000Y-88265000D01*
X155765010Y-87630000D02*
X161380000Y-87630000D01*
X200660000Y-59970000D02*
X201930000Y-61240000D01*
X200660000Y-59690000D02*
X200660000Y-59970000D01*
D17*
X133350000Y-97155000D02*
X133350000Y-94615000D01*
X133985000Y-97790000D02*
X133350000Y-97155000D01*
X158115000Y-104775000D02*
X158750000Y-105410000D01*
X154940000Y-104775000D02*
X158115000Y-104775000D01*
X169340000Y-105410000D02*
X170180000Y-104570000D01*
X168275000Y-105410000D02*
X169340000Y-105410000D01*
X170414851Y-104804851D02*
X170180000Y-104570000D01*
X171425639Y-104804851D02*
X170414851Y-104804851D01*
X169880000Y-104570000D02*
X169545000Y-104235000D01*
X170180000Y-104570000D02*
X169880000Y-104570000D01*
X169545000Y-99490000D02*
X170815000Y-98220000D01*
X169545000Y-104235000D02*
X169545000Y-99490000D01*
X170815000Y-98220000D02*
X170610000Y-98220000D01*
X168275000Y-95885000D02*
X168275000Y-95250000D01*
X170610000Y-98220000D02*
X168275000Y-95885000D01*
X171655000Y-99060000D02*
X170815000Y-98220000D01*
X172085000Y-99060000D02*
X171655000Y-99060000D01*
X153564999Y-107950000D02*
X154940000Y-106574999D01*
X151130000Y-107950000D02*
X153564999Y-107950000D01*
X154940000Y-106574999D02*
X155680001Y-107315000D01*
X158718252Y-106680000D02*
X160655000Y-106680000D01*
X158083252Y-107315000D02*
X158718252Y-106680000D01*
X155680001Y-107315000D02*
X158083252Y-107315000D01*
X151445000Y-102870000D02*
X152400000Y-101915000D01*
X150495000Y-102870000D02*
X151445000Y-102870000D01*
X152400000Y-101915000D02*
X154940000Y-101915000D01*
X153889990Y-99914990D02*
X152400000Y-98425000D01*
X153889990Y-100864990D02*
X153889990Y-99914990D01*
X154940000Y-101915000D02*
X153889990Y-100864990D01*
X156530000Y-103505000D02*
X154940000Y-101915000D01*
X157480000Y-103505000D02*
X156530000Y-103505000D01*
X150810000Y-104460000D02*
X150495000Y-104775000D01*
X152400000Y-104460000D02*
X150810000Y-104460000D01*
X150404999Y-108298001D02*
X150404999Y-107601999D01*
X151862008Y-109755010D02*
X150404999Y-108298001D01*
X158652992Y-109755010D02*
X151862008Y-109755010D01*
X161689999Y-106718003D02*
X158652992Y-109755010D01*
X161689999Y-96919999D02*
X161689999Y-106718003D01*
X161290000Y-96520000D02*
X161689999Y-96919999D01*
X152299001Y-106460999D02*
X152400000Y-106360000D01*
X151545999Y-106460999D02*
X152299001Y-106460999D01*
X150404999Y-107601999D02*
X151545999Y-106460999D01*
D18*
X140970000Y-61595000D02*
X144780000Y-57785000D01*
X144780000Y-57785000D02*
X144780000Y-53340000D01*
D19*
X173355000Y-53340000D02*
X173355000Y-60960000D01*
X173355000Y-60960000D02*
X174625000Y-62230000D01*
D17*
X179275000Y-98425000D02*
X179910000Y-99060000D01*
X178435000Y-98425000D02*
X179275000Y-98425000D01*
X175260000Y-99060000D02*
X176960000Y-99060000D01*
X176960000Y-99900000D02*
X176530000Y-100330000D01*
X176960000Y-99060000D02*
X176960000Y-99900000D01*
X176325000Y-105410000D02*
X176960000Y-106045000D01*
X175260000Y-105410000D02*
X176325000Y-105410000D01*
X176960000Y-106045000D02*
X175895000Y-107110000D01*
X175895000Y-107110000D02*
X175895000Y-107950000D01*
X181610000Y-104345000D02*
X181610000Y-104140000D01*
X179910000Y-106045000D02*
X181610000Y-104345000D01*
X186690000Y-69215000D02*
X186690000Y-74295000D01*
X188595000Y-67310000D02*
X186690000Y-69215000D01*
X185532561Y-67197439D02*
X180340000Y-72390000D01*
X178435000Y-88719001D02*
X178435000Y-88900000D01*
X180340000Y-86814001D02*
X178435000Y-88719001D01*
X152210000Y-110490000D02*
X152400000Y-110680000D01*
X150495000Y-110490000D02*
X152210000Y-110490000D01*
D20*
X158034482Y-50909093D02*
X157819923Y-51052456D01*
X157637456Y-51234923D01*
X157494093Y-51449482D01*
X157395342Y-51687887D01*
X157345000Y-51940976D01*
X157345000Y-52199024D01*
X157395342Y-52452113D01*
X157494093Y-52690518D01*
X157637456Y-52905077D01*
X157819923Y-53087544D01*
X158034482Y-53230907D01*
X158272887Y-53329658D01*
X158525976Y-53380000D01*
X158784024Y-53380000D01*
X159037113Y-53329658D01*
X159275518Y-53230907D01*
X159457513Y-53109303D01*
X159528815Y-53196185D01*
X159625506Y-53275537D01*
X159735820Y-53334502D01*
X159855518Y-53370812D01*
X159980000Y-53383072D01*
X161330000Y-53383072D01*
X161454482Y-53370812D01*
X161574180Y-53334502D01*
X161684494Y-53275537D01*
X161781185Y-53196185D01*
X161860537Y-53099494D01*
X161919502Y-52989180D01*
X161955812Y-52869482D01*
X161968072Y-52745000D01*
X161968072Y-51395000D01*
X161955812Y-51270518D01*
X161919502Y-51150820D01*
X161860537Y-51040506D01*
X161781185Y-50943815D01*
X161684494Y-50864463D01*
X161610665Y-50825000D01*
X220320000Y-50825000D01*
X220320000Y-51467418D01*
X220320001Y-51467428D01*
X220320000Y-120625000D01*
X97180000Y-120625000D01*
X97180000Y-117435000D01*
X117431928Y-117435000D01*
X117431928Y-118785000D01*
X117444188Y-118909482D01*
X117480498Y-119029180D01*
X117539463Y-119139494D01*
X117618815Y-119236185D01*
X117715506Y-119315537D01*
X117825820Y-119374502D01*
X117945518Y-119410812D01*
X118070000Y-119423072D01*
X119420000Y-119423072D01*
X119544482Y-119410812D01*
X119664180Y-119374502D01*
X119774494Y-119315537D01*
X119871185Y-119236185D01*
X119942487Y-119149303D01*
X120124482Y-119270907D01*
X120362887Y-119369658D01*
X120615976Y-119420000D01*
X120874024Y-119420000D01*
X121127113Y-119369658D01*
X121365518Y-119270907D01*
X121580077Y-119127544D01*
X121745000Y-118962621D01*
X121909923Y-119127544D01*
X122124482Y-119270907D01*
X122362887Y-119369658D01*
X122615976Y-119420000D01*
X122874024Y-119420000D01*
X123127113Y-119369658D01*
X123365518Y-119270907D01*
X123580077Y-119127544D01*
X123745000Y-118962621D01*
X123909923Y-119127544D01*
X124124482Y-119270907D01*
X124362887Y-119369658D01*
X124615976Y-119420000D01*
X124874024Y-119420000D01*
X125127113Y-119369658D01*
X125365518Y-119270907D01*
X125580077Y-119127544D01*
X125745000Y-118962621D01*
X125909923Y-119127544D01*
X126124482Y-119270907D01*
X126362887Y-119369658D01*
X126615976Y-119420000D01*
X126874024Y-119420000D01*
X127127113Y-119369658D01*
X127365518Y-119270907D01*
X127580077Y-119127544D01*
X127762544Y-118945077D01*
X127905907Y-118730518D01*
X128004658Y-118492113D01*
X128055000Y-118239024D01*
X128055000Y-117980976D01*
X128004658Y-117727887D01*
X127905907Y-117489482D01*
X127869504Y-117435000D01*
X138386928Y-117435000D01*
X138386928Y-118785000D01*
X138399188Y-118909482D01*
X138435498Y-119029180D01*
X138494463Y-119139494D01*
X138573815Y-119236185D01*
X138670506Y-119315537D01*
X138780820Y-119374502D01*
X138900518Y-119410812D01*
X139025000Y-119423072D01*
X140375000Y-119423072D01*
X140499482Y-119410812D01*
X140619180Y-119374502D01*
X140729494Y-119315537D01*
X140826185Y-119236185D01*
X140905537Y-119139494D01*
X140964502Y-119029180D01*
X141000812Y-118909482D01*
X141013072Y-118785000D01*
X141013072Y-117435000D01*
X159341928Y-117435000D01*
X159341928Y-118785000D01*
X159354188Y-118909482D01*
X159390498Y-119029180D01*
X159449463Y-119139494D01*
X159528815Y-119236185D01*
X159625506Y-119315537D01*
X159735820Y-119374502D01*
X159855518Y-119410812D01*
X159980000Y-119423072D01*
X161330000Y-119423072D01*
X161454482Y-119410812D01*
X161574180Y-119374502D01*
X161684494Y-119315537D01*
X161781185Y-119236185D01*
X161860537Y-119139494D01*
X161919502Y-119029180D01*
X161955812Y-118909482D01*
X161968072Y-118785000D01*
X161968072Y-118070000D01*
X170771928Y-118070000D01*
X170771928Y-119420000D01*
X170784188Y-119544482D01*
X170820498Y-119664180D01*
X170879463Y-119774494D01*
X170958815Y-119871185D01*
X171055506Y-119950537D01*
X171165820Y-120009502D01*
X171285518Y-120045812D01*
X171410000Y-120058072D01*
X172760000Y-120058072D01*
X172884482Y-120045812D01*
X173004180Y-120009502D01*
X173114494Y-119950537D01*
X173211185Y-119871185D01*
X173282487Y-119784303D01*
X173464482Y-119905907D01*
X173702887Y-120004658D01*
X173955976Y-120055000D01*
X174214024Y-120055000D01*
X174467113Y-120004658D01*
X174705518Y-119905907D01*
X174920077Y-119762544D01*
X175085000Y-119597621D01*
X175249923Y-119762544D01*
X175464482Y-119905907D01*
X175702887Y-120004658D01*
X175955976Y-120055000D01*
X176214024Y-120055000D01*
X176467113Y-120004658D01*
X176705518Y-119905907D01*
X176920077Y-119762544D01*
X177102544Y-119580077D01*
X177245907Y-119365518D01*
X177344658Y-119127113D01*
X177395000Y-118874024D01*
X177395000Y-118615976D01*
X177344658Y-118362887D01*
X177245907Y-118124482D01*
X177102544Y-117909923D01*
X176920077Y-117727456D01*
X176705518Y-117584093D01*
X176467113Y-117485342D01*
X176214024Y-117435000D01*
X175955976Y-117435000D01*
X175702887Y-117485342D01*
X175464482Y-117584093D01*
X175249923Y-117727456D01*
X175085000Y-117892379D01*
X174920077Y-117727456D01*
X174705518Y-117584093D01*
X174467113Y-117485342D01*
X174214024Y-117435000D01*
X173955976Y-117435000D01*
X173702887Y-117485342D01*
X173464482Y-117584093D01*
X173282487Y-117705697D01*
X173211185Y-117618815D01*
X173114494Y-117539463D01*
X173004180Y-117480498D01*
X172884482Y-117444188D01*
X172760000Y-117431928D01*
X171410000Y-117431928D01*
X171285518Y-117444188D01*
X171165820Y-117480498D01*
X171055506Y-117539463D01*
X170958815Y-117618815D01*
X170879463Y-117715506D01*
X170820498Y-117825820D01*
X170784188Y-117945518D01*
X170771928Y-118070000D01*
X161968072Y-118070000D01*
X161968072Y-117435000D01*
X161955812Y-117310518D01*
X161919502Y-117190820D01*
X161860537Y-117080506D01*
X161781185Y-116983815D01*
X161684494Y-116904463D01*
X161574180Y-116845498D01*
X161454482Y-116809188D01*
X161330000Y-116796928D01*
X159980000Y-116796928D01*
X159855518Y-116809188D01*
X159735820Y-116845498D01*
X159625506Y-116904463D01*
X159528815Y-116983815D01*
X159449463Y-117080506D01*
X159390498Y-117190820D01*
X159354188Y-117310518D01*
X159341928Y-117435000D01*
X141013072Y-117435000D01*
X141000812Y-117310518D01*
X140964502Y-117190820D01*
X140905537Y-117080506D01*
X140826185Y-116983815D01*
X140729494Y-116904463D01*
X140619180Y-116845498D01*
X140499482Y-116809188D01*
X140375000Y-116796928D01*
X139025000Y-116796928D01*
X138900518Y-116809188D01*
X138780820Y-116845498D01*
X138670506Y-116904463D01*
X138573815Y-116983815D01*
X138494463Y-117080506D01*
X138435498Y-117190820D01*
X138399188Y-117310518D01*
X138386928Y-117435000D01*
X127869504Y-117435000D01*
X127762544Y-117274923D01*
X127580077Y-117092456D01*
X127365518Y-116949093D01*
X127127113Y-116850342D01*
X126874024Y-116800000D01*
X126615976Y-116800000D01*
X126362887Y-116850342D01*
X126124482Y-116949093D01*
X125909923Y-117092456D01*
X125745000Y-117257379D01*
X125580077Y-117092456D01*
X125365518Y-116949093D01*
X125127113Y-116850342D01*
X124874024Y-116800000D01*
X124615976Y-116800000D01*
X124362887Y-116850342D01*
X124124482Y-116949093D01*
X123909923Y-117092456D01*
X123745000Y-117257379D01*
X123580077Y-117092456D01*
X123365518Y-116949093D01*
X123127113Y-116850342D01*
X122874024Y-116800000D01*
X122615976Y-116800000D01*
X122362887Y-116850342D01*
X122124482Y-116949093D01*
X121909923Y-117092456D01*
X121745000Y-117257379D01*
X121580077Y-117092456D01*
X121365518Y-116949093D01*
X121127113Y-116850342D01*
X120874024Y-116800000D01*
X120615976Y-116800000D01*
X120362887Y-116850342D01*
X120124482Y-116949093D01*
X119942487Y-117070697D01*
X119871185Y-116983815D01*
X119774494Y-116904463D01*
X119664180Y-116845498D01*
X119544482Y-116809188D01*
X119420000Y-116796928D01*
X118070000Y-116796928D01*
X117945518Y-116809188D01*
X117825820Y-116845498D01*
X117715506Y-116904463D01*
X117618815Y-116983815D01*
X117539463Y-117080506D01*
X117480498Y-117190820D01*
X117444188Y-117310518D01*
X117431928Y-117435000D01*
X97180000Y-117435000D01*
X97180000Y-113535976D01*
X102735000Y-113535976D01*
X102735000Y-113794024D01*
X102785342Y-114047113D01*
X102884093Y-114285518D01*
X103027456Y-114500077D01*
X103209923Y-114682544D01*
X103424482Y-114825907D01*
X103662887Y-114924658D01*
X103915976Y-114975000D01*
X104174024Y-114975000D01*
X104427113Y-114924658D01*
X104665518Y-114825907D01*
X104847513Y-114704303D01*
X104918815Y-114791185D01*
X105015506Y-114870537D01*
X105125820Y-114929502D01*
X105245518Y-114965812D01*
X105370000Y-114978072D01*
X106720000Y-114978072D01*
X106844482Y-114965812D01*
X106964180Y-114929502D01*
X107074494Y-114870537D01*
X107171185Y-114791185D01*
X107250537Y-114694494D01*
X107309502Y-114584180D01*
X107345812Y-114464482D01*
X107358072Y-114340000D01*
X107358072Y-112990000D01*
X107345812Y-112865518D01*
X107309502Y-112745820D01*
X107250537Y-112635506D01*
X107171185Y-112538815D01*
X107074494Y-112459463D01*
X106964180Y-112400498D01*
X106844482Y-112364188D01*
X106720000Y-112351928D01*
X105370000Y-112351928D01*
X105245518Y-112364188D01*
X105125820Y-112400498D01*
X105015506Y-112459463D01*
X104918815Y-112538815D01*
X104847513Y-112625697D01*
X104665518Y-112504093D01*
X104427113Y-112405342D01*
X104174024Y-112355000D01*
X103915976Y-112355000D01*
X103662887Y-112405342D01*
X103424482Y-112504093D01*
X103209923Y-112647456D01*
X103027456Y-112829923D01*
X102884093Y-113044482D01*
X102785342Y-113282887D01*
X102735000Y-113535976D01*
X97180000Y-113535976D01*
X97180000Y-107415329D01*
X149193475Y-107415329D01*
X149193475Y-107619207D01*
X149233249Y-107819166D01*
X149311270Y-108007524D01*
X149424538Y-108177042D01*
X149568701Y-108321205D01*
X149648884Y-108374782D01*
X149655996Y-108446986D01*
X149699453Y-108590247D01*
X149770025Y-108722277D01*
X149788058Y-108744250D01*
X149864998Y-108838002D01*
X149894002Y-108861805D01*
X150487197Y-109455000D01*
X150393061Y-109455000D01*
X150193102Y-109494774D01*
X150004744Y-109572795D01*
X149835226Y-109686063D01*
X149691063Y-109830226D01*
X149577795Y-109999744D01*
X149499774Y-110188102D01*
X149460000Y-110388061D01*
X149460000Y-110591939D01*
X149499774Y-110791898D01*
X149577795Y-110980256D01*
X149691063Y-111149774D01*
X149835226Y-111293937D01*
X150004744Y-111407205D01*
X150193102Y-111485226D01*
X150393061Y-111525000D01*
X150596939Y-111525000D01*
X150796898Y-111485226D01*
X150985256Y-111407205D01*
X151154774Y-111293937D01*
X151198711Y-111250000D01*
X151377065Y-111250000D01*
X151428169Y-111345608D01*
X151532394Y-111472606D01*
X151659392Y-111576831D01*
X151804284Y-111654278D01*
X151961500Y-111701969D01*
X152125000Y-111718072D01*
X152675000Y-111718072D01*
X152838500Y-111701969D01*
X152995716Y-111654278D01*
X153140608Y-111576831D01*
X153267606Y-111472606D01*
X153371831Y-111345608D01*
X153449278Y-111200716D01*
X153496969Y-111043500D01*
X153513072Y-110880000D01*
X153513072Y-110515010D01*
X158615670Y-110515010D01*
X158652992Y-110518686D01*
X158690314Y-110515010D01*
X158690325Y-110515010D01*
X158801978Y-110504013D01*
X158945239Y-110460556D01*
X159077268Y-110389984D01*
X159192993Y-110295011D01*
X159216796Y-110266007D01*
X159667803Y-109815000D01*
X213316928Y-109815000D01*
X213316928Y-111165000D01*
X213329188Y-111289482D01*
X213365498Y-111409180D01*
X213424463Y-111519494D01*
X213503815Y-111616185D01*
X213590697Y-111687487D01*
X213469093Y-111869482D01*
X213370342Y-112107887D01*
X213320000Y-112360976D01*
X213320000Y-112619024D01*
X213370342Y-112872113D01*
X213469093Y-113110518D01*
X213612456Y-113325077D01*
X213794923Y-113507544D01*
X214009482Y-113650907D01*
X214247887Y-113749658D01*
X214500976Y-113800000D01*
X214759024Y-113800000D01*
X215012113Y-113749658D01*
X215250518Y-113650907D01*
X215465077Y-113507544D01*
X215647544Y-113325077D01*
X215790907Y-113110518D01*
X215889658Y-112872113D01*
X215940000Y-112619024D01*
X215940000Y-112360976D01*
X215889658Y-112107887D01*
X215790907Y-111869482D01*
X215669303Y-111687487D01*
X215756185Y-111616185D01*
X215835537Y-111519494D01*
X215894502Y-111409180D01*
X215930812Y-111289482D01*
X215943072Y-111165000D01*
X215943072Y-109815000D01*
X215930812Y-109690518D01*
X215894502Y-109570820D01*
X215835537Y-109460506D01*
X215756185Y-109363815D01*
X215659494Y-109284463D01*
X215549180Y-109225498D01*
X215429482Y-109189188D01*
X215305000Y-109176928D01*
X213955000Y-109176928D01*
X213830518Y-109189188D01*
X213710820Y-109225498D01*
X213600506Y-109284463D01*
X213503815Y-109363815D01*
X213424463Y-109460506D01*
X213365498Y-109570820D01*
X213329188Y-109690518D01*
X213316928Y-109815000D01*
X159667803Y-109815000D01*
X162201007Y-107281798D01*
X162230000Y-107258004D01*
X162253794Y-107229011D01*
X162253798Y-107229007D01*
X162311810Y-107158318D01*
X162324973Y-107142279D01*
X162395545Y-107010250D01*
X162439002Y-106866989D01*
X162449999Y-106755336D01*
X162449999Y-106755327D01*
X162453675Y-106718004D01*
X162449999Y-106680681D01*
X162449999Y-96957321D01*
X162453675Y-96919998D01*
X162449999Y-96882676D01*
X162449999Y-96882666D01*
X162439002Y-96771013D01*
X162395545Y-96627752D01*
X162325000Y-96495774D01*
X162325000Y-96418061D01*
X162285226Y-96218102D01*
X162207205Y-96029744D01*
X162093937Y-95860226D01*
X161949774Y-95716063D01*
X161780256Y-95602795D01*
X161591898Y-95524774D01*
X161391939Y-95485000D01*
X161188061Y-95485000D01*
X160988102Y-95524774D01*
X160799744Y-95602795D01*
X160630226Y-95716063D01*
X160486063Y-95860226D01*
X160372795Y-96029744D01*
X160294774Y-96218102D01*
X160255000Y-96418061D01*
X160255000Y-96621939D01*
X160294774Y-96821898D01*
X160372795Y-97010256D01*
X160486063Y-97179774D01*
X160630226Y-97323937D01*
X160799744Y-97437205D01*
X160929999Y-97491159D01*
X160930000Y-105679424D01*
X160756939Y-105645000D01*
X160553061Y-105645000D01*
X160353102Y-105684774D01*
X160164744Y-105762795D01*
X159995226Y-105876063D01*
X159951289Y-105920000D01*
X158755585Y-105920000D01*
X158718252Y-105916323D01*
X158680919Y-105920000D01*
X158569266Y-105930997D01*
X158426005Y-105974454D01*
X158293976Y-106045026D01*
X158178251Y-106139999D01*
X158154452Y-106168998D01*
X157768451Y-106555000D01*
X156303072Y-106555000D01*
X156303072Y-106324999D01*
X156286008Y-106151745D01*
X156235472Y-105985149D01*
X156153405Y-105831613D01*
X156042962Y-105697037D01*
X156036406Y-105691657D01*
X156116185Y-105626184D01*
X156195537Y-105529493D01*
X156254502Y-105419179D01*
X156290812Y-105299481D01*
X156303072Y-105174999D01*
X156300000Y-104960749D01*
X156141250Y-104801999D01*
X155067000Y-104801999D01*
X155067000Y-104821999D01*
X154813000Y-104821999D01*
X154813000Y-104801999D01*
X154793000Y-104801999D01*
X154793000Y-104547999D01*
X154813000Y-104547999D01*
X154813000Y-103698749D01*
X154654250Y-103539999D01*
X154215000Y-103536927D01*
X154090518Y-103549187D01*
X153970820Y-103585497D01*
X153860506Y-103644462D01*
X153763815Y-103723814D01*
X153684463Y-103820505D01*
X153676700Y-103835029D01*
X153613405Y-103716614D01*
X153502962Y-103582038D01*
X153368386Y-103471595D01*
X153214850Y-103389528D01*
X153048254Y-103338992D01*
X152875000Y-103321928D01*
X152067873Y-103321928D01*
X152336729Y-103053072D01*
X152875000Y-103053072D01*
X153048254Y-103036008D01*
X153214850Y-102985472D01*
X153368386Y-102903405D01*
X153502962Y-102792962D01*
X153599770Y-102675000D01*
X153740230Y-102675000D01*
X153837038Y-102792962D01*
X153971614Y-102903405D01*
X154125150Y-102985472D01*
X154291746Y-103036008D01*
X154465000Y-103053072D01*
X155003271Y-103053072D01*
X155488361Y-103538162D01*
X155225750Y-103539999D01*
X155067000Y-103698749D01*
X155067000Y-104547999D01*
X156141250Y-104547999D01*
X156300000Y-104389249D01*
X156302282Y-104230120D01*
X156381014Y-104254003D01*
X156530000Y-104268677D01*
X156567333Y-104265000D01*
X156776289Y-104265000D01*
X156820226Y-104308937D01*
X156989744Y-104422205D01*
X157178102Y-104500226D01*
X157378061Y-104540000D01*
X157581939Y-104540000D01*
X157781898Y-104500226D01*
X157970256Y-104422205D01*
X158139774Y-104308937D01*
X158283937Y-104164774D01*
X158397205Y-103995256D01*
X158475226Y-103806898D01*
X158515000Y-103606939D01*
X158515000Y-103403061D01*
X158475226Y-103203102D01*
X158397205Y-103014744D01*
X158283937Y-102845226D01*
X158139774Y-102701063D01*
X157970256Y-102587795D01*
X157781898Y-102509774D01*
X157581939Y-102470000D01*
X157378061Y-102470000D01*
X157178102Y-102509774D01*
X156989744Y-102587795D01*
X156820226Y-102701063D01*
X156810545Y-102710744D01*
X156299641Y-102199839D01*
X156303072Y-102165000D01*
X156303072Y-101665000D01*
X156286008Y-101491746D01*
X156235472Y-101325150D01*
X156153405Y-101171614D01*
X156042962Y-101037038D01*
X156036406Y-101031658D01*
X156116185Y-100966185D01*
X156195537Y-100869494D01*
X156254502Y-100759180D01*
X156290812Y-100639482D01*
X156303072Y-100515000D01*
X156300000Y-100300750D01*
X156141250Y-100142000D01*
X155067000Y-100142000D01*
X155067000Y-100162000D01*
X154813000Y-100162000D01*
X154813000Y-100142000D01*
X154793000Y-100142000D01*
X154793000Y-99888000D01*
X154813000Y-99888000D01*
X154813000Y-99038750D01*
X155067000Y-99038750D01*
X155067000Y-99888000D01*
X156141250Y-99888000D01*
X156300000Y-99729250D01*
X156303072Y-99515000D01*
X156290812Y-99390518D01*
X156254502Y-99270820D01*
X156195537Y-99160506D01*
X156116185Y-99063815D01*
X156019494Y-98984463D01*
X155909180Y-98925498D01*
X155789482Y-98889188D01*
X155665000Y-98876928D01*
X155225750Y-98880000D01*
X155067000Y-99038750D01*
X154813000Y-99038750D01*
X154654250Y-98880000D01*
X154215000Y-98876928D01*
X154090518Y-98889188D01*
X153974257Y-98924455D01*
X153435000Y-98385199D01*
X153435000Y-98323061D01*
X153395226Y-98123102D01*
X153317205Y-97934744D01*
X153203937Y-97765226D01*
X153059774Y-97621063D01*
X152890256Y-97507795D01*
X152701898Y-97429774D01*
X152501939Y-97390000D01*
X152298061Y-97390000D01*
X152098102Y-97429774D01*
X151909744Y-97507795D01*
X151740226Y-97621063D01*
X151596063Y-97765226D01*
X151482795Y-97934744D01*
X151404774Y-98123102D01*
X151365000Y-98323061D01*
X151365000Y-98526939D01*
X151404774Y-98726898D01*
X151480762Y-98910348D01*
X151430820Y-98925498D01*
X151320506Y-98984463D01*
X151223815Y-99063815D01*
X151144463Y-99160506D01*
X151085498Y-99270820D01*
X151049188Y-99390518D01*
X151036928Y-99515000D01*
X151040000Y-99729250D01*
X151198750Y-99888000D01*
X152273000Y-99888000D01*
X152273000Y-99868000D01*
X152527000Y-99868000D01*
X152527000Y-99888000D01*
X152547000Y-99888000D01*
X152547000Y-100142000D01*
X152527000Y-100142000D01*
X152527000Y-100162000D01*
X152273000Y-100162000D01*
X152273000Y-100142000D01*
X151198750Y-100142000D01*
X151040000Y-100300750D01*
X151036928Y-100515000D01*
X151049188Y-100639482D01*
X151085498Y-100759180D01*
X151144463Y-100869494D01*
X151223815Y-100966185D01*
X151303594Y-101031658D01*
X151297038Y-101037038D01*
X151186595Y-101171614D01*
X151104528Y-101325150D01*
X151053992Y-101491746D01*
X151036928Y-101665000D01*
X151036928Y-101987321D01*
X150985256Y-101952795D01*
X150796898Y-101874774D01*
X150596939Y-101835000D01*
X150393061Y-101835000D01*
X150193102Y-101874774D01*
X150004744Y-101952795D01*
X149835226Y-102066063D01*
X149691063Y-102210226D01*
X149577795Y-102379744D01*
X149499774Y-102568102D01*
X149460000Y-102768061D01*
X149460000Y-102971939D01*
X149499774Y-103171898D01*
X149577795Y-103360256D01*
X149691063Y-103529774D01*
X149835226Y-103673937D01*
X150004744Y-103787205D01*
X150089953Y-103822500D01*
X150004744Y-103857795D01*
X149835226Y-103971063D01*
X149691063Y-104115226D01*
X149577795Y-104284744D01*
X149499774Y-104473102D01*
X149460000Y-104673061D01*
X149460000Y-104876939D01*
X149499774Y-105076898D01*
X149577795Y-105265256D01*
X149691063Y-105434774D01*
X149835226Y-105578937D01*
X150004744Y-105692205D01*
X150193102Y-105770226D01*
X150393061Y-105810000D01*
X150596939Y-105810000D01*
X150796898Y-105770226D01*
X150985256Y-105692205D01*
X151154774Y-105578937D01*
X151298937Y-105434774D01*
X151340043Y-105373255D01*
X151384817Y-105410000D01*
X151297038Y-105482038D01*
X151186595Y-105616614D01*
X151104528Y-105770150D01*
X151076261Y-105863335D01*
X151005998Y-105920998D01*
X150982200Y-105949996D01*
X150430100Y-106502097D01*
X150330414Y-106482268D01*
X150126536Y-106482268D01*
X149926577Y-106522042D01*
X149738219Y-106600063D01*
X149568701Y-106713331D01*
X149424538Y-106857494D01*
X149311270Y-107027012D01*
X149233249Y-107215370D01*
X149193475Y-107415329D01*
X97180000Y-107415329D01*
X97180000Y-97660000D01*
X102736928Y-97660000D01*
X102736928Y-100460000D01*
X102749188Y-100584482D01*
X102785498Y-100704180D01*
X102844463Y-100814494D01*
X102923815Y-100911185D01*
X103020506Y-100990537D01*
X103130820Y-101049502D01*
X103250518Y-101085812D01*
X103375000Y-101098072D01*
X106175000Y-101098072D01*
X106299482Y-101085812D01*
X106419180Y-101049502D01*
X106529494Y-100990537D01*
X106626185Y-100911185D01*
X106705537Y-100814494D01*
X106764502Y-100704180D01*
X106800812Y-100584482D01*
X106813072Y-100460000D01*
X106813072Y-97660000D01*
X106800812Y-97535518D01*
X106764502Y-97415820D01*
X106705537Y-97305506D01*
X106626185Y-97208815D01*
X106529494Y-97129463D01*
X106419180Y-97070498D01*
X106299482Y-97034188D01*
X106175000Y-97021928D01*
X103375000Y-97021928D01*
X103250518Y-97034188D01*
X103130820Y-97070498D01*
X103020506Y-97129463D01*
X102923815Y-97208815D01*
X102844463Y-97305506D01*
X102785498Y-97415820D01*
X102749188Y-97535518D01*
X102736928Y-97660000D01*
X97180000Y-97660000D01*
X97180000Y-93859570D01*
X102740000Y-93859570D01*
X102740000Y-94260430D01*
X102818204Y-94653587D01*
X102971607Y-95023934D01*
X103194313Y-95357237D01*
X103477763Y-95640687D01*
X103811066Y-95863393D01*
X104181413Y-96016796D01*
X104574570Y-96095000D01*
X104975430Y-96095000D01*
X105368587Y-96016796D01*
X105738934Y-95863393D01*
X106072237Y-95640687D01*
X106355687Y-95357237D01*
X106495453Y-95148061D01*
X167240000Y-95148061D01*
X167240000Y-95351939D01*
X167279774Y-95551898D01*
X167357795Y-95740256D01*
X167471063Y-95909774D01*
X167518428Y-95957139D01*
X167525997Y-96033985D01*
X167553759Y-96125506D01*
X167569454Y-96177246D01*
X167640026Y-96309276D01*
X167677976Y-96355518D01*
X167734999Y-96425001D01*
X167764003Y-96448804D01*
X169637698Y-98322500D01*
X169033998Y-98926201D01*
X169005000Y-98949999D01*
X168981202Y-98978997D01*
X168981201Y-98978998D01*
X168910026Y-99065724D01*
X168839454Y-99197754D01*
X168795998Y-99341015D01*
X168781324Y-99490000D01*
X168785001Y-99527332D01*
X168785000Y-104197677D01*
X168781324Y-104235000D01*
X168785000Y-104272322D01*
X168785000Y-104272332D01*
X168795997Y-104383985D01*
X168835013Y-104512605D01*
X168839454Y-104527246D01*
X168852031Y-104550776D01*
X168765256Y-104492795D01*
X168576898Y-104414774D01*
X168376939Y-104375000D01*
X168173061Y-104375000D01*
X167973102Y-104414774D01*
X167784744Y-104492795D01*
X167615226Y-104606063D01*
X167471063Y-104750226D01*
X167357795Y-104919744D01*
X167279774Y-105108102D01*
X167240000Y-105308061D01*
X167240000Y-105511939D01*
X167279774Y-105711898D01*
X167357795Y-105900256D01*
X167471063Y-106069774D01*
X167615226Y-106213937D01*
X167784744Y-106327205D01*
X167973102Y-106405226D01*
X168173061Y-106445000D01*
X168376939Y-106445000D01*
X168576898Y-106405226D01*
X168765256Y-106327205D01*
X168934774Y-106213937D01*
X168978711Y-106170000D01*
X169302678Y-106170000D01*
X169340000Y-106173676D01*
X169377322Y-106170000D01*
X169377333Y-106170000D01*
X169488986Y-106159003D01*
X169632247Y-106115546D01*
X169764276Y-106044974D01*
X169880001Y-105950001D01*
X169903803Y-105920998D01*
X170270492Y-105554310D01*
X170377518Y-105564851D01*
X170377527Y-105564851D01*
X170414850Y-105568527D01*
X170452173Y-105564851D01*
X170721928Y-105564851D01*
X170765865Y-105608788D01*
X170935383Y-105722056D01*
X171123741Y-105800077D01*
X171323700Y-105839851D01*
X171527578Y-105839851D01*
X171727537Y-105800077D01*
X171915895Y-105722056D01*
X172085413Y-105608788D01*
X172229576Y-105464625D01*
X172334188Y-105308061D01*
X174225000Y-105308061D01*
X174225000Y-105511939D01*
X174264774Y-105711898D01*
X174342795Y-105900256D01*
X174456063Y-106069774D01*
X174600226Y-106213937D01*
X174769744Y-106327205D01*
X174958102Y-106405226D01*
X175158061Y-106445000D01*
X175361939Y-106445000D01*
X175515804Y-106414395D01*
X175384002Y-106546197D01*
X175354999Y-106569999D01*
X175299871Y-106637174D01*
X175260026Y-106685724D01*
X175202150Y-106794002D01*
X175189454Y-106817754D01*
X175145997Y-106961015D01*
X175135000Y-107072668D01*
X175135000Y-107072678D01*
X175131324Y-107110000D01*
X175135000Y-107147322D01*
X175135000Y-107246289D01*
X175091063Y-107290226D01*
X174977795Y-107459744D01*
X174899774Y-107648102D01*
X174860000Y-107848061D01*
X174860000Y-108051939D01*
X174899774Y-108251898D01*
X174977795Y-108440256D01*
X175091063Y-108609774D01*
X175235226Y-108753937D01*
X175404744Y-108867205D01*
X175593102Y-108945226D01*
X175793061Y-108985000D01*
X175996939Y-108985000D01*
X176196898Y-108945226D01*
X176385256Y-108867205D01*
X176554774Y-108753937D01*
X176698937Y-108609774D01*
X176812205Y-108440256D01*
X176890226Y-108251898D01*
X176930000Y-108051939D01*
X176930000Y-107848061D01*
X176890226Y-107648102D01*
X176863289Y-107583072D01*
X177285001Y-107583072D01*
X177458255Y-107566008D01*
X177624851Y-107515472D01*
X177778387Y-107433405D01*
X177912962Y-107322962D01*
X178023405Y-107188387D01*
X178105472Y-107034851D01*
X178156008Y-106868255D01*
X178173072Y-106695001D01*
X178173072Y-105394999D01*
X178696928Y-105394999D01*
X178696928Y-106695001D01*
X178713992Y-106868255D01*
X178764528Y-107034851D01*
X178846595Y-107188387D01*
X178957038Y-107322962D01*
X179091613Y-107433405D01*
X179245149Y-107515472D01*
X179411745Y-107566008D01*
X179584999Y-107583072D01*
X180235001Y-107583072D01*
X180408255Y-107566008D01*
X180574851Y-107515472D01*
X180728387Y-107433405D01*
X180862962Y-107322962D01*
X180973405Y-107188387D01*
X181055472Y-107034851D01*
X181106008Y-106868255D01*
X181123072Y-106695001D01*
X181123072Y-105906729D01*
X181890275Y-105139527D01*
X181911898Y-105135226D01*
X182100256Y-105057205D01*
X182269774Y-104943937D01*
X182413937Y-104799774D01*
X182527205Y-104630256D01*
X182605226Y-104441898D01*
X182645000Y-104241939D01*
X182645000Y-104038061D01*
X182605226Y-103838102D01*
X182527205Y-103649744D01*
X182413937Y-103480226D01*
X182269774Y-103336063D01*
X182100256Y-103222795D01*
X181911898Y-103144774D01*
X181711939Y-103105000D01*
X181508061Y-103105000D01*
X181308102Y-103144774D01*
X181119744Y-103222795D01*
X180950226Y-103336063D01*
X180806063Y-103480226D01*
X180692795Y-103649744D01*
X180614774Y-103838102D01*
X180575000Y-104038061D01*
X180575000Y-104241939D01*
X180585495Y-104294703D01*
X180360873Y-104519325D01*
X180235001Y-104506928D01*
X179584999Y-104506928D01*
X179411745Y-104523992D01*
X179245149Y-104574528D01*
X179091613Y-104656595D01*
X178957038Y-104767038D01*
X178846595Y-104901613D01*
X178764528Y-105055149D01*
X178713992Y-105221745D01*
X178696928Y-105394999D01*
X178173072Y-105394999D01*
X178156008Y-105221745D01*
X178105472Y-105055149D01*
X178023405Y-104901613D01*
X177912962Y-104767038D01*
X177778387Y-104656595D01*
X177624851Y-104574528D01*
X177458255Y-104523992D01*
X177285001Y-104506928D01*
X176634999Y-104506928D01*
X176461745Y-104523992D01*
X176295149Y-104574528D01*
X176153951Y-104650000D01*
X175963711Y-104650000D01*
X175919774Y-104606063D01*
X175750256Y-104492795D01*
X175561898Y-104414774D01*
X175361939Y-104375000D01*
X175158061Y-104375000D01*
X174958102Y-104414774D01*
X174769744Y-104492795D01*
X174600226Y-104606063D01*
X174456063Y-104750226D01*
X174342795Y-104919744D01*
X174264774Y-105108102D01*
X174225000Y-105308061D01*
X172334188Y-105308061D01*
X172342844Y-105295107D01*
X172420865Y-105106749D01*
X172460639Y-104906790D01*
X172460639Y-104702912D01*
X172420865Y-104502953D01*
X172342844Y-104314595D01*
X172229576Y-104145077D01*
X172085413Y-104000914D01*
X171915895Y-103887646D01*
X171727537Y-103809625D01*
X171527578Y-103769851D01*
X171323700Y-103769851D01*
X171123741Y-103809625D01*
X170985950Y-103866700D01*
X170956250Y-103837000D01*
X170867665Y-103837000D01*
X170800895Y-103782203D01*
X170677510Y-103716253D01*
X170543631Y-103675641D01*
X170404400Y-103661928D01*
X170305000Y-103661928D01*
X170305000Y-103563000D01*
X170307000Y-103563000D01*
X170307000Y-103583000D01*
X170956250Y-103583000D01*
X171115000Y-103424250D01*
X171104173Y-103307548D01*
X171066340Y-103188323D01*
X171005974Y-103078770D01*
X170925395Y-102983098D01*
X170827700Y-102904985D01*
X170716642Y-102847432D01*
X170596491Y-102812652D01*
X170471863Y-102801980D01*
X170465750Y-102805000D01*
X170307002Y-102963748D01*
X170307002Y-102805000D01*
X170305000Y-102805000D01*
X170305000Y-99804801D01*
X170815000Y-99294802D01*
X171091205Y-99571008D01*
X171114999Y-99600001D01*
X171143992Y-99623795D01*
X171143996Y-99623799D01*
X171200568Y-99670226D01*
X171230724Y-99694974D01*
X171285590Y-99724301D01*
X171425226Y-99863937D01*
X171594744Y-99977205D01*
X171783102Y-100055226D01*
X171983061Y-100095000D01*
X172186939Y-100095000D01*
X172386898Y-100055226D01*
X172575256Y-99977205D01*
X172744774Y-99863937D01*
X172888937Y-99719774D01*
X173002205Y-99550256D01*
X173080226Y-99361898D01*
X173120000Y-99161939D01*
X173120000Y-98958061D01*
X174225000Y-98958061D01*
X174225000Y-99161939D01*
X174264774Y-99361898D01*
X174342795Y-99550256D01*
X174456063Y-99719774D01*
X174600226Y-99863937D01*
X174769744Y-99977205D01*
X174958102Y-100055226D01*
X175158061Y-100095000D01*
X175361939Y-100095000D01*
X175528039Y-100061961D01*
X175495000Y-100228061D01*
X175495000Y-100431939D01*
X175534774Y-100631898D01*
X175612795Y-100820256D01*
X175726063Y-100989774D01*
X175870226Y-101133937D01*
X176039744Y-101247205D01*
X176228102Y-101325226D01*
X176428061Y-101365000D01*
X176631939Y-101365000D01*
X176831898Y-101325226D01*
X177020256Y-101247205D01*
X177189774Y-101133937D01*
X177333937Y-100989774D01*
X177447205Y-100820256D01*
X177525226Y-100631898D01*
X177540299Y-100556120D01*
X177624851Y-100530472D01*
X177778387Y-100448405D01*
X177912962Y-100337962D01*
X178023405Y-100203387D01*
X178105472Y-100049851D01*
X178156008Y-99883255D01*
X178173072Y-99710001D01*
X178173072Y-99428176D01*
X178333061Y-99460000D01*
X178536939Y-99460000D01*
X178696928Y-99428176D01*
X178696928Y-99710001D01*
X178713992Y-99883255D01*
X178764528Y-100049851D01*
X178846595Y-100203387D01*
X178957038Y-100337962D01*
X179091613Y-100448405D01*
X179245149Y-100530472D01*
X179411745Y-100581008D01*
X179584999Y-100598072D01*
X180235001Y-100598072D01*
X180408255Y-100581008D01*
X180574851Y-100530472D01*
X180728387Y-100448405D01*
X180862962Y-100337962D01*
X180973405Y-100203387D01*
X181055472Y-100049851D01*
X181106008Y-99883255D01*
X181123072Y-99710001D01*
X181123072Y-98409999D01*
X181106008Y-98236745D01*
X181055472Y-98070149D01*
X180973405Y-97916613D01*
X180862962Y-97782038D01*
X180728387Y-97671595D01*
X180574851Y-97589528D01*
X180408255Y-97538992D01*
X180235001Y-97521928D01*
X179584999Y-97521928D01*
X179411745Y-97538992D01*
X179245149Y-97589528D01*
X179126603Y-97652892D01*
X179094774Y-97621063D01*
X178925256Y-97507795D01*
X178736898Y-97429774D01*
X178536939Y-97390000D01*
X178333061Y-97390000D01*
X178133102Y-97429774D01*
X177944744Y-97507795D01*
X177775226Y-97621063D01*
X177743397Y-97652892D01*
X177624851Y-97589528D01*
X177458255Y-97538992D01*
X177285001Y-97521928D01*
X176634999Y-97521928D01*
X176461745Y-97538992D01*
X176295149Y-97589528D01*
X176141613Y-97671595D01*
X176007038Y-97782038D01*
X175896595Y-97916613D01*
X175814528Y-98070149D01*
X175785373Y-98166260D01*
X175750256Y-98142795D01*
X175561898Y-98064774D01*
X175361939Y-98025000D01*
X175158061Y-98025000D01*
X174958102Y-98064774D01*
X174769744Y-98142795D01*
X174600226Y-98256063D01*
X174456063Y-98400226D01*
X174342795Y-98569744D01*
X174264774Y-98758102D01*
X174225000Y-98958061D01*
X173120000Y-98958061D01*
X173080226Y-98758102D01*
X173002205Y-98569744D01*
X172888937Y-98400226D01*
X172744774Y-98256063D01*
X172575256Y-98142795D01*
X172386898Y-98064774D01*
X172186939Y-98025000D01*
X171983061Y-98025000D01*
X171783102Y-98064774D01*
X171753072Y-98077213D01*
X171753072Y-98025600D01*
X171739359Y-97886369D01*
X171720050Y-97822716D01*
X171739173Y-97762452D01*
X171750000Y-97645750D01*
X171591250Y-97487000D01*
X171502665Y-97487000D01*
X171435895Y-97432203D01*
X171312510Y-97366253D01*
X171178631Y-97325641D01*
X171039400Y-97311928D01*
X170776730Y-97311928D01*
X170688000Y-97223198D01*
X170688000Y-96613750D01*
X170942000Y-96613750D01*
X170942000Y-97233000D01*
X171591250Y-97233000D01*
X171750000Y-97074250D01*
X171739173Y-96957548D01*
X171701340Y-96838323D01*
X171640974Y-96728770D01*
X171560395Y-96633098D01*
X171462700Y-96554985D01*
X171351642Y-96497432D01*
X171291422Y-96480000D01*
X186011928Y-96480000D01*
X186011928Y-97830000D01*
X186024188Y-97954482D01*
X186060498Y-98074180D01*
X186119463Y-98184494D01*
X186198815Y-98281185D01*
X186285697Y-98352487D01*
X186164093Y-98534482D01*
X186065342Y-98772887D01*
X186015000Y-99025976D01*
X186015000Y-99284024D01*
X186065342Y-99537113D01*
X186164093Y-99775518D01*
X186307456Y-99990077D01*
X186472379Y-100155000D01*
X186307456Y-100319923D01*
X186164093Y-100534482D01*
X186065342Y-100772887D01*
X186015000Y-101025976D01*
X186015000Y-101284024D01*
X186065342Y-101537113D01*
X186164093Y-101775518D01*
X186307456Y-101990077D01*
X186489923Y-102172544D01*
X186704482Y-102315907D01*
X186942887Y-102414658D01*
X187195976Y-102465000D01*
X187454024Y-102465000D01*
X187707113Y-102414658D01*
X187945518Y-102315907D01*
X188160077Y-102172544D01*
X188227621Y-102105000D01*
X212591928Y-102105000D01*
X212591928Y-104905000D01*
X212604188Y-105029482D01*
X212640498Y-105149180D01*
X212699463Y-105259494D01*
X212778815Y-105356185D01*
X212875506Y-105435537D01*
X212985820Y-105494502D01*
X213105518Y-105530812D01*
X213230000Y-105543072D01*
X216030000Y-105543072D01*
X216154482Y-105530812D01*
X216274180Y-105494502D01*
X216384494Y-105435537D01*
X216481185Y-105356185D01*
X216560537Y-105259494D01*
X216619502Y-105149180D01*
X216655812Y-105029482D01*
X216668072Y-104905000D01*
X216668072Y-102105000D01*
X216655812Y-101980518D01*
X216619502Y-101860820D01*
X216560537Y-101750506D01*
X216481185Y-101653815D01*
X216384494Y-101574463D01*
X216274180Y-101515498D01*
X216154482Y-101479188D01*
X216030000Y-101466928D01*
X213230000Y-101466928D01*
X213105518Y-101479188D01*
X212985820Y-101515498D01*
X212875506Y-101574463D01*
X212778815Y-101653815D01*
X212699463Y-101750506D01*
X212640498Y-101860820D01*
X212604188Y-101980518D01*
X212591928Y-102105000D01*
X188227621Y-102105000D01*
X188342544Y-101990077D01*
X188485907Y-101775518D01*
X188584658Y-101537113D01*
X188635000Y-101284024D01*
X188635000Y-101025976D01*
X188584658Y-100772887D01*
X188485907Y-100534482D01*
X188342544Y-100319923D01*
X188177621Y-100155000D01*
X188342544Y-99990077D01*
X188485907Y-99775518D01*
X188584658Y-99537113D01*
X188635000Y-99284024D01*
X188635000Y-99025976D01*
X188584658Y-98772887D01*
X188485907Y-98534482D01*
X188364303Y-98352487D01*
X188422690Y-98304570D01*
X212595000Y-98304570D01*
X212595000Y-98705430D01*
X212673204Y-99098587D01*
X212826607Y-99468934D01*
X213049313Y-99802237D01*
X213332763Y-100085687D01*
X213666066Y-100308393D01*
X214036413Y-100461796D01*
X214429570Y-100540000D01*
X214830430Y-100540000D01*
X215223587Y-100461796D01*
X215593934Y-100308393D01*
X215927237Y-100085687D01*
X216210687Y-99802237D01*
X216433393Y-99468934D01*
X216586796Y-99098587D01*
X216665000Y-98705430D01*
X216665000Y-98304570D01*
X216586796Y-97911413D01*
X216433393Y-97541066D01*
X216210687Y-97207763D01*
X215927237Y-96924313D01*
X215593934Y-96701607D01*
X215223587Y-96548204D01*
X214830430Y-96470000D01*
X214429570Y-96470000D01*
X214036413Y-96548204D01*
X213666066Y-96701607D01*
X213332763Y-96924313D01*
X213049313Y-97207763D01*
X212826607Y-97541066D01*
X212673204Y-97911413D01*
X212595000Y-98304570D01*
X188422690Y-98304570D01*
X188451185Y-98281185D01*
X188530537Y-98184494D01*
X188589502Y-98074180D01*
X188625812Y-97954482D01*
X188638072Y-97830000D01*
X188638072Y-96480000D01*
X188625812Y-96355518D01*
X188589502Y-96235820D01*
X188530537Y-96125506D01*
X188451185Y-96028815D01*
X188354494Y-95949463D01*
X188244180Y-95890498D01*
X188124482Y-95854188D01*
X188000000Y-95841928D01*
X186650000Y-95841928D01*
X186525518Y-95854188D01*
X186405820Y-95890498D01*
X186295506Y-95949463D01*
X186198815Y-96028815D01*
X186119463Y-96125506D01*
X186060498Y-96235820D01*
X186024188Y-96355518D01*
X186011928Y-96480000D01*
X171291422Y-96480000D01*
X171231491Y-96462652D01*
X171106863Y-96451980D01*
X171100750Y-96455000D01*
X170942000Y-96613750D01*
X170688000Y-96613750D01*
X170529250Y-96455000D01*
X170523137Y-96451980D01*
X170398509Y-96462652D01*
X170278358Y-96497432D01*
X170167300Y-96554985D01*
X170085328Y-96620526D01*
X169195969Y-95731168D01*
X169270226Y-95551898D01*
X169310000Y-95351939D01*
X169310000Y-95148061D01*
X169270226Y-94948102D01*
X169192205Y-94759744D01*
X169078937Y-94590226D01*
X168934774Y-94446063D01*
X168765256Y-94332795D01*
X168576898Y-94254774D01*
X168376939Y-94215000D01*
X168173061Y-94215000D01*
X167973102Y-94254774D01*
X167784744Y-94332795D01*
X167615226Y-94446063D01*
X167471063Y-94590226D01*
X167357795Y-94759744D01*
X167279774Y-94948102D01*
X167240000Y-95148061D01*
X106495453Y-95148061D01*
X106578393Y-95023934D01*
X106731796Y-94653587D01*
X106810000Y-94260430D01*
X106810000Y-93859570D01*
X106731796Y-93466413D01*
X106578393Y-93096066D01*
X106355687Y-92762763D01*
X106072237Y-92479313D01*
X105738934Y-92256607D01*
X105456747Y-92139721D01*
X211860000Y-92139721D01*
X211860000Y-92560279D01*
X211942047Y-92972756D01*
X212102988Y-93361302D01*
X212336637Y-93710983D01*
X212634017Y-94008363D01*
X212983698Y-94242012D01*
X213372244Y-94402953D01*
X213784721Y-94485000D01*
X214205279Y-94485000D01*
X214617756Y-94402953D01*
X215006302Y-94242012D01*
X215355983Y-94008363D01*
X215653363Y-93710983D01*
X215887012Y-93361302D01*
X216047953Y-92972756D01*
X216130000Y-92560279D01*
X216130000Y-92139721D01*
X216047953Y-91727244D01*
X215887012Y-91338698D01*
X215653363Y-90989017D01*
X215355983Y-90691637D01*
X215006302Y-90457988D01*
X214617756Y-90297047D01*
X214205279Y-90215000D01*
X213784721Y-90215000D01*
X213372244Y-90297047D01*
X212983698Y-90457988D01*
X212634017Y-90691637D01*
X212336637Y-90989017D01*
X212102988Y-91338698D01*
X211942047Y-91727244D01*
X211860000Y-92139721D01*
X105456747Y-92139721D01*
X105368587Y-92103204D01*
X104975430Y-92025000D01*
X104574570Y-92025000D01*
X104181413Y-92103204D01*
X103811066Y-92256607D01*
X103477763Y-92479313D01*
X103194313Y-92762763D01*
X102971607Y-93096066D01*
X102818204Y-93466413D01*
X102740000Y-93859570D01*
X97180000Y-93859570D01*
X97180000Y-87694721D01*
X102005000Y-87694721D01*
X102005000Y-88115279D01*
X102087047Y-88527756D01*
X102247988Y-88916302D01*
X102481637Y-89265983D01*
X102779017Y-89563363D01*
X103128698Y-89797012D01*
X103517244Y-89957953D01*
X103929721Y-90040000D01*
X104350279Y-90040000D01*
X104762756Y-89957953D01*
X105151302Y-89797012D01*
X105500983Y-89563363D01*
X105798363Y-89265983D01*
X106032012Y-88916302D01*
X106080989Y-88798061D01*
X177400000Y-88798061D01*
X177400000Y-89001939D01*
X177439774Y-89201898D01*
X177517795Y-89390256D01*
X177631063Y-89559774D01*
X177775226Y-89703937D01*
X177944744Y-89817205D01*
X178133102Y-89895226D01*
X178333061Y-89935000D01*
X178536939Y-89935000D01*
X178736898Y-89895226D01*
X178925256Y-89817205D01*
X179094774Y-89703937D01*
X179238937Y-89559774D01*
X179352205Y-89390256D01*
X179430226Y-89201898D01*
X179470000Y-89001939D01*
X179470000Y-88798061D01*
X179463487Y-88765316D01*
X180379802Y-87849001D01*
X180441939Y-87849001D01*
X180641898Y-87809227D01*
X180830256Y-87731206D01*
X180999774Y-87617938D01*
X181143937Y-87473775D01*
X181257205Y-87304257D01*
X181335226Y-87115899D01*
X181375000Y-86915940D01*
X181375000Y-86712062D01*
X181335226Y-86512103D01*
X181257205Y-86323745D01*
X181143937Y-86154227D01*
X180999774Y-86010064D01*
X180830256Y-85896796D01*
X180641898Y-85818775D01*
X180441939Y-85779001D01*
X180238061Y-85779001D01*
X180038102Y-85818775D01*
X179849744Y-85896796D01*
X179680226Y-86010064D01*
X179536063Y-86154227D01*
X179422795Y-86323745D01*
X179344774Y-86512103D01*
X179305000Y-86712062D01*
X179305000Y-86774199D01*
X178184687Y-87894513D01*
X178133102Y-87904774D01*
X177944744Y-87982795D01*
X177775226Y-88096063D01*
X177631063Y-88240226D01*
X177517795Y-88409744D01*
X177439774Y-88598102D01*
X177400000Y-88798061D01*
X106080989Y-88798061D01*
X106192953Y-88527756D01*
X106275000Y-88115279D01*
X106275000Y-87694721D01*
X106192953Y-87282244D01*
X106032012Y-86893698D01*
X105798363Y-86544017D01*
X105500983Y-86246637D01*
X105151302Y-86012988D01*
X104762756Y-85852047D01*
X104350279Y-85770000D01*
X103929721Y-85770000D01*
X103517244Y-85852047D01*
X103128698Y-86012988D01*
X102779017Y-86246637D01*
X102481637Y-86544017D01*
X102247988Y-86893698D01*
X102087047Y-87282244D01*
X102005000Y-87694721D01*
X97180000Y-87694721D01*
X97180000Y-80904495D01*
X212010000Y-80904495D01*
X212010000Y-81295505D01*
X212086282Y-81679003D01*
X212235915Y-82040250D01*
X212453149Y-82365364D01*
X212729636Y-82641851D01*
X213054750Y-82859085D01*
X213415997Y-83008718D01*
X213799495Y-83085000D01*
X214190505Y-83085000D01*
X214574003Y-83008718D01*
X214935250Y-82859085D01*
X215260364Y-82641851D01*
X215536851Y-82365364D01*
X215754085Y-82040250D01*
X215903718Y-81679003D01*
X215980000Y-81295505D01*
X215980000Y-80904495D01*
X215903718Y-80520997D01*
X215754085Y-80159750D01*
X215536851Y-79834636D01*
X215260364Y-79558149D01*
X214935250Y-79340915D01*
X214574003Y-79191282D01*
X214190505Y-79115000D01*
X213799495Y-79115000D01*
X213415997Y-79191282D01*
X213054750Y-79340915D01*
X212729636Y-79558149D01*
X212453149Y-79834636D01*
X212235915Y-80159750D01*
X212086282Y-80520997D01*
X212010000Y-80904495D01*
X97180000Y-80904495D01*
X97180000Y-76459495D01*
X102155000Y-76459495D01*
X102155000Y-76850505D01*
X102231282Y-77234003D01*
X102380915Y-77595250D01*
X102598149Y-77920364D01*
X102874636Y-78196851D01*
X103199750Y-78414085D01*
X103560997Y-78563718D01*
X103944495Y-78640000D01*
X104335505Y-78640000D01*
X104719003Y-78563718D01*
X105080250Y-78414085D01*
X105405364Y-78196851D01*
X105681851Y-77920364D01*
X105899085Y-77595250D01*
X106048718Y-77234003D01*
X106125000Y-76850505D01*
X106125000Y-76459495D01*
X106048718Y-76075997D01*
X105899085Y-75714750D01*
X105681851Y-75389636D01*
X105405364Y-75113149D01*
X105080250Y-74895915D01*
X104719003Y-74746282D01*
X104335505Y-74670000D01*
X103944495Y-74670000D01*
X103560997Y-74746282D01*
X103199750Y-74895915D01*
X102874636Y-75113149D01*
X102598149Y-75389636D01*
X102380915Y-75714750D01*
X102231282Y-76075997D01*
X102155000Y-76459495D01*
X97180000Y-76459495D01*
X97180000Y-70383061D01*
X131680000Y-70383061D01*
X131680000Y-70586939D01*
X131719774Y-70786898D01*
X131797795Y-70975256D01*
X131830000Y-71023454D01*
X131830001Y-76791521D01*
X131825719Y-76835000D01*
X131842805Y-77008490D01*
X131893412Y-77175313D01*
X131975590Y-77329059D01*
X132058468Y-77430046D01*
X132058471Y-77430049D01*
X132086184Y-77463817D01*
X132119951Y-77491529D01*
X132978465Y-78350044D01*
X132989774Y-78406898D01*
X133067795Y-78595256D01*
X133181063Y-78764774D01*
X133325226Y-78908937D01*
X133494744Y-79022205D01*
X133683102Y-79100226D01*
X133883061Y-79140000D01*
X134086939Y-79140000D01*
X134286898Y-79100226D01*
X134475256Y-79022205D01*
X134644774Y-78908937D01*
X134788937Y-78764774D01*
X134902205Y-78595256D01*
X134980226Y-78406898D01*
X135020000Y-78206939D01*
X135020000Y-78003061D01*
X134980226Y-77803102D01*
X134902205Y-77614744D01*
X134788937Y-77445226D01*
X134644774Y-77301063D01*
X134475256Y-77187795D01*
X134286898Y-77109774D01*
X134230044Y-77098465D01*
X133600000Y-76468422D01*
X133600000Y-74193061D01*
X185655000Y-74193061D01*
X185655000Y-74396939D01*
X185694774Y-74596898D01*
X185772795Y-74785256D01*
X185886063Y-74954774D01*
X186030226Y-75098937D01*
X186199744Y-75212205D01*
X186388102Y-75290226D01*
X186588061Y-75330000D01*
X186791939Y-75330000D01*
X186991898Y-75290226D01*
X187180256Y-75212205D01*
X187349774Y-75098937D01*
X187493937Y-74954774D01*
X187607205Y-74785256D01*
X187685226Y-74596898D01*
X187725000Y-74396939D01*
X187725000Y-74193061D01*
X187685226Y-73993102D01*
X187607205Y-73804744D01*
X187493937Y-73635226D01*
X187450000Y-73591289D01*
X187450000Y-69639721D01*
X211860000Y-69639721D01*
X211860000Y-70060279D01*
X211942047Y-70472756D01*
X212102988Y-70861302D01*
X212336637Y-71210983D01*
X212634017Y-71508363D01*
X212983698Y-71742012D01*
X213372244Y-71902953D01*
X213784721Y-71985000D01*
X214205279Y-71985000D01*
X214617756Y-71902953D01*
X215006302Y-71742012D01*
X215355983Y-71508363D01*
X215653363Y-71210983D01*
X215887012Y-70861302D01*
X216047953Y-70472756D01*
X216130000Y-70060279D01*
X216130000Y-69639721D01*
X216047953Y-69227244D01*
X215887012Y-68838698D01*
X215653363Y-68489017D01*
X215355983Y-68191637D01*
X215006302Y-67957988D01*
X214617756Y-67797047D01*
X214205279Y-67715000D01*
X213784721Y-67715000D01*
X213372244Y-67797047D01*
X212983698Y-67957988D01*
X212634017Y-68191637D01*
X212336637Y-68489017D01*
X212102988Y-68838698D01*
X211942047Y-69227244D01*
X211860000Y-69639721D01*
X187450000Y-69639721D01*
X187450000Y-69529801D01*
X188634802Y-68345000D01*
X188696939Y-68345000D01*
X188896898Y-68305226D01*
X189085256Y-68227205D01*
X189254774Y-68113937D01*
X189398937Y-67969774D01*
X189512205Y-67800256D01*
X189590226Y-67611898D01*
X189630000Y-67411939D01*
X189630000Y-67208061D01*
X189590226Y-67008102D01*
X189512205Y-66819744D01*
X189398937Y-66650226D01*
X189254774Y-66506063D01*
X189085256Y-66392795D01*
X188896898Y-66314774D01*
X188696939Y-66275000D01*
X188493061Y-66275000D01*
X188293102Y-66314774D01*
X188104744Y-66392795D01*
X187935226Y-66506063D01*
X187791063Y-66650226D01*
X187677795Y-66819744D01*
X187599774Y-67008102D01*
X187560000Y-67208061D01*
X187560000Y-67270198D01*
X186179003Y-68651196D01*
X186149999Y-68674999D01*
X186094871Y-68742174D01*
X186055026Y-68790724D01*
X185984455Y-68922753D01*
X185984454Y-68922754D01*
X185940997Y-69066015D01*
X185930000Y-69177668D01*
X185930000Y-69177678D01*
X185926324Y-69215000D01*
X185930000Y-69252323D01*
X185930001Y-73591288D01*
X185886063Y-73635226D01*
X185772795Y-73804744D01*
X185694774Y-73993102D01*
X185655000Y-74193061D01*
X133600000Y-74193061D01*
X133600000Y-72288061D01*
X179305000Y-72288061D01*
X179305000Y-72491939D01*
X179344774Y-72691898D01*
X179422795Y-72880256D01*
X179536063Y-73049774D01*
X179680226Y-73193937D01*
X179849744Y-73307205D01*
X180038102Y-73385226D01*
X180238061Y-73425000D01*
X180441939Y-73425000D01*
X180641898Y-73385226D01*
X180830256Y-73307205D01*
X180999774Y-73193937D01*
X181143937Y-73049774D01*
X181257205Y-72880256D01*
X181335226Y-72691898D01*
X181375000Y-72491939D01*
X181375000Y-72429801D01*
X185572363Y-68232439D01*
X185634500Y-68232439D01*
X185834459Y-68192665D01*
X186022817Y-68114644D01*
X186192335Y-68001376D01*
X186336498Y-67857213D01*
X186449766Y-67687695D01*
X186527787Y-67499337D01*
X186567561Y-67299378D01*
X186567561Y-67095500D01*
X186527787Y-66895541D01*
X186449766Y-66707183D01*
X186336498Y-66537665D01*
X186192335Y-66393502D01*
X186022817Y-66280234D01*
X185834459Y-66202213D01*
X185634500Y-66162439D01*
X185430622Y-66162439D01*
X185230663Y-66202213D01*
X185042305Y-66280234D01*
X184872787Y-66393502D01*
X184728624Y-66537665D01*
X184615356Y-66707183D01*
X184537335Y-66895541D01*
X184497561Y-67095500D01*
X184497561Y-67157637D01*
X180300199Y-71355000D01*
X180238061Y-71355000D01*
X180038102Y-71394774D01*
X179849744Y-71472795D01*
X179680226Y-71586063D01*
X179536063Y-71730226D01*
X179422795Y-71899744D01*
X179344774Y-72088102D01*
X179305000Y-72288061D01*
X133600000Y-72288061D01*
X133600000Y-71023454D01*
X133632205Y-70975256D01*
X133710226Y-70786898D01*
X133750000Y-70586939D01*
X133750000Y-70383061D01*
X133710226Y-70183102D01*
X133632205Y-69994744D01*
X133518937Y-69825226D01*
X133374774Y-69681063D01*
X133205256Y-69567795D01*
X133016898Y-69489774D01*
X132816939Y-69450000D01*
X132613061Y-69450000D01*
X132413102Y-69489774D01*
X132224744Y-69567795D01*
X132055226Y-69681063D01*
X131911063Y-69825226D01*
X131797795Y-69994744D01*
X131719774Y-70183102D01*
X131680000Y-70383061D01*
X97180000Y-70383061D01*
X97180000Y-65194721D01*
X102005000Y-65194721D01*
X102005000Y-65615279D01*
X102087047Y-66027756D01*
X102247988Y-66416302D01*
X102481637Y-66765983D01*
X102779017Y-67063363D01*
X103128698Y-67297012D01*
X103517244Y-67457953D01*
X103929721Y-67540000D01*
X104350279Y-67540000D01*
X104762756Y-67457953D01*
X105151302Y-67297012D01*
X105500983Y-67063363D01*
X105798363Y-66765983D01*
X106032012Y-66416302D01*
X106192953Y-66027756D01*
X106275000Y-65615279D01*
X106275000Y-65194721D01*
X106192953Y-64782244D01*
X106032012Y-64393698D01*
X105798363Y-64044017D01*
X105500983Y-63746637D01*
X105151302Y-63512988D01*
X104762756Y-63352047D01*
X104350279Y-63270000D01*
X103929721Y-63270000D01*
X103517244Y-63352047D01*
X103128698Y-63512988D01*
X102779017Y-63746637D01*
X102481637Y-64044017D01*
X102247988Y-64393698D01*
X102087047Y-64782244D01*
X102005000Y-65194721D01*
X97180000Y-65194721D01*
X97180000Y-61595000D01*
X138824671Y-61595000D01*
X138865893Y-62013533D01*
X138987975Y-62415982D01*
X139186224Y-62786881D01*
X139453023Y-63111977D01*
X139778119Y-63378776D01*
X140149018Y-63577025D01*
X140551467Y-63699107D01*
X140970000Y-63740329D01*
X141388533Y-63699107D01*
X141790982Y-63577025D01*
X142161881Y-63378776D01*
X142405510Y-63178835D01*
X144624345Y-60960000D01*
X170908220Y-60960000D01*
X170955234Y-61437343D01*
X171094469Y-61896342D01*
X171320577Y-62319359D01*
X171548615Y-62597224D01*
X171548619Y-62597228D01*
X171624866Y-62690135D01*
X171717773Y-62766382D01*
X172987776Y-64036385D01*
X173265641Y-64264423D01*
X173688657Y-64490531D01*
X174147656Y-64629766D01*
X174624999Y-64676780D01*
X175102342Y-64629766D01*
X175561342Y-64490531D01*
X175984358Y-64264423D01*
X176355135Y-63960135D01*
X176659423Y-63589358D01*
X176885531Y-63166342D01*
X176989075Y-62825000D01*
X212046928Y-62825000D01*
X212046928Y-64175000D01*
X212059188Y-64299482D01*
X212095498Y-64419180D01*
X212154463Y-64529494D01*
X212233815Y-64626185D01*
X212330506Y-64705537D01*
X212440820Y-64764502D01*
X212560518Y-64800812D01*
X212685000Y-64813072D01*
X214035000Y-64813072D01*
X214159482Y-64800812D01*
X214279180Y-64764502D01*
X214389494Y-64705537D01*
X214486185Y-64626185D01*
X214565537Y-64529494D01*
X214624502Y-64419180D01*
X214660812Y-64299482D01*
X214673072Y-64175000D01*
X214673072Y-62825000D01*
X214660812Y-62700518D01*
X214624502Y-62580820D01*
X214565537Y-62470506D01*
X214486185Y-62373815D01*
X214389494Y-62294463D01*
X214279180Y-62235498D01*
X214159482Y-62199188D01*
X214035000Y-62186928D01*
X212685000Y-62186928D01*
X212560518Y-62199188D01*
X212440820Y-62235498D01*
X212330506Y-62294463D01*
X212233815Y-62373815D01*
X212154463Y-62470506D01*
X212095498Y-62580820D01*
X212059188Y-62700518D01*
X212046928Y-62825000D01*
X176989075Y-62825000D01*
X177024766Y-62707342D01*
X177071780Y-62229999D01*
X177024766Y-61752656D01*
X176885531Y-61293657D01*
X176659423Y-60870641D01*
X176431385Y-60592776D01*
X175790000Y-59951391D01*
X175790000Y-53220385D01*
X175754767Y-52862657D01*
X175615531Y-52403657D01*
X175389424Y-51980641D01*
X175085135Y-51609865D01*
X174714358Y-51305576D01*
X174291342Y-51079469D01*
X173832342Y-50940233D01*
X173355000Y-50893219D01*
X172877657Y-50940233D01*
X172418657Y-51079469D01*
X171995641Y-51305576D01*
X171624865Y-51609865D01*
X171320576Y-51980642D01*
X171094469Y-52403658D01*
X170955233Y-52862658D01*
X170920000Y-53220386D01*
X170920001Y-60840385D01*
X170908220Y-60960000D01*
X144624345Y-60960000D01*
X146215508Y-59368837D01*
X146296977Y-59301977D01*
X146563777Y-58976881D01*
X146762026Y-58605982D01*
X146798889Y-58484463D01*
X146884108Y-58203534D01*
X146887805Y-58165999D01*
X146915000Y-57889882D01*
X146915000Y-57889875D01*
X146925329Y-57785000D01*
X146915000Y-57680126D01*
X146915000Y-53235118D01*
X146884108Y-52921467D01*
X146762026Y-52519018D01*
X146563777Y-52148119D01*
X146296977Y-51823023D01*
X145971881Y-51556223D01*
X145600982Y-51357974D01*
X145198533Y-51235892D01*
X144780000Y-51194670D01*
X144361468Y-51235892D01*
X143959019Y-51357974D01*
X143588120Y-51556223D01*
X143263024Y-51823023D01*
X142996224Y-52148119D01*
X142797975Y-52519018D01*
X142675893Y-52921467D01*
X142645001Y-53235118D01*
X142645000Y-56900655D01*
X139386165Y-60159490D01*
X139186224Y-60403119D01*
X138987975Y-60774018D01*
X138865893Y-61176467D01*
X138824671Y-61595000D01*
X97180000Y-61595000D01*
X97180000Y-59015000D01*
X102191928Y-59015000D01*
X102191928Y-60365000D01*
X102204188Y-60489482D01*
X102240498Y-60609180D01*
X102299463Y-60719494D01*
X102378815Y-60816185D01*
X102475506Y-60895537D01*
X102585820Y-60954502D01*
X102705518Y-60990812D01*
X102830000Y-61003072D01*
X104180000Y-61003072D01*
X104304482Y-60990812D01*
X104424180Y-60954502D01*
X104534494Y-60895537D01*
X104631185Y-60816185D01*
X104710537Y-60719494D01*
X104769502Y-60609180D01*
X104805812Y-60489482D01*
X104818072Y-60365000D01*
X104818072Y-59015000D01*
X104805812Y-58890518D01*
X104769502Y-58770820D01*
X104710537Y-58660506D01*
X104631185Y-58563815D01*
X104534494Y-58484463D01*
X104424180Y-58425498D01*
X104304482Y-58389188D01*
X104180000Y-58376928D01*
X102830000Y-58376928D01*
X102705518Y-58389188D01*
X102585820Y-58425498D01*
X102475506Y-58484463D01*
X102378815Y-58563815D01*
X102299463Y-58660506D01*
X102240498Y-58770820D01*
X102204188Y-58890518D01*
X102191928Y-59015000D01*
X97180000Y-59015000D01*
X97180000Y-53238061D01*
X109455000Y-53238061D01*
X109455000Y-53441939D01*
X109494774Y-53641898D01*
X109572795Y-53830256D01*
X109686063Y-53999774D01*
X109830226Y-54143937D01*
X109999744Y-54257205D01*
X110188102Y-54335226D01*
X110388061Y-54375000D01*
X110591939Y-54375000D01*
X110791898Y-54335226D01*
X110980256Y-54257205D01*
X111149774Y-54143937D01*
X111293937Y-53999774D01*
X111407205Y-53830256D01*
X111485226Y-53641898D01*
X111525000Y-53441939D01*
X111525000Y-53238061D01*
X111485226Y-53038102D01*
X111407205Y-52849744D01*
X111293937Y-52680226D01*
X111149774Y-52536063D01*
X110980256Y-52422795D01*
X110791898Y-52344774D01*
X110591939Y-52305000D01*
X110388061Y-52305000D01*
X110188102Y-52344774D01*
X109999744Y-52422795D01*
X109830226Y-52536063D01*
X109686063Y-52680226D01*
X109572795Y-52849744D01*
X109494774Y-53038102D01*
X109455000Y-53238061D01*
X97180000Y-53238061D01*
X97180000Y-50825000D01*
X158237500Y-50825000D01*
X158034482Y-50909093D01*
G04 #@! TA.AperFunction,Conductor*
D21*
G36*
X158034482Y-50909093D02*
G01*
X157819923Y-51052456D01*
X157637456Y-51234923D01*
X157494093Y-51449482D01*
X157395342Y-51687887D01*
X157345000Y-51940976D01*
X157345000Y-52199024D01*
X157395342Y-52452113D01*
X157494093Y-52690518D01*
X157637456Y-52905077D01*
X157819923Y-53087544D01*
X158034482Y-53230907D01*
X158272887Y-53329658D01*
X158525976Y-53380000D01*
X158784024Y-53380000D01*
X159037113Y-53329658D01*
X159275518Y-53230907D01*
X159457513Y-53109303D01*
X159528815Y-53196185D01*
X159625506Y-53275537D01*
X159735820Y-53334502D01*
X159855518Y-53370812D01*
X159980000Y-53383072D01*
X161330000Y-53383072D01*
X161454482Y-53370812D01*
X161574180Y-53334502D01*
X161684494Y-53275537D01*
X161781185Y-53196185D01*
X161860537Y-53099494D01*
X161919502Y-52989180D01*
X161955812Y-52869482D01*
X161968072Y-52745000D01*
X161968072Y-51395000D01*
X161955812Y-51270518D01*
X161919502Y-51150820D01*
X161860537Y-51040506D01*
X161781185Y-50943815D01*
X161684494Y-50864463D01*
X161610665Y-50825000D01*
X220320000Y-50825000D01*
X220320000Y-51467418D01*
X220320001Y-51467428D01*
X220320000Y-120625000D01*
X97180000Y-120625000D01*
X97180000Y-117435000D01*
X117431928Y-117435000D01*
X117431928Y-118785000D01*
X117444188Y-118909482D01*
X117480498Y-119029180D01*
X117539463Y-119139494D01*
X117618815Y-119236185D01*
X117715506Y-119315537D01*
X117825820Y-119374502D01*
X117945518Y-119410812D01*
X118070000Y-119423072D01*
X119420000Y-119423072D01*
X119544482Y-119410812D01*
X119664180Y-119374502D01*
X119774494Y-119315537D01*
X119871185Y-119236185D01*
X119942487Y-119149303D01*
X120124482Y-119270907D01*
X120362887Y-119369658D01*
X120615976Y-119420000D01*
X120874024Y-119420000D01*
X121127113Y-119369658D01*
X121365518Y-119270907D01*
X121580077Y-119127544D01*
X121745000Y-118962621D01*
X121909923Y-119127544D01*
X122124482Y-119270907D01*
X122362887Y-119369658D01*
X122615976Y-119420000D01*
X122874024Y-119420000D01*
X123127113Y-119369658D01*
X123365518Y-119270907D01*
X123580077Y-119127544D01*
X123745000Y-118962621D01*
X123909923Y-119127544D01*
X124124482Y-119270907D01*
X124362887Y-119369658D01*
X124615976Y-119420000D01*
X124874024Y-119420000D01*
X125127113Y-119369658D01*
X125365518Y-119270907D01*
X125580077Y-119127544D01*
X125745000Y-118962621D01*
X125909923Y-119127544D01*
X126124482Y-119270907D01*
X126362887Y-119369658D01*
X126615976Y-119420000D01*
X126874024Y-119420000D01*
X127127113Y-119369658D01*
X127365518Y-119270907D01*
X127580077Y-119127544D01*
X127762544Y-118945077D01*
X127905907Y-118730518D01*
X128004658Y-118492113D01*
X128055000Y-118239024D01*
X128055000Y-117980976D01*
X128004658Y-117727887D01*
X127905907Y-117489482D01*
X127869504Y-117435000D01*
X138386928Y-117435000D01*
X138386928Y-118785000D01*
X138399188Y-118909482D01*
X138435498Y-119029180D01*
X138494463Y-119139494D01*
X138573815Y-119236185D01*
X138670506Y-119315537D01*
X138780820Y-119374502D01*
X138900518Y-119410812D01*
X139025000Y-119423072D01*
X140375000Y-119423072D01*
X140499482Y-119410812D01*
X140619180Y-119374502D01*
X140729494Y-119315537D01*
X140826185Y-119236185D01*
X140905537Y-119139494D01*
X140964502Y-119029180D01*
X141000812Y-118909482D01*
X141013072Y-118785000D01*
X141013072Y-117435000D01*
X159341928Y-117435000D01*
X159341928Y-118785000D01*
X159354188Y-118909482D01*
X159390498Y-119029180D01*
X159449463Y-119139494D01*
X159528815Y-119236185D01*
X159625506Y-119315537D01*
X159735820Y-119374502D01*
X159855518Y-119410812D01*
X159980000Y-119423072D01*
X161330000Y-119423072D01*
X161454482Y-119410812D01*
X161574180Y-119374502D01*
X161684494Y-119315537D01*
X161781185Y-119236185D01*
X161860537Y-119139494D01*
X161919502Y-119029180D01*
X161955812Y-118909482D01*
X161968072Y-118785000D01*
X161968072Y-118070000D01*
X170771928Y-118070000D01*
X170771928Y-119420000D01*
X170784188Y-119544482D01*
X170820498Y-119664180D01*
X170879463Y-119774494D01*
X170958815Y-119871185D01*
X171055506Y-119950537D01*
X171165820Y-120009502D01*
X171285518Y-120045812D01*
X171410000Y-120058072D01*
X172760000Y-120058072D01*
X172884482Y-120045812D01*
X173004180Y-120009502D01*
X173114494Y-119950537D01*
X173211185Y-119871185D01*
X173282487Y-119784303D01*
X173464482Y-119905907D01*
X173702887Y-120004658D01*
X173955976Y-120055000D01*
X174214024Y-120055000D01*
X174467113Y-120004658D01*
X174705518Y-119905907D01*
X174920077Y-119762544D01*
X175085000Y-119597621D01*
X175249923Y-119762544D01*
X175464482Y-119905907D01*
X175702887Y-120004658D01*
X175955976Y-120055000D01*
X176214024Y-120055000D01*
X176467113Y-120004658D01*
X176705518Y-119905907D01*
X176920077Y-119762544D01*
X177102544Y-119580077D01*
X177245907Y-119365518D01*
X177344658Y-119127113D01*
X177395000Y-118874024D01*
X177395000Y-118615976D01*
X177344658Y-118362887D01*
X177245907Y-118124482D01*
X177102544Y-117909923D01*
X176920077Y-117727456D01*
X176705518Y-117584093D01*
X176467113Y-117485342D01*
X176214024Y-117435000D01*
X175955976Y-117435000D01*
X175702887Y-117485342D01*
X175464482Y-117584093D01*
X175249923Y-117727456D01*
X175085000Y-117892379D01*
X174920077Y-117727456D01*
X174705518Y-117584093D01*
X174467113Y-117485342D01*
X174214024Y-117435000D01*
X173955976Y-117435000D01*
X173702887Y-117485342D01*
X173464482Y-117584093D01*
X173282487Y-117705697D01*
X173211185Y-117618815D01*
X173114494Y-117539463D01*
X173004180Y-117480498D01*
X172884482Y-117444188D01*
X172760000Y-117431928D01*
X171410000Y-117431928D01*
X171285518Y-117444188D01*
X171165820Y-117480498D01*
X171055506Y-117539463D01*
X170958815Y-117618815D01*
X170879463Y-117715506D01*
X170820498Y-117825820D01*
X170784188Y-117945518D01*
X170771928Y-118070000D01*
X161968072Y-118070000D01*
X161968072Y-117435000D01*
X161955812Y-117310518D01*
X161919502Y-117190820D01*
X161860537Y-117080506D01*
X161781185Y-116983815D01*
X161684494Y-116904463D01*
X161574180Y-116845498D01*
X161454482Y-116809188D01*
X161330000Y-116796928D01*
X159980000Y-116796928D01*
X159855518Y-116809188D01*
X159735820Y-116845498D01*
X159625506Y-116904463D01*
X159528815Y-116983815D01*
X159449463Y-117080506D01*
X159390498Y-117190820D01*
X159354188Y-117310518D01*
X159341928Y-117435000D01*
X141013072Y-117435000D01*
X141000812Y-117310518D01*
X140964502Y-117190820D01*
X140905537Y-117080506D01*
X140826185Y-116983815D01*
X140729494Y-116904463D01*
X140619180Y-116845498D01*
X140499482Y-116809188D01*
X140375000Y-116796928D01*
X139025000Y-116796928D01*
X138900518Y-116809188D01*
X138780820Y-116845498D01*
X138670506Y-116904463D01*
X138573815Y-116983815D01*
X138494463Y-117080506D01*
X138435498Y-117190820D01*
X138399188Y-117310518D01*
X138386928Y-117435000D01*
X127869504Y-117435000D01*
X127762544Y-117274923D01*
X127580077Y-117092456D01*
X127365518Y-116949093D01*
X127127113Y-116850342D01*
X126874024Y-116800000D01*
X126615976Y-116800000D01*
X126362887Y-116850342D01*
X126124482Y-116949093D01*
X125909923Y-117092456D01*
X125745000Y-117257379D01*
X125580077Y-117092456D01*
X125365518Y-116949093D01*
X125127113Y-116850342D01*
X124874024Y-116800000D01*
X124615976Y-116800000D01*
X124362887Y-116850342D01*
X124124482Y-116949093D01*
X123909923Y-117092456D01*
X123745000Y-117257379D01*
X123580077Y-117092456D01*
X123365518Y-116949093D01*
X123127113Y-116850342D01*
X122874024Y-116800000D01*
X122615976Y-116800000D01*
X122362887Y-116850342D01*
X122124482Y-116949093D01*
X121909923Y-117092456D01*
X121745000Y-117257379D01*
X121580077Y-117092456D01*
X121365518Y-116949093D01*
X121127113Y-116850342D01*
X120874024Y-116800000D01*
X120615976Y-116800000D01*
X120362887Y-116850342D01*
X120124482Y-116949093D01*
X119942487Y-117070697D01*
X119871185Y-116983815D01*
X119774494Y-116904463D01*
X119664180Y-116845498D01*
X119544482Y-116809188D01*
X119420000Y-116796928D01*
X118070000Y-116796928D01*
X117945518Y-116809188D01*
X117825820Y-116845498D01*
X117715506Y-116904463D01*
X117618815Y-116983815D01*
X117539463Y-117080506D01*
X117480498Y-117190820D01*
X117444188Y-117310518D01*
X117431928Y-117435000D01*
X97180000Y-117435000D01*
X97180000Y-113535976D01*
X102735000Y-113535976D01*
X102735000Y-113794024D01*
X102785342Y-114047113D01*
X102884093Y-114285518D01*
X103027456Y-114500077D01*
X103209923Y-114682544D01*
X103424482Y-114825907D01*
X103662887Y-114924658D01*
X103915976Y-114975000D01*
X104174024Y-114975000D01*
X104427113Y-114924658D01*
X104665518Y-114825907D01*
X104847513Y-114704303D01*
X104918815Y-114791185D01*
X105015506Y-114870537D01*
X105125820Y-114929502D01*
X105245518Y-114965812D01*
X105370000Y-114978072D01*
X106720000Y-114978072D01*
X106844482Y-114965812D01*
X106964180Y-114929502D01*
X107074494Y-114870537D01*
X107171185Y-114791185D01*
X107250537Y-114694494D01*
X107309502Y-114584180D01*
X107345812Y-114464482D01*
X107358072Y-114340000D01*
X107358072Y-112990000D01*
X107345812Y-112865518D01*
X107309502Y-112745820D01*
X107250537Y-112635506D01*
X107171185Y-112538815D01*
X107074494Y-112459463D01*
X106964180Y-112400498D01*
X106844482Y-112364188D01*
X106720000Y-112351928D01*
X105370000Y-112351928D01*
X105245518Y-112364188D01*
X105125820Y-112400498D01*
X105015506Y-112459463D01*
X104918815Y-112538815D01*
X104847513Y-112625697D01*
X104665518Y-112504093D01*
X104427113Y-112405342D01*
X104174024Y-112355000D01*
X103915976Y-112355000D01*
X103662887Y-112405342D01*
X103424482Y-112504093D01*
X103209923Y-112647456D01*
X103027456Y-112829923D01*
X102884093Y-113044482D01*
X102785342Y-113282887D01*
X102735000Y-113535976D01*
X97180000Y-113535976D01*
X97180000Y-107415329D01*
X149193475Y-107415329D01*
X149193475Y-107619207D01*
X149233249Y-107819166D01*
X149311270Y-108007524D01*
X149424538Y-108177042D01*
X149568701Y-108321205D01*
X149648884Y-108374782D01*
X149655996Y-108446986D01*
X149699453Y-108590247D01*
X149770025Y-108722277D01*
X149788058Y-108744250D01*
X149864998Y-108838002D01*
X149894002Y-108861805D01*
X150487197Y-109455000D01*
X150393061Y-109455000D01*
X150193102Y-109494774D01*
X150004744Y-109572795D01*
X149835226Y-109686063D01*
X149691063Y-109830226D01*
X149577795Y-109999744D01*
X149499774Y-110188102D01*
X149460000Y-110388061D01*
X149460000Y-110591939D01*
X149499774Y-110791898D01*
X149577795Y-110980256D01*
X149691063Y-111149774D01*
X149835226Y-111293937D01*
X150004744Y-111407205D01*
X150193102Y-111485226D01*
X150393061Y-111525000D01*
X150596939Y-111525000D01*
X150796898Y-111485226D01*
X150985256Y-111407205D01*
X151154774Y-111293937D01*
X151198711Y-111250000D01*
X151377065Y-111250000D01*
X151428169Y-111345608D01*
X151532394Y-111472606D01*
X151659392Y-111576831D01*
X151804284Y-111654278D01*
X151961500Y-111701969D01*
X152125000Y-111718072D01*
X152675000Y-111718072D01*
X152838500Y-111701969D01*
X152995716Y-111654278D01*
X153140608Y-111576831D01*
X153267606Y-111472606D01*
X153371831Y-111345608D01*
X153449278Y-111200716D01*
X153496969Y-111043500D01*
X153513072Y-110880000D01*
X153513072Y-110515010D01*
X158615670Y-110515010D01*
X158652992Y-110518686D01*
X158690314Y-110515010D01*
X158690325Y-110515010D01*
X158801978Y-110504013D01*
X158945239Y-110460556D01*
X159077268Y-110389984D01*
X159192993Y-110295011D01*
X159216796Y-110266007D01*
X159667803Y-109815000D01*
X213316928Y-109815000D01*
X213316928Y-111165000D01*
X213329188Y-111289482D01*
X213365498Y-111409180D01*
X213424463Y-111519494D01*
X213503815Y-111616185D01*
X213590697Y-111687487D01*
X213469093Y-111869482D01*
X213370342Y-112107887D01*
X213320000Y-112360976D01*
X213320000Y-112619024D01*
X213370342Y-112872113D01*
X213469093Y-113110518D01*
X213612456Y-113325077D01*
X213794923Y-113507544D01*
X214009482Y-113650907D01*
X214247887Y-113749658D01*
X214500976Y-113800000D01*
X214759024Y-113800000D01*
X215012113Y-113749658D01*
X215250518Y-113650907D01*
X215465077Y-113507544D01*
X215647544Y-113325077D01*
X215790907Y-113110518D01*
X215889658Y-112872113D01*
X215940000Y-112619024D01*
X215940000Y-112360976D01*
X215889658Y-112107887D01*
X215790907Y-111869482D01*
X215669303Y-111687487D01*
X215756185Y-111616185D01*
X215835537Y-111519494D01*
X215894502Y-111409180D01*
X215930812Y-111289482D01*
X215943072Y-111165000D01*
X215943072Y-109815000D01*
X215930812Y-109690518D01*
X215894502Y-109570820D01*
X215835537Y-109460506D01*
X215756185Y-109363815D01*
X215659494Y-109284463D01*
X215549180Y-109225498D01*
X215429482Y-109189188D01*
X215305000Y-109176928D01*
X213955000Y-109176928D01*
X213830518Y-109189188D01*
X213710820Y-109225498D01*
X213600506Y-109284463D01*
X213503815Y-109363815D01*
X213424463Y-109460506D01*
X213365498Y-109570820D01*
X213329188Y-109690518D01*
X213316928Y-109815000D01*
X159667803Y-109815000D01*
X162201007Y-107281798D01*
X162230000Y-107258004D01*
X162253794Y-107229011D01*
X162253798Y-107229007D01*
X162311810Y-107158318D01*
X162324973Y-107142279D01*
X162395545Y-107010250D01*
X162439002Y-106866989D01*
X162449999Y-106755336D01*
X162449999Y-106755327D01*
X162453675Y-106718004D01*
X162449999Y-106680681D01*
X162449999Y-96957321D01*
X162453675Y-96919998D01*
X162449999Y-96882676D01*
X162449999Y-96882666D01*
X162439002Y-96771013D01*
X162395545Y-96627752D01*
X162325000Y-96495774D01*
X162325000Y-96418061D01*
X162285226Y-96218102D01*
X162207205Y-96029744D01*
X162093937Y-95860226D01*
X161949774Y-95716063D01*
X161780256Y-95602795D01*
X161591898Y-95524774D01*
X161391939Y-95485000D01*
X161188061Y-95485000D01*
X160988102Y-95524774D01*
X160799744Y-95602795D01*
X160630226Y-95716063D01*
X160486063Y-95860226D01*
X160372795Y-96029744D01*
X160294774Y-96218102D01*
X160255000Y-96418061D01*
X160255000Y-96621939D01*
X160294774Y-96821898D01*
X160372795Y-97010256D01*
X160486063Y-97179774D01*
X160630226Y-97323937D01*
X160799744Y-97437205D01*
X160929999Y-97491159D01*
X160930000Y-105679424D01*
X160756939Y-105645000D01*
X160553061Y-105645000D01*
X160353102Y-105684774D01*
X160164744Y-105762795D01*
X159995226Y-105876063D01*
X159951289Y-105920000D01*
X158755585Y-105920000D01*
X158718252Y-105916323D01*
X158680919Y-105920000D01*
X158569266Y-105930997D01*
X158426005Y-105974454D01*
X158293976Y-106045026D01*
X158178251Y-106139999D01*
X158154452Y-106168998D01*
X157768451Y-106555000D01*
X156303072Y-106555000D01*
X156303072Y-106324999D01*
X156286008Y-106151745D01*
X156235472Y-105985149D01*
X156153405Y-105831613D01*
X156042962Y-105697037D01*
X156036406Y-105691657D01*
X156116185Y-105626184D01*
X156195537Y-105529493D01*
X156254502Y-105419179D01*
X156290812Y-105299481D01*
X156303072Y-105174999D01*
X156300000Y-104960749D01*
X156141250Y-104801999D01*
X155067000Y-104801999D01*
X155067000Y-104821999D01*
X154813000Y-104821999D01*
X154813000Y-104801999D01*
X154793000Y-104801999D01*
X154793000Y-104547999D01*
X154813000Y-104547999D01*
X154813000Y-103698749D01*
X154654250Y-103539999D01*
X154215000Y-103536927D01*
X154090518Y-103549187D01*
X153970820Y-103585497D01*
X153860506Y-103644462D01*
X153763815Y-103723814D01*
X153684463Y-103820505D01*
X153676700Y-103835029D01*
X153613405Y-103716614D01*
X153502962Y-103582038D01*
X153368386Y-103471595D01*
X153214850Y-103389528D01*
X153048254Y-103338992D01*
X152875000Y-103321928D01*
X152067873Y-103321928D01*
X152336729Y-103053072D01*
X152875000Y-103053072D01*
X153048254Y-103036008D01*
X153214850Y-102985472D01*
X153368386Y-102903405D01*
X153502962Y-102792962D01*
X153599770Y-102675000D01*
X153740230Y-102675000D01*
X153837038Y-102792962D01*
X153971614Y-102903405D01*
X154125150Y-102985472D01*
X154291746Y-103036008D01*
X154465000Y-103053072D01*
X155003271Y-103053072D01*
X155488361Y-103538162D01*
X155225750Y-103539999D01*
X155067000Y-103698749D01*
X155067000Y-104547999D01*
X156141250Y-104547999D01*
X156300000Y-104389249D01*
X156302282Y-104230120D01*
X156381014Y-104254003D01*
X156530000Y-104268677D01*
X156567333Y-104265000D01*
X156776289Y-104265000D01*
X156820226Y-104308937D01*
X156989744Y-104422205D01*
X157178102Y-104500226D01*
X157378061Y-104540000D01*
X157581939Y-104540000D01*
X157781898Y-104500226D01*
X157970256Y-104422205D01*
X158139774Y-104308937D01*
X158283937Y-104164774D01*
X158397205Y-103995256D01*
X158475226Y-103806898D01*
X158515000Y-103606939D01*
X158515000Y-103403061D01*
X158475226Y-103203102D01*
X158397205Y-103014744D01*
X158283937Y-102845226D01*
X158139774Y-102701063D01*
X157970256Y-102587795D01*
X157781898Y-102509774D01*
X157581939Y-102470000D01*
X157378061Y-102470000D01*
X157178102Y-102509774D01*
X156989744Y-102587795D01*
X156820226Y-102701063D01*
X156810545Y-102710744D01*
X156299641Y-102199839D01*
X156303072Y-102165000D01*
X156303072Y-101665000D01*
X156286008Y-101491746D01*
X156235472Y-101325150D01*
X156153405Y-101171614D01*
X156042962Y-101037038D01*
X156036406Y-101031658D01*
X156116185Y-100966185D01*
X156195537Y-100869494D01*
X156254502Y-100759180D01*
X156290812Y-100639482D01*
X156303072Y-100515000D01*
X156300000Y-100300750D01*
X156141250Y-100142000D01*
X155067000Y-100142000D01*
X155067000Y-100162000D01*
X154813000Y-100162000D01*
X154813000Y-100142000D01*
X154793000Y-100142000D01*
X154793000Y-99888000D01*
X154813000Y-99888000D01*
X154813000Y-99038750D01*
X155067000Y-99038750D01*
X155067000Y-99888000D01*
X156141250Y-99888000D01*
X156300000Y-99729250D01*
X156303072Y-99515000D01*
X156290812Y-99390518D01*
X156254502Y-99270820D01*
X156195537Y-99160506D01*
X156116185Y-99063815D01*
X156019494Y-98984463D01*
X155909180Y-98925498D01*
X155789482Y-98889188D01*
X155665000Y-98876928D01*
X155225750Y-98880000D01*
X155067000Y-99038750D01*
X154813000Y-99038750D01*
X154654250Y-98880000D01*
X154215000Y-98876928D01*
X154090518Y-98889188D01*
X153974257Y-98924455D01*
X153435000Y-98385199D01*
X153435000Y-98323061D01*
X153395226Y-98123102D01*
X153317205Y-97934744D01*
X153203937Y-97765226D01*
X153059774Y-97621063D01*
X152890256Y-97507795D01*
X152701898Y-97429774D01*
X152501939Y-97390000D01*
X152298061Y-97390000D01*
X152098102Y-97429774D01*
X151909744Y-97507795D01*
X151740226Y-97621063D01*
X151596063Y-97765226D01*
X151482795Y-97934744D01*
X151404774Y-98123102D01*
X151365000Y-98323061D01*
X151365000Y-98526939D01*
X151404774Y-98726898D01*
X151480762Y-98910348D01*
X151430820Y-98925498D01*
X151320506Y-98984463D01*
X151223815Y-99063815D01*
X151144463Y-99160506D01*
X151085498Y-99270820D01*
X151049188Y-99390518D01*
X151036928Y-99515000D01*
X151040000Y-99729250D01*
X151198750Y-99888000D01*
X152273000Y-99888000D01*
X152273000Y-99868000D01*
X152527000Y-99868000D01*
X152527000Y-99888000D01*
X152547000Y-99888000D01*
X152547000Y-100142000D01*
X152527000Y-100142000D01*
X152527000Y-100162000D01*
X152273000Y-100162000D01*
X152273000Y-100142000D01*
X151198750Y-100142000D01*
X151040000Y-100300750D01*
X151036928Y-100515000D01*
X151049188Y-100639482D01*
X151085498Y-100759180D01*
X151144463Y-100869494D01*
X151223815Y-100966185D01*
X151303594Y-101031658D01*
X151297038Y-101037038D01*
X151186595Y-101171614D01*
X151104528Y-101325150D01*
X151053992Y-101491746D01*
X151036928Y-101665000D01*
X151036928Y-101987321D01*
X150985256Y-101952795D01*
X150796898Y-101874774D01*
X150596939Y-101835000D01*
X150393061Y-101835000D01*
X150193102Y-101874774D01*
X150004744Y-101952795D01*
X149835226Y-102066063D01*
X149691063Y-102210226D01*
X149577795Y-102379744D01*
X149499774Y-102568102D01*
X149460000Y-102768061D01*
X149460000Y-102971939D01*
X149499774Y-103171898D01*
X149577795Y-103360256D01*
X149691063Y-103529774D01*
X149835226Y-103673937D01*
X150004744Y-103787205D01*
X150089953Y-103822500D01*
X150004744Y-103857795D01*
X149835226Y-103971063D01*
X149691063Y-104115226D01*
X149577795Y-104284744D01*
X149499774Y-104473102D01*
X149460000Y-104673061D01*
X149460000Y-104876939D01*
X149499774Y-105076898D01*
X149577795Y-105265256D01*
X149691063Y-105434774D01*
X149835226Y-105578937D01*
X150004744Y-105692205D01*
X150193102Y-105770226D01*
X150393061Y-105810000D01*
X150596939Y-105810000D01*
X150796898Y-105770226D01*
X150985256Y-105692205D01*
X151154774Y-105578937D01*
X151298937Y-105434774D01*
X151340043Y-105373255D01*
X151384817Y-105410000D01*
X151297038Y-105482038D01*
X151186595Y-105616614D01*
X151104528Y-105770150D01*
X151076261Y-105863335D01*
X151005998Y-105920998D01*
X150982200Y-105949996D01*
X150430100Y-106502097D01*
X150330414Y-106482268D01*
X150126536Y-106482268D01*
X149926577Y-106522042D01*
X149738219Y-106600063D01*
X149568701Y-106713331D01*
X149424538Y-106857494D01*
X149311270Y-107027012D01*
X149233249Y-107215370D01*
X149193475Y-107415329D01*
X97180000Y-107415329D01*
X97180000Y-97660000D01*
X102736928Y-97660000D01*
X102736928Y-100460000D01*
X102749188Y-100584482D01*
X102785498Y-100704180D01*
X102844463Y-100814494D01*
X102923815Y-100911185D01*
X103020506Y-100990537D01*
X103130820Y-101049502D01*
X103250518Y-101085812D01*
X103375000Y-101098072D01*
X106175000Y-101098072D01*
X106299482Y-101085812D01*
X106419180Y-101049502D01*
X106529494Y-100990537D01*
X106626185Y-100911185D01*
X106705537Y-100814494D01*
X106764502Y-100704180D01*
X106800812Y-100584482D01*
X106813072Y-100460000D01*
X106813072Y-97660000D01*
X106800812Y-97535518D01*
X106764502Y-97415820D01*
X106705537Y-97305506D01*
X106626185Y-97208815D01*
X106529494Y-97129463D01*
X106419180Y-97070498D01*
X106299482Y-97034188D01*
X106175000Y-97021928D01*
X103375000Y-97021928D01*
X103250518Y-97034188D01*
X103130820Y-97070498D01*
X103020506Y-97129463D01*
X102923815Y-97208815D01*
X102844463Y-97305506D01*
X102785498Y-97415820D01*
X102749188Y-97535518D01*
X102736928Y-97660000D01*
X97180000Y-97660000D01*
X97180000Y-93859570D01*
X102740000Y-93859570D01*
X102740000Y-94260430D01*
X102818204Y-94653587D01*
X102971607Y-95023934D01*
X103194313Y-95357237D01*
X103477763Y-95640687D01*
X103811066Y-95863393D01*
X104181413Y-96016796D01*
X104574570Y-96095000D01*
X104975430Y-96095000D01*
X105368587Y-96016796D01*
X105738934Y-95863393D01*
X106072237Y-95640687D01*
X106355687Y-95357237D01*
X106495453Y-95148061D01*
X167240000Y-95148061D01*
X167240000Y-95351939D01*
X167279774Y-95551898D01*
X167357795Y-95740256D01*
X167471063Y-95909774D01*
X167518428Y-95957139D01*
X167525997Y-96033985D01*
X167553759Y-96125506D01*
X167569454Y-96177246D01*
X167640026Y-96309276D01*
X167677976Y-96355518D01*
X167734999Y-96425001D01*
X167764003Y-96448804D01*
X169637698Y-98322500D01*
X169033998Y-98926201D01*
X169005000Y-98949999D01*
X168981202Y-98978997D01*
X168981201Y-98978998D01*
X168910026Y-99065724D01*
X168839454Y-99197754D01*
X168795998Y-99341015D01*
X168781324Y-99490000D01*
X168785001Y-99527332D01*
X168785000Y-104197677D01*
X168781324Y-104235000D01*
X168785000Y-104272322D01*
X168785000Y-104272332D01*
X168795997Y-104383985D01*
X168835013Y-104512605D01*
X168839454Y-104527246D01*
X168852031Y-104550776D01*
X168765256Y-104492795D01*
X168576898Y-104414774D01*
X168376939Y-104375000D01*
X168173061Y-104375000D01*
X167973102Y-104414774D01*
X167784744Y-104492795D01*
X167615226Y-104606063D01*
X167471063Y-104750226D01*
X167357795Y-104919744D01*
X167279774Y-105108102D01*
X167240000Y-105308061D01*
X167240000Y-105511939D01*
X167279774Y-105711898D01*
X167357795Y-105900256D01*
X167471063Y-106069774D01*
X167615226Y-106213937D01*
X167784744Y-106327205D01*
X167973102Y-106405226D01*
X168173061Y-106445000D01*
X168376939Y-106445000D01*
X168576898Y-106405226D01*
X168765256Y-106327205D01*
X168934774Y-106213937D01*
X168978711Y-106170000D01*
X169302678Y-106170000D01*
X169340000Y-106173676D01*
X169377322Y-106170000D01*
X169377333Y-106170000D01*
X169488986Y-106159003D01*
X169632247Y-106115546D01*
X169764276Y-106044974D01*
X169880001Y-105950001D01*
X169903803Y-105920998D01*
X170270492Y-105554310D01*
X170377518Y-105564851D01*
X170377527Y-105564851D01*
X170414850Y-105568527D01*
X170452173Y-105564851D01*
X170721928Y-105564851D01*
X170765865Y-105608788D01*
X170935383Y-105722056D01*
X171123741Y-105800077D01*
X171323700Y-105839851D01*
X171527578Y-105839851D01*
X171727537Y-105800077D01*
X171915895Y-105722056D01*
X172085413Y-105608788D01*
X172229576Y-105464625D01*
X172334188Y-105308061D01*
X174225000Y-105308061D01*
X174225000Y-105511939D01*
X174264774Y-105711898D01*
X174342795Y-105900256D01*
X174456063Y-106069774D01*
X174600226Y-106213937D01*
X174769744Y-106327205D01*
X174958102Y-106405226D01*
X175158061Y-106445000D01*
X175361939Y-106445000D01*
X175515804Y-106414395D01*
X175384002Y-106546197D01*
X175354999Y-106569999D01*
X175299871Y-106637174D01*
X175260026Y-106685724D01*
X175202150Y-106794002D01*
X175189454Y-106817754D01*
X175145997Y-106961015D01*
X175135000Y-107072668D01*
X175135000Y-107072678D01*
X175131324Y-107110000D01*
X175135000Y-107147322D01*
X175135000Y-107246289D01*
X175091063Y-107290226D01*
X174977795Y-107459744D01*
X174899774Y-107648102D01*
X174860000Y-107848061D01*
X174860000Y-108051939D01*
X174899774Y-108251898D01*
X174977795Y-108440256D01*
X175091063Y-108609774D01*
X175235226Y-108753937D01*
X175404744Y-108867205D01*
X175593102Y-108945226D01*
X175793061Y-108985000D01*
X175996939Y-108985000D01*
X176196898Y-108945226D01*
X176385256Y-108867205D01*
X176554774Y-108753937D01*
X176698937Y-108609774D01*
X176812205Y-108440256D01*
X176890226Y-108251898D01*
X176930000Y-108051939D01*
X176930000Y-107848061D01*
X176890226Y-107648102D01*
X176863289Y-107583072D01*
X177285001Y-107583072D01*
X177458255Y-107566008D01*
X177624851Y-107515472D01*
X177778387Y-107433405D01*
X177912962Y-107322962D01*
X178023405Y-107188387D01*
X178105472Y-107034851D01*
X178156008Y-106868255D01*
X178173072Y-106695001D01*
X178173072Y-105394999D01*
X178696928Y-105394999D01*
X178696928Y-106695001D01*
X178713992Y-106868255D01*
X178764528Y-107034851D01*
X178846595Y-107188387D01*
X178957038Y-107322962D01*
X179091613Y-107433405D01*
X179245149Y-107515472D01*
X179411745Y-107566008D01*
X179584999Y-107583072D01*
X180235001Y-107583072D01*
X180408255Y-107566008D01*
X180574851Y-107515472D01*
X180728387Y-107433405D01*
X180862962Y-107322962D01*
X180973405Y-107188387D01*
X181055472Y-107034851D01*
X181106008Y-106868255D01*
X181123072Y-106695001D01*
X181123072Y-105906729D01*
X181890275Y-105139527D01*
X181911898Y-105135226D01*
X182100256Y-105057205D01*
X182269774Y-104943937D01*
X182413937Y-104799774D01*
X182527205Y-104630256D01*
X182605226Y-104441898D01*
X182645000Y-104241939D01*
X182645000Y-104038061D01*
X182605226Y-103838102D01*
X182527205Y-103649744D01*
X182413937Y-103480226D01*
X182269774Y-103336063D01*
X182100256Y-103222795D01*
X181911898Y-103144774D01*
X181711939Y-103105000D01*
X181508061Y-103105000D01*
X181308102Y-103144774D01*
X181119744Y-103222795D01*
X180950226Y-103336063D01*
X180806063Y-103480226D01*
X180692795Y-103649744D01*
X180614774Y-103838102D01*
X180575000Y-104038061D01*
X180575000Y-104241939D01*
X180585495Y-104294703D01*
X180360873Y-104519325D01*
X180235001Y-104506928D01*
X179584999Y-104506928D01*
X179411745Y-104523992D01*
X179245149Y-104574528D01*
X179091613Y-104656595D01*
X178957038Y-104767038D01*
X178846595Y-104901613D01*
X178764528Y-105055149D01*
X178713992Y-105221745D01*
X178696928Y-105394999D01*
X178173072Y-105394999D01*
X178156008Y-105221745D01*
X178105472Y-105055149D01*
X178023405Y-104901613D01*
X177912962Y-104767038D01*
X177778387Y-104656595D01*
X177624851Y-104574528D01*
X177458255Y-104523992D01*
X177285001Y-104506928D01*
X176634999Y-104506928D01*
X176461745Y-104523992D01*
X176295149Y-104574528D01*
X176153951Y-104650000D01*
X175963711Y-104650000D01*
X175919774Y-104606063D01*
X175750256Y-104492795D01*
X175561898Y-104414774D01*
X175361939Y-104375000D01*
X175158061Y-104375000D01*
X174958102Y-104414774D01*
X174769744Y-104492795D01*
X174600226Y-104606063D01*
X174456063Y-104750226D01*
X174342795Y-104919744D01*
X174264774Y-105108102D01*
X174225000Y-105308061D01*
X172334188Y-105308061D01*
X172342844Y-105295107D01*
X172420865Y-105106749D01*
X172460639Y-104906790D01*
X172460639Y-104702912D01*
X172420865Y-104502953D01*
X172342844Y-104314595D01*
X172229576Y-104145077D01*
X172085413Y-104000914D01*
X171915895Y-103887646D01*
X171727537Y-103809625D01*
X171527578Y-103769851D01*
X171323700Y-103769851D01*
X171123741Y-103809625D01*
X170985950Y-103866700D01*
X170956250Y-103837000D01*
X170867665Y-103837000D01*
X170800895Y-103782203D01*
X170677510Y-103716253D01*
X170543631Y-103675641D01*
X170404400Y-103661928D01*
X170305000Y-103661928D01*
X170305000Y-103563000D01*
X170307000Y-103563000D01*
X170307000Y-103583000D01*
X170956250Y-103583000D01*
X171115000Y-103424250D01*
X171104173Y-103307548D01*
X171066340Y-103188323D01*
X171005974Y-103078770D01*
X170925395Y-102983098D01*
X170827700Y-102904985D01*
X170716642Y-102847432D01*
X170596491Y-102812652D01*
X170471863Y-102801980D01*
X170465750Y-102805000D01*
X170307002Y-102963748D01*
X170307002Y-102805000D01*
X170305000Y-102805000D01*
X170305000Y-99804801D01*
X170815000Y-99294802D01*
X171091205Y-99571008D01*
X171114999Y-99600001D01*
X171143992Y-99623795D01*
X171143996Y-99623799D01*
X171200568Y-99670226D01*
X171230724Y-99694974D01*
X171285590Y-99724301D01*
X171425226Y-99863937D01*
X171594744Y-99977205D01*
X171783102Y-100055226D01*
X171983061Y-100095000D01*
X172186939Y-100095000D01*
X172386898Y-100055226D01*
X172575256Y-99977205D01*
X172744774Y-99863937D01*
X172888937Y-99719774D01*
X173002205Y-99550256D01*
X173080226Y-99361898D01*
X173120000Y-99161939D01*
X173120000Y-98958061D01*
X174225000Y-98958061D01*
X174225000Y-99161939D01*
X174264774Y-99361898D01*
X174342795Y-99550256D01*
X174456063Y-99719774D01*
X174600226Y-99863937D01*
X174769744Y-99977205D01*
X174958102Y-100055226D01*
X175158061Y-100095000D01*
X175361939Y-100095000D01*
X175528039Y-100061961D01*
X175495000Y-100228061D01*
X175495000Y-100431939D01*
X175534774Y-100631898D01*
X175612795Y-100820256D01*
X175726063Y-100989774D01*
X175870226Y-101133937D01*
X176039744Y-101247205D01*
X176228102Y-101325226D01*
X176428061Y-101365000D01*
X176631939Y-101365000D01*
X176831898Y-101325226D01*
X177020256Y-101247205D01*
X177189774Y-101133937D01*
X177333937Y-100989774D01*
X177447205Y-100820256D01*
X177525226Y-100631898D01*
X177540299Y-100556120D01*
X177624851Y-100530472D01*
X177778387Y-100448405D01*
X177912962Y-100337962D01*
X178023405Y-100203387D01*
X178105472Y-100049851D01*
X178156008Y-99883255D01*
X178173072Y-99710001D01*
X178173072Y-99428176D01*
X178333061Y-99460000D01*
X178536939Y-99460000D01*
X178696928Y-99428176D01*
X178696928Y-99710001D01*
X178713992Y-99883255D01*
X178764528Y-100049851D01*
X178846595Y-100203387D01*
X178957038Y-100337962D01*
X179091613Y-100448405D01*
X179245149Y-100530472D01*
X179411745Y-100581008D01*
X179584999Y-100598072D01*
X180235001Y-100598072D01*
X180408255Y-100581008D01*
X180574851Y-100530472D01*
X180728387Y-100448405D01*
X180862962Y-100337962D01*
X180973405Y-100203387D01*
X181055472Y-100049851D01*
X181106008Y-99883255D01*
X181123072Y-99710001D01*
X181123072Y-98409999D01*
X181106008Y-98236745D01*
X181055472Y-98070149D01*
X180973405Y-97916613D01*
X180862962Y-97782038D01*
X180728387Y-97671595D01*
X180574851Y-97589528D01*
X180408255Y-97538992D01*
X180235001Y-97521928D01*
X179584999Y-97521928D01*
X179411745Y-97538992D01*
X179245149Y-97589528D01*
X179126603Y-97652892D01*
X179094774Y-97621063D01*
X178925256Y-97507795D01*
X178736898Y-97429774D01*
X178536939Y-97390000D01*
X178333061Y-97390000D01*
X178133102Y-97429774D01*
X177944744Y-97507795D01*
X177775226Y-97621063D01*
X177743397Y-97652892D01*
X177624851Y-97589528D01*
X177458255Y-97538992D01*
X177285001Y-97521928D01*
X176634999Y-97521928D01*
X176461745Y-97538992D01*
X176295149Y-97589528D01*
X176141613Y-97671595D01*
X176007038Y-97782038D01*
X175896595Y-97916613D01*
X175814528Y-98070149D01*
X175785373Y-98166260D01*
X175750256Y-98142795D01*
X175561898Y-98064774D01*
X175361939Y-98025000D01*
X175158061Y-98025000D01*
X174958102Y-98064774D01*
X174769744Y-98142795D01*
X174600226Y-98256063D01*
X174456063Y-98400226D01*
X174342795Y-98569744D01*
X174264774Y-98758102D01*
X174225000Y-98958061D01*
X173120000Y-98958061D01*
X173080226Y-98758102D01*
X173002205Y-98569744D01*
X172888937Y-98400226D01*
X172744774Y-98256063D01*
X172575256Y-98142795D01*
X172386898Y-98064774D01*
X172186939Y-98025000D01*
X171983061Y-98025000D01*
X171783102Y-98064774D01*
X171753072Y-98077213D01*
X171753072Y-98025600D01*
X171739359Y-97886369D01*
X171720050Y-97822716D01*
X171739173Y-97762452D01*
X171750000Y-97645750D01*
X171591250Y-97487000D01*
X171502665Y-97487000D01*
X171435895Y-97432203D01*
X171312510Y-97366253D01*
X171178631Y-97325641D01*
X171039400Y-97311928D01*
X170776730Y-97311928D01*
X170688000Y-97223198D01*
X170688000Y-96613750D01*
X170942000Y-96613750D01*
X170942000Y-97233000D01*
X171591250Y-97233000D01*
X171750000Y-97074250D01*
X171739173Y-96957548D01*
X171701340Y-96838323D01*
X171640974Y-96728770D01*
X171560395Y-96633098D01*
X171462700Y-96554985D01*
X171351642Y-96497432D01*
X171291422Y-96480000D01*
X186011928Y-96480000D01*
X186011928Y-97830000D01*
X186024188Y-97954482D01*
X186060498Y-98074180D01*
X186119463Y-98184494D01*
X186198815Y-98281185D01*
X186285697Y-98352487D01*
X186164093Y-98534482D01*
X186065342Y-98772887D01*
X186015000Y-99025976D01*
X186015000Y-99284024D01*
X186065342Y-99537113D01*
X186164093Y-99775518D01*
X186307456Y-99990077D01*
X186472379Y-100155000D01*
X186307456Y-100319923D01*
X186164093Y-100534482D01*
X186065342Y-100772887D01*
X186015000Y-101025976D01*
X186015000Y-101284024D01*
X186065342Y-101537113D01*
X186164093Y-101775518D01*
X186307456Y-101990077D01*
X186489923Y-102172544D01*
X186704482Y-102315907D01*
X186942887Y-102414658D01*
X187195976Y-102465000D01*
X187454024Y-102465000D01*
X187707113Y-102414658D01*
X187945518Y-102315907D01*
X188160077Y-102172544D01*
X188227621Y-102105000D01*
X212591928Y-102105000D01*
X212591928Y-104905000D01*
X212604188Y-105029482D01*
X212640498Y-105149180D01*
X212699463Y-105259494D01*
X212778815Y-105356185D01*
X212875506Y-105435537D01*
X212985820Y-105494502D01*
X213105518Y-105530812D01*
X213230000Y-105543072D01*
X216030000Y-105543072D01*
X216154482Y-105530812D01*
X216274180Y-105494502D01*
X216384494Y-105435537D01*
X216481185Y-105356185D01*
X216560537Y-105259494D01*
X216619502Y-105149180D01*
X216655812Y-105029482D01*
X216668072Y-104905000D01*
X216668072Y-102105000D01*
X216655812Y-101980518D01*
X216619502Y-101860820D01*
X216560537Y-101750506D01*
X216481185Y-101653815D01*
X216384494Y-101574463D01*
X216274180Y-101515498D01*
X216154482Y-101479188D01*
X216030000Y-101466928D01*
X213230000Y-101466928D01*
X213105518Y-101479188D01*
X212985820Y-101515498D01*
X212875506Y-101574463D01*
X212778815Y-101653815D01*
X212699463Y-101750506D01*
X212640498Y-101860820D01*
X212604188Y-101980518D01*
X212591928Y-102105000D01*
X188227621Y-102105000D01*
X188342544Y-101990077D01*
X188485907Y-101775518D01*
X188584658Y-101537113D01*
X188635000Y-101284024D01*
X188635000Y-101025976D01*
X188584658Y-100772887D01*
X188485907Y-100534482D01*
X188342544Y-100319923D01*
X188177621Y-100155000D01*
X188342544Y-99990077D01*
X188485907Y-99775518D01*
X188584658Y-99537113D01*
X188635000Y-99284024D01*
X188635000Y-99025976D01*
X188584658Y-98772887D01*
X188485907Y-98534482D01*
X188364303Y-98352487D01*
X188422690Y-98304570D01*
X212595000Y-98304570D01*
X212595000Y-98705430D01*
X212673204Y-99098587D01*
X212826607Y-99468934D01*
X213049313Y-99802237D01*
X213332763Y-100085687D01*
X213666066Y-100308393D01*
X214036413Y-100461796D01*
X214429570Y-100540000D01*
X214830430Y-100540000D01*
X215223587Y-100461796D01*
X215593934Y-100308393D01*
X215927237Y-100085687D01*
X216210687Y-99802237D01*
X216433393Y-99468934D01*
X216586796Y-99098587D01*
X216665000Y-98705430D01*
X216665000Y-98304570D01*
X216586796Y-97911413D01*
X216433393Y-97541066D01*
X216210687Y-97207763D01*
X215927237Y-96924313D01*
X215593934Y-96701607D01*
X215223587Y-96548204D01*
X214830430Y-96470000D01*
X214429570Y-96470000D01*
X214036413Y-96548204D01*
X213666066Y-96701607D01*
X213332763Y-96924313D01*
X213049313Y-97207763D01*
X212826607Y-97541066D01*
X212673204Y-97911413D01*
X212595000Y-98304570D01*
X188422690Y-98304570D01*
X188451185Y-98281185D01*
X188530537Y-98184494D01*
X188589502Y-98074180D01*
X188625812Y-97954482D01*
X188638072Y-97830000D01*
X188638072Y-96480000D01*
X188625812Y-96355518D01*
X188589502Y-96235820D01*
X188530537Y-96125506D01*
X188451185Y-96028815D01*
X188354494Y-95949463D01*
X188244180Y-95890498D01*
X188124482Y-95854188D01*
X188000000Y-95841928D01*
X186650000Y-95841928D01*
X186525518Y-95854188D01*
X186405820Y-95890498D01*
X186295506Y-95949463D01*
X186198815Y-96028815D01*
X186119463Y-96125506D01*
X186060498Y-96235820D01*
X186024188Y-96355518D01*
X186011928Y-96480000D01*
X171291422Y-96480000D01*
X171231491Y-96462652D01*
X171106863Y-96451980D01*
X171100750Y-96455000D01*
X170942000Y-96613750D01*
X170688000Y-96613750D01*
X170529250Y-96455000D01*
X170523137Y-96451980D01*
X170398509Y-96462652D01*
X170278358Y-96497432D01*
X170167300Y-96554985D01*
X170085328Y-96620526D01*
X169195969Y-95731168D01*
X169270226Y-95551898D01*
X169310000Y-95351939D01*
X169310000Y-95148061D01*
X169270226Y-94948102D01*
X169192205Y-94759744D01*
X169078937Y-94590226D01*
X168934774Y-94446063D01*
X168765256Y-94332795D01*
X168576898Y-94254774D01*
X168376939Y-94215000D01*
X168173061Y-94215000D01*
X167973102Y-94254774D01*
X167784744Y-94332795D01*
X167615226Y-94446063D01*
X167471063Y-94590226D01*
X167357795Y-94759744D01*
X167279774Y-94948102D01*
X167240000Y-95148061D01*
X106495453Y-95148061D01*
X106578393Y-95023934D01*
X106731796Y-94653587D01*
X106810000Y-94260430D01*
X106810000Y-93859570D01*
X106731796Y-93466413D01*
X106578393Y-93096066D01*
X106355687Y-92762763D01*
X106072237Y-92479313D01*
X105738934Y-92256607D01*
X105456747Y-92139721D01*
X211860000Y-92139721D01*
X211860000Y-92560279D01*
X211942047Y-92972756D01*
X212102988Y-93361302D01*
X212336637Y-93710983D01*
X212634017Y-94008363D01*
X212983698Y-94242012D01*
X213372244Y-94402953D01*
X213784721Y-94485000D01*
X214205279Y-94485000D01*
X214617756Y-94402953D01*
X215006302Y-94242012D01*
X215355983Y-94008363D01*
X215653363Y-93710983D01*
X215887012Y-93361302D01*
X216047953Y-92972756D01*
X216130000Y-92560279D01*
X216130000Y-92139721D01*
X216047953Y-91727244D01*
X215887012Y-91338698D01*
X215653363Y-90989017D01*
X215355983Y-90691637D01*
X215006302Y-90457988D01*
X214617756Y-90297047D01*
X214205279Y-90215000D01*
X213784721Y-90215000D01*
X213372244Y-90297047D01*
X212983698Y-90457988D01*
X212634017Y-90691637D01*
X212336637Y-90989017D01*
X212102988Y-91338698D01*
X211942047Y-91727244D01*
X211860000Y-92139721D01*
X105456747Y-92139721D01*
X105368587Y-92103204D01*
X104975430Y-92025000D01*
X104574570Y-92025000D01*
X104181413Y-92103204D01*
X103811066Y-92256607D01*
X103477763Y-92479313D01*
X103194313Y-92762763D01*
X102971607Y-93096066D01*
X102818204Y-93466413D01*
X102740000Y-93859570D01*
X97180000Y-93859570D01*
X97180000Y-87694721D01*
X102005000Y-87694721D01*
X102005000Y-88115279D01*
X102087047Y-88527756D01*
X102247988Y-88916302D01*
X102481637Y-89265983D01*
X102779017Y-89563363D01*
X103128698Y-89797012D01*
X103517244Y-89957953D01*
X103929721Y-90040000D01*
X104350279Y-90040000D01*
X104762756Y-89957953D01*
X105151302Y-89797012D01*
X105500983Y-89563363D01*
X105798363Y-89265983D01*
X106032012Y-88916302D01*
X106080989Y-88798061D01*
X177400000Y-88798061D01*
X177400000Y-89001939D01*
X177439774Y-89201898D01*
X177517795Y-89390256D01*
X177631063Y-89559774D01*
X177775226Y-89703937D01*
X177944744Y-89817205D01*
X178133102Y-89895226D01*
X178333061Y-89935000D01*
X178536939Y-89935000D01*
X178736898Y-89895226D01*
X178925256Y-89817205D01*
X179094774Y-89703937D01*
X179238937Y-89559774D01*
X179352205Y-89390256D01*
X179430226Y-89201898D01*
X179470000Y-89001939D01*
X179470000Y-88798061D01*
X179463487Y-88765316D01*
X180379802Y-87849001D01*
X180441939Y-87849001D01*
X180641898Y-87809227D01*
X180830256Y-87731206D01*
X180999774Y-87617938D01*
X181143937Y-87473775D01*
X181257205Y-87304257D01*
X181335226Y-87115899D01*
X181375000Y-86915940D01*
X181375000Y-86712062D01*
X181335226Y-86512103D01*
X181257205Y-86323745D01*
X181143937Y-86154227D01*
X180999774Y-86010064D01*
X180830256Y-85896796D01*
X180641898Y-85818775D01*
X180441939Y-85779001D01*
X180238061Y-85779001D01*
X180038102Y-85818775D01*
X179849744Y-85896796D01*
X179680226Y-86010064D01*
X179536063Y-86154227D01*
X179422795Y-86323745D01*
X179344774Y-86512103D01*
X179305000Y-86712062D01*
X179305000Y-86774199D01*
X178184687Y-87894513D01*
X178133102Y-87904774D01*
X177944744Y-87982795D01*
X177775226Y-88096063D01*
X177631063Y-88240226D01*
X177517795Y-88409744D01*
X177439774Y-88598102D01*
X177400000Y-88798061D01*
X106080989Y-88798061D01*
X106192953Y-88527756D01*
X106275000Y-88115279D01*
X106275000Y-87694721D01*
X106192953Y-87282244D01*
X106032012Y-86893698D01*
X105798363Y-86544017D01*
X105500983Y-86246637D01*
X105151302Y-86012988D01*
X104762756Y-85852047D01*
X104350279Y-85770000D01*
X103929721Y-85770000D01*
X103517244Y-85852047D01*
X103128698Y-86012988D01*
X102779017Y-86246637D01*
X102481637Y-86544017D01*
X102247988Y-86893698D01*
X102087047Y-87282244D01*
X102005000Y-87694721D01*
X97180000Y-87694721D01*
X97180000Y-80904495D01*
X212010000Y-80904495D01*
X212010000Y-81295505D01*
X212086282Y-81679003D01*
X212235915Y-82040250D01*
X212453149Y-82365364D01*
X212729636Y-82641851D01*
X213054750Y-82859085D01*
X213415997Y-83008718D01*
X213799495Y-83085000D01*
X214190505Y-83085000D01*
X214574003Y-83008718D01*
X214935250Y-82859085D01*
X215260364Y-82641851D01*
X215536851Y-82365364D01*
X215754085Y-82040250D01*
X215903718Y-81679003D01*
X215980000Y-81295505D01*
X215980000Y-80904495D01*
X215903718Y-80520997D01*
X215754085Y-80159750D01*
X215536851Y-79834636D01*
X215260364Y-79558149D01*
X214935250Y-79340915D01*
X214574003Y-79191282D01*
X214190505Y-79115000D01*
X213799495Y-79115000D01*
X213415997Y-79191282D01*
X213054750Y-79340915D01*
X212729636Y-79558149D01*
X212453149Y-79834636D01*
X212235915Y-80159750D01*
X212086282Y-80520997D01*
X212010000Y-80904495D01*
X97180000Y-80904495D01*
X97180000Y-76459495D01*
X102155000Y-76459495D01*
X102155000Y-76850505D01*
X102231282Y-77234003D01*
X102380915Y-77595250D01*
X102598149Y-77920364D01*
X102874636Y-78196851D01*
X103199750Y-78414085D01*
X103560997Y-78563718D01*
X103944495Y-78640000D01*
X104335505Y-78640000D01*
X104719003Y-78563718D01*
X105080250Y-78414085D01*
X105405364Y-78196851D01*
X105681851Y-77920364D01*
X105899085Y-77595250D01*
X106048718Y-77234003D01*
X106125000Y-76850505D01*
X106125000Y-76459495D01*
X106048718Y-76075997D01*
X105899085Y-75714750D01*
X105681851Y-75389636D01*
X105405364Y-75113149D01*
X105080250Y-74895915D01*
X104719003Y-74746282D01*
X104335505Y-74670000D01*
X103944495Y-74670000D01*
X103560997Y-74746282D01*
X103199750Y-74895915D01*
X102874636Y-75113149D01*
X102598149Y-75389636D01*
X102380915Y-75714750D01*
X102231282Y-76075997D01*
X102155000Y-76459495D01*
X97180000Y-76459495D01*
X97180000Y-70383061D01*
X131680000Y-70383061D01*
X131680000Y-70586939D01*
X131719774Y-70786898D01*
X131797795Y-70975256D01*
X131830000Y-71023454D01*
X131830001Y-76791521D01*
X131825719Y-76835000D01*
X131842805Y-77008490D01*
X131893412Y-77175313D01*
X131975590Y-77329059D01*
X132058468Y-77430046D01*
X132058471Y-77430049D01*
X132086184Y-77463817D01*
X132119951Y-77491529D01*
X132978465Y-78350044D01*
X132989774Y-78406898D01*
X133067795Y-78595256D01*
X133181063Y-78764774D01*
X133325226Y-78908937D01*
X133494744Y-79022205D01*
X133683102Y-79100226D01*
X133883061Y-79140000D01*
X134086939Y-79140000D01*
X134286898Y-79100226D01*
X134475256Y-79022205D01*
X134644774Y-78908937D01*
X134788937Y-78764774D01*
X134902205Y-78595256D01*
X134980226Y-78406898D01*
X135020000Y-78206939D01*
X135020000Y-78003061D01*
X134980226Y-77803102D01*
X134902205Y-77614744D01*
X134788937Y-77445226D01*
X134644774Y-77301063D01*
X134475256Y-77187795D01*
X134286898Y-77109774D01*
X134230044Y-77098465D01*
X133600000Y-76468422D01*
X133600000Y-74193061D01*
X185655000Y-74193061D01*
X185655000Y-74396939D01*
X185694774Y-74596898D01*
X185772795Y-74785256D01*
X185886063Y-74954774D01*
X186030226Y-75098937D01*
X186199744Y-75212205D01*
X186388102Y-75290226D01*
X186588061Y-75330000D01*
X186791939Y-75330000D01*
X186991898Y-75290226D01*
X187180256Y-75212205D01*
X187349774Y-75098937D01*
X187493937Y-74954774D01*
X187607205Y-74785256D01*
X187685226Y-74596898D01*
X187725000Y-74396939D01*
X187725000Y-74193061D01*
X187685226Y-73993102D01*
X187607205Y-73804744D01*
X187493937Y-73635226D01*
X187450000Y-73591289D01*
X187450000Y-69639721D01*
X211860000Y-69639721D01*
X211860000Y-70060279D01*
X211942047Y-70472756D01*
X212102988Y-70861302D01*
X212336637Y-71210983D01*
X212634017Y-71508363D01*
X212983698Y-71742012D01*
X213372244Y-71902953D01*
X213784721Y-71985000D01*
X214205279Y-71985000D01*
X214617756Y-71902953D01*
X215006302Y-71742012D01*
X215355983Y-71508363D01*
X215653363Y-71210983D01*
X215887012Y-70861302D01*
X216047953Y-70472756D01*
X216130000Y-70060279D01*
X216130000Y-69639721D01*
X216047953Y-69227244D01*
X215887012Y-68838698D01*
X215653363Y-68489017D01*
X215355983Y-68191637D01*
X215006302Y-67957988D01*
X214617756Y-67797047D01*
X214205279Y-67715000D01*
X213784721Y-67715000D01*
X213372244Y-67797047D01*
X212983698Y-67957988D01*
X212634017Y-68191637D01*
X212336637Y-68489017D01*
X212102988Y-68838698D01*
X211942047Y-69227244D01*
X211860000Y-69639721D01*
X187450000Y-69639721D01*
X187450000Y-69529801D01*
X188634802Y-68345000D01*
X188696939Y-68345000D01*
X188896898Y-68305226D01*
X189085256Y-68227205D01*
X189254774Y-68113937D01*
X189398937Y-67969774D01*
X189512205Y-67800256D01*
X189590226Y-67611898D01*
X189630000Y-67411939D01*
X189630000Y-67208061D01*
X189590226Y-67008102D01*
X189512205Y-66819744D01*
X189398937Y-66650226D01*
X189254774Y-66506063D01*
X189085256Y-66392795D01*
X188896898Y-66314774D01*
X188696939Y-66275000D01*
X188493061Y-66275000D01*
X188293102Y-66314774D01*
X188104744Y-66392795D01*
X187935226Y-66506063D01*
X187791063Y-66650226D01*
X187677795Y-66819744D01*
X187599774Y-67008102D01*
X187560000Y-67208061D01*
X187560000Y-67270198D01*
X186179003Y-68651196D01*
X186149999Y-68674999D01*
X186094871Y-68742174D01*
X186055026Y-68790724D01*
X185984455Y-68922753D01*
X185984454Y-68922754D01*
X185940997Y-69066015D01*
X185930000Y-69177668D01*
X185930000Y-69177678D01*
X185926324Y-69215000D01*
X185930000Y-69252323D01*
X185930001Y-73591288D01*
X185886063Y-73635226D01*
X185772795Y-73804744D01*
X185694774Y-73993102D01*
X185655000Y-74193061D01*
X133600000Y-74193061D01*
X133600000Y-72288061D01*
X179305000Y-72288061D01*
X179305000Y-72491939D01*
X179344774Y-72691898D01*
X179422795Y-72880256D01*
X179536063Y-73049774D01*
X179680226Y-73193937D01*
X179849744Y-73307205D01*
X180038102Y-73385226D01*
X180238061Y-73425000D01*
X180441939Y-73425000D01*
X180641898Y-73385226D01*
X180830256Y-73307205D01*
X180999774Y-73193937D01*
X181143937Y-73049774D01*
X181257205Y-72880256D01*
X181335226Y-72691898D01*
X181375000Y-72491939D01*
X181375000Y-72429801D01*
X185572363Y-68232439D01*
X185634500Y-68232439D01*
X185834459Y-68192665D01*
X186022817Y-68114644D01*
X186192335Y-68001376D01*
X186336498Y-67857213D01*
X186449766Y-67687695D01*
X186527787Y-67499337D01*
X186567561Y-67299378D01*
X186567561Y-67095500D01*
X186527787Y-66895541D01*
X186449766Y-66707183D01*
X186336498Y-66537665D01*
X186192335Y-66393502D01*
X186022817Y-66280234D01*
X185834459Y-66202213D01*
X185634500Y-66162439D01*
X185430622Y-66162439D01*
X185230663Y-66202213D01*
X185042305Y-66280234D01*
X184872787Y-66393502D01*
X184728624Y-66537665D01*
X184615356Y-66707183D01*
X184537335Y-66895541D01*
X184497561Y-67095500D01*
X184497561Y-67157637D01*
X180300199Y-71355000D01*
X180238061Y-71355000D01*
X180038102Y-71394774D01*
X179849744Y-71472795D01*
X179680226Y-71586063D01*
X179536063Y-71730226D01*
X179422795Y-71899744D01*
X179344774Y-72088102D01*
X179305000Y-72288061D01*
X133600000Y-72288061D01*
X133600000Y-71023454D01*
X133632205Y-70975256D01*
X133710226Y-70786898D01*
X133750000Y-70586939D01*
X133750000Y-70383061D01*
X133710226Y-70183102D01*
X133632205Y-69994744D01*
X133518937Y-69825226D01*
X133374774Y-69681063D01*
X133205256Y-69567795D01*
X133016898Y-69489774D01*
X132816939Y-69450000D01*
X132613061Y-69450000D01*
X132413102Y-69489774D01*
X132224744Y-69567795D01*
X132055226Y-69681063D01*
X131911063Y-69825226D01*
X131797795Y-69994744D01*
X131719774Y-70183102D01*
X131680000Y-70383061D01*
X97180000Y-70383061D01*
X97180000Y-65194721D01*
X102005000Y-65194721D01*
X102005000Y-65615279D01*
X102087047Y-66027756D01*
X102247988Y-66416302D01*
X102481637Y-66765983D01*
X102779017Y-67063363D01*
X103128698Y-67297012D01*
X103517244Y-67457953D01*
X103929721Y-67540000D01*
X104350279Y-67540000D01*
X104762756Y-67457953D01*
X105151302Y-67297012D01*
X105500983Y-67063363D01*
X105798363Y-66765983D01*
X106032012Y-66416302D01*
X106192953Y-66027756D01*
X106275000Y-65615279D01*
X106275000Y-65194721D01*
X106192953Y-64782244D01*
X106032012Y-64393698D01*
X105798363Y-64044017D01*
X105500983Y-63746637D01*
X105151302Y-63512988D01*
X104762756Y-63352047D01*
X104350279Y-63270000D01*
X103929721Y-63270000D01*
X103517244Y-63352047D01*
X103128698Y-63512988D01*
X102779017Y-63746637D01*
X102481637Y-64044017D01*
X102247988Y-64393698D01*
X102087047Y-64782244D01*
X102005000Y-65194721D01*
X97180000Y-65194721D01*
X97180000Y-61595000D01*
X138824671Y-61595000D01*
X138865893Y-62013533D01*
X138987975Y-62415982D01*
X139186224Y-62786881D01*
X139453023Y-63111977D01*
X139778119Y-63378776D01*
X140149018Y-63577025D01*
X140551467Y-63699107D01*
X140970000Y-63740329D01*
X141388533Y-63699107D01*
X141790982Y-63577025D01*
X142161881Y-63378776D01*
X142405510Y-63178835D01*
X144624345Y-60960000D01*
X170908220Y-60960000D01*
X170955234Y-61437343D01*
X171094469Y-61896342D01*
X171320577Y-62319359D01*
X171548615Y-62597224D01*
X171548619Y-62597228D01*
X171624866Y-62690135D01*
X171717773Y-62766382D01*
X172987776Y-64036385D01*
X173265641Y-64264423D01*
X173688657Y-64490531D01*
X174147656Y-64629766D01*
X174624999Y-64676780D01*
X175102342Y-64629766D01*
X175561342Y-64490531D01*
X175984358Y-64264423D01*
X176355135Y-63960135D01*
X176659423Y-63589358D01*
X176885531Y-63166342D01*
X176989075Y-62825000D01*
X212046928Y-62825000D01*
X212046928Y-64175000D01*
X212059188Y-64299482D01*
X212095498Y-64419180D01*
X212154463Y-64529494D01*
X212233815Y-64626185D01*
X212330506Y-64705537D01*
X212440820Y-64764502D01*
X212560518Y-64800812D01*
X212685000Y-64813072D01*
X214035000Y-64813072D01*
X214159482Y-64800812D01*
X214279180Y-64764502D01*
X214389494Y-64705537D01*
X214486185Y-64626185D01*
X214565537Y-64529494D01*
X214624502Y-64419180D01*
X214660812Y-64299482D01*
X214673072Y-64175000D01*
X214673072Y-62825000D01*
X214660812Y-62700518D01*
X214624502Y-62580820D01*
X214565537Y-62470506D01*
X214486185Y-62373815D01*
X214389494Y-62294463D01*
X214279180Y-62235498D01*
X214159482Y-62199188D01*
X214035000Y-62186928D01*
X212685000Y-62186928D01*
X212560518Y-62199188D01*
X212440820Y-62235498D01*
X212330506Y-62294463D01*
X212233815Y-62373815D01*
X212154463Y-62470506D01*
X212095498Y-62580820D01*
X212059188Y-62700518D01*
X212046928Y-62825000D01*
X176989075Y-62825000D01*
X177024766Y-62707342D01*
X177071780Y-62229999D01*
X177024766Y-61752656D01*
X176885531Y-61293657D01*
X176659423Y-60870641D01*
X176431385Y-60592776D01*
X175790000Y-59951391D01*
X175790000Y-53220385D01*
X175754767Y-52862657D01*
X175615531Y-52403657D01*
X175389424Y-51980641D01*
X175085135Y-51609865D01*
X174714358Y-51305576D01*
X174291342Y-51079469D01*
X173832342Y-50940233D01*
X173355000Y-50893219D01*
X172877657Y-50940233D01*
X172418657Y-51079469D01*
X171995641Y-51305576D01*
X171624865Y-51609865D01*
X171320576Y-51980642D01*
X171094469Y-52403658D01*
X170955233Y-52862658D01*
X170920000Y-53220386D01*
X170920001Y-60840385D01*
X170908220Y-60960000D01*
X144624345Y-60960000D01*
X146215508Y-59368837D01*
X146296977Y-59301977D01*
X146563777Y-58976881D01*
X146762026Y-58605982D01*
X146798889Y-58484463D01*
X146884108Y-58203534D01*
X146887805Y-58165999D01*
X146915000Y-57889882D01*
X146915000Y-57889875D01*
X146925329Y-57785000D01*
X146915000Y-57680126D01*
X146915000Y-53235118D01*
X146884108Y-52921467D01*
X146762026Y-52519018D01*
X146563777Y-52148119D01*
X146296977Y-51823023D01*
X145971881Y-51556223D01*
X145600982Y-51357974D01*
X145198533Y-51235892D01*
X144780000Y-51194670D01*
X144361468Y-51235892D01*
X143959019Y-51357974D01*
X143588120Y-51556223D01*
X143263024Y-51823023D01*
X142996224Y-52148119D01*
X142797975Y-52519018D01*
X142675893Y-52921467D01*
X142645001Y-53235118D01*
X142645000Y-56900655D01*
X139386165Y-60159490D01*
X139186224Y-60403119D01*
X138987975Y-60774018D01*
X138865893Y-61176467D01*
X138824671Y-61595000D01*
X97180000Y-61595000D01*
X97180000Y-59015000D01*
X102191928Y-59015000D01*
X102191928Y-60365000D01*
X102204188Y-60489482D01*
X102240498Y-60609180D01*
X102299463Y-60719494D01*
X102378815Y-60816185D01*
X102475506Y-60895537D01*
X102585820Y-60954502D01*
X102705518Y-60990812D01*
X102830000Y-61003072D01*
X104180000Y-61003072D01*
X104304482Y-60990812D01*
X104424180Y-60954502D01*
X104534494Y-60895537D01*
X104631185Y-60816185D01*
X104710537Y-60719494D01*
X104769502Y-60609180D01*
X104805812Y-60489482D01*
X104818072Y-60365000D01*
X104818072Y-59015000D01*
X104805812Y-58890518D01*
X104769502Y-58770820D01*
X104710537Y-58660506D01*
X104631185Y-58563815D01*
X104534494Y-58484463D01*
X104424180Y-58425498D01*
X104304482Y-58389188D01*
X104180000Y-58376928D01*
X102830000Y-58376928D01*
X102705518Y-58389188D01*
X102585820Y-58425498D01*
X102475506Y-58484463D01*
X102378815Y-58563815D01*
X102299463Y-58660506D01*
X102240498Y-58770820D01*
X102204188Y-58890518D01*
X102191928Y-59015000D01*
X97180000Y-59015000D01*
X97180000Y-53238061D01*
X109455000Y-53238061D01*
X109455000Y-53441939D01*
X109494774Y-53641898D01*
X109572795Y-53830256D01*
X109686063Y-53999774D01*
X109830226Y-54143937D01*
X109999744Y-54257205D01*
X110188102Y-54335226D01*
X110388061Y-54375000D01*
X110591939Y-54375000D01*
X110791898Y-54335226D01*
X110980256Y-54257205D01*
X111149774Y-54143937D01*
X111293937Y-53999774D01*
X111407205Y-53830256D01*
X111485226Y-53641898D01*
X111525000Y-53441939D01*
X111525000Y-53238061D01*
X111485226Y-53038102D01*
X111407205Y-52849744D01*
X111293937Y-52680226D01*
X111149774Y-52536063D01*
X110980256Y-52422795D01*
X110791898Y-52344774D01*
X110591939Y-52305000D01*
X110388061Y-52305000D01*
X110188102Y-52344774D01*
X109999744Y-52422795D01*
X109830226Y-52536063D01*
X109686063Y-52680226D01*
X109572795Y-52849744D01*
X109494774Y-53038102D01*
X109455000Y-53238061D01*
X97180000Y-53238061D01*
X97180000Y-50825000D01*
X158237500Y-50825000D01*
X158034482Y-50909093D01*
G37*
G04 #@! TD.AperFunction*
D20*
X158338191Y-108995010D02*
X153510000Y-108995010D01*
X153510000Y-108902998D01*
X153351252Y-108902998D01*
X153510000Y-108744250D01*
X153510921Y-108710000D01*
X153527677Y-108710000D01*
X153564999Y-108713676D01*
X153602321Y-108710000D01*
X153602332Y-108710000D01*
X153713985Y-108699003D01*
X153857246Y-108655546D01*
X153989275Y-108584974D01*
X154105000Y-108490001D01*
X154128803Y-108460997D01*
X154876730Y-107713071D01*
X155003269Y-107713071D01*
X155116206Y-107826008D01*
X155140000Y-107855001D01*
X155168993Y-107878795D01*
X155168997Y-107878799D01*
X155239686Y-107936811D01*
X155255725Y-107949974D01*
X155387754Y-108020546D01*
X155531015Y-108064003D01*
X155642668Y-108075000D01*
X155642677Y-108075000D01*
X155680000Y-108078676D01*
X155717323Y-108075000D01*
X158045930Y-108075000D01*
X158083252Y-108078676D01*
X158120574Y-108075000D01*
X158120585Y-108075000D01*
X158232238Y-108064003D01*
X158375499Y-108020546D01*
X158507528Y-107949974D01*
X158623253Y-107855001D01*
X158647055Y-107825998D01*
X159033054Y-107440000D01*
X159893200Y-107440000D01*
X158338191Y-108995010D01*
G04 #@! TA.AperFunction,Conductor*
D21*
G36*
X158338191Y-108995010D02*
G01*
X153510000Y-108995010D01*
X153510000Y-108902998D01*
X153351252Y-108902998D01*
X153510000Y-108744250D01*
X153510921Y-108710000D01*
X153527677Y-108710000D01*
X153564999Y-108713676D01*
X153602321Y-108710000D01*
X153602332Y-108710000D01*
X153713985Y-108699003D01*
X153857246Y-108655546D01*
X153989275Y-108584974D01*
X154105000Y-108490001D01*
X154128803Y-108460997D01*
X154876730Y-107713071D01*
X155003269Y-107713071D01*
X155116206Y-107826008D01*
X155140000Y-107855001D01*
X155168993Y-107878795D01*
X155168997Y-107878799D01*
X155239686Y-107936811D01*
X155255725Y-107949974D01*
X155387754Y-108020546D01*
X155531015Y-108064003D01*
X155642668Y-108075000D01*
X155642677Y-108075000D01*
X155680000Y-108078676D01*
X155717323Y-108075000D01*
X158045930Y-108075000D01*
X158083252Y-108078676D01*
X158120574Y-108075000D01*
X158120585Y-108075000D01*
X158232238Y-108064003D01*
X158375499Y-108020546D01*
X158507528Y-107949974D01*
X158623253Y-107855001D01*
X158647055Y-107825998D01*
X159033054Y-107440000D01*
X159893200Y-107440000D01*
X158338191Y-108995010D01*
G37*
G04 #@! TD.AperFunction*
M02*
