M48
; DRILL file {KiCad (5.1.10)-1} date 01/17/22 16:30:11
; FORMAT={-:-/ absolute / metric / decimal}
; #@! TF.CreationDate,2022-01-17T16:30:11-05:00
; #@! TF.GenerationSoftware,Kicad,Pcbnew,(5.1.10)-1
; #@! TF.FileFunction,Plated,1,2,PTH
FMAT,2
METRIC
T1C0.400
T2C0.800
T3C1.300
T4C1.400
%
G90
G05
T1
X110.49Y-53.34
X132.715Y-70.485
X133.35Y-94.615
X133.985Y-78.105
X133.985Y-97.79
X140.97Y-61.595
X144.78Y-53.34
X150.228Y-107.517
X150.495Y-102.87
X150.495Y-104.775
X150.495Y-110.49
X151.13Y-107.95
X152.4Y-98.425
X155.13Y-88.265
X157.48Y-103.505
X158.596Y-107.875
X158.75Y-105.41
X160.655Y-106.68
X161.29Y-96.52
X162.015Y-88.265
X168.275Y-95.25
X168.275Y-105.41
X171.205Y-103.785
X171.426Y-104.805
X171.739Y-97.263
X172.085Y-99.06
X173.355Y-53.34
X174.625Y-62.23
X175.26Y-99.06
X175.26Y-105.41
X175.895Y-107.95
X176.53Y-100.33
X178.435Y-88.9
X178.435Y-98.425
X180.34Y-72.39
X180.34Y-86.814
X181.61Y-104.14
X185.533Y-67.197
X186.69Y-74.295
X188.595Y-67.31
X200.66Y-59.69
X201.93Y-61.24
T2
X103.505Y-59.69
X104.045Y-113.665
X106.045Y-113.665
X118.745Y-118.11
X120.745Y-118.11
X122.745Y-118.11
X124.745Y-118.11
X126.745Y-118.11
X139.7Y-118.11
X158.655Y-52.07
X160.655Y-52.07
X160.655Y-118.11
X172.085Y-118.745
X174.085Y-118.745
X176.085Y-118.745
X187.325Y-97.155
X187.325Y-99.155
X187.325Y-101.155
X213.36Y-63.5
X214.63Y-110.49
X214.63Y-112.49
T3
X104.14Y-65.405
X104.14Y-87.905
X213.995Y-69.85
X213.995Y-92.35
T4
X104.775Y-94.06
X104.775Y-99.06
X214.63Y-98.505
X214.63Y-103.505
T0
M30
