G04 #@! TF.GenerationSoftware,KiCad,Pcbnew,(5.1.10)-1*
G04 #@! TF.CreationDate,2022-01-17T16:27:26-05:00*
G04 #@! TF.ProjectId,breakoutboard-2,62726561-6b6f-4757-9462-6f6172642d32,rev?*
G04 #@! TF.SameCoordinates,Original*
G04 #@! TF.FileFunction,Soldermask,Bot*
G04 #@! TF.FilePolarity,Negative*
%FSLAX46Y46*%
G04 Gerber Fmt 4.6, Leading zero omitted, Abs format (unit mm)*
G04 Created by KiCad (PCBNEW (5.1.10)-1) date 2022-01-17 16:27:26*
%MOMM*%
%LPD*%
G01*
G04 APERTURE LIST*
%ADD10R,1.350000X1.350000*%
%ADD11R,1.500000X2.400000*%
%ADD12R,1.500000X1.050000*%
%ADD13C,3.000000*%
%ADD14C,2.700000*%
%ADD15O,1.350000X1.350000*%
%ADD16C,2.800000*%
%ADD17R,2.800000X2.800000*%
G04 APERTURE END LIST*
D10*
X139700000Y-118110000D03*
D11*
X154940000Y-104775000D03*
D12*
X154940000Y-107149999D03*
G36*
G01*
X155415000Y-102415000D02*
X154465000Y-102415000D01*
G75*
G02*
X154215000Y-102165000I0J250000D01*
G01*
X154215000Y-101665000D01*
G75*
G02*
X154465000Y-101415000I250000J0D01*
G01*
X155415000Y-101415000D01*
G75*
G02*
X155665000Y-101665000I0J-250000D01*
G01*
X155665000Y-102165000D01*
G75*
G02*
X155415000Y-102415000I-250000J0D01*
G01*
G37*
G36*
G01*
X155415000Y-100515000D02*
X154465000Y-100515000D01*
G75*
G02*
X154215000Y-100265000I0J250000D01*
G01*
X154215000Y-99765000D01*
G75*
G02*
X154465000Y-99515000I250000J0D01*
G01*
X155415000Y-99515000D01*
G75*
G02*
X155665000Y-99765000I0J-250000D01*
G01*
X155665000Y-100265000D01*
G75*
G02*
X155415000Y-100515000I-250000J0D01*
G01*
G37*
G36*
G01*
X152875000Y-100515000D02*
X151925000Y-100515000D01*
G75*
G02*
X151675000Y-100265000I0J250000D01*
G01*
X151675000Y-99765000D01*
G75*
G02*
X151925000Y-99515000I250000J0D01*
G01*
X152875000Y-99515000D01*
G75*
G02*
X153125000Y-99765000I0J-250000D01*
G01*
X153125000Y-100265000D01*
G75*
G02*
X152875000Y-100515000I-250000J0D01*
G01*
G37*
G36*
G01*
X152875000Y-102415000D02*
X151925000Y-102415000D01*
G75*
G02*
X151675000Y-102165000I0J250000D01*
G01*
X151675000Y-101665000D01*
G75*
G02*
X151925000Y-101415000I250000J0D01*
G01*
X152875000Y-101415000D01*
G75*
G02*
X153125000Y-101665000I0J-250000D01*
G01*
X153125000Y-102165000D01*
G75*
G02*
X152875000Y-102415000I-250000J0D01*
G01*
G37*
G36*
G01*
X152875000Y-104960000D02*
X151925000Y-104960000D01*
G75*
G02*
X151675000Y-104710000I0J250000D01*
G01*
X151675000Y-104210000D01*
G75*
G02*
X151925000Y-103960000I250000J0D01*
G01*
X152875000Y-103960000D01*
G75*
G02*
X153125000Y-104210000I0J-250000D01*
G01*
X153125000Y-104710000D01*
G75*
G02*
X152875000Y-104960000I-250000J0D01*
G01*
G37*
G36*
G01*
X152875000Y-106860000D02*
X151925000Y-106860000D01*
G75*
G02*
X151675000Y-106610000I0J250000D01*
G01*
X151675000Y-106110000D01*
G75*
G02*
X151925000Y-105860000I250000J0D01*
G01*
X152875000Y-105860000D01*
G75*
G02*
X153125000Y-106110000I0J-250000D01*
G01*
X153125000Y-106610000D01*
G75*
G02*
X152875000Y-106860000I-250000J0D01*
G01*
G37*
G36*
G01*
X171039400Y-97630000D02*
X170590600Y-97630000D01*
G75*
G02*
X170515000Y-97554400I0J75600D01*
G01*
X170515000Y-97165600D01*
G75*
G02*
X170590600Y-97090000I75600J0D01*
G01*
X171039400Y-97090000D01*
G75*
G02*
X171115000Y-97165600I0J-75600D01*
G01*
X171115000Y-97554400D01*
G75*
G02*
X171039400Y-97630000I-75600J0D01*
G01*
G37*
G36*
G01*
X171039400Y-98490000D02*
X170590600Y-98490000D01*
G75*
G02*
X170515000Y-98414400I0J75600D01*
G01*
X170515000Y-98025600D01*
G75*
G02*
X170590600Y-97950000I75600J0D01*
G01*
X171039400Y-97950000D01*
G75*
G02*
X171115000Y-98025600I0J-75600D01*
G01*
X171115000Y-98414400D01*
G75*
G02*
X171039400Y-98490000I-75600J0D01*
G01*
G37*
G36*
G01*
X179335000Y-99710001D02*
X179335000Y-98409999D01*
G75*
G02*
X179584999Y-98160000I249999J0D01*
G01*
X180235001Y-98160000D01*
G75*
G02*
X180485000Y-98409999I0J-249999D01*
G01*
X180485000Y-99710001D01*
G75*
G02*
X180235001Y-99960000I-249999J0D01*
G01*
X179584999Y-99960000D01*
G75*
G02*
X179335000Y-99710001I0J249999D01*
G01*
G37*
G36*
G01*
X176385000Y-99710001D02*
X176385000Y-98409999D01*
G75*
G02*
X176634999Y-98160000I249999J0D01*
G01*
X177285001Y-98160000D01*
G75*
G02*
X177535000Y-98409999I0J-249999D01*
G01*
X177535000Y-99710001D01*
G75*
G02*
X177285001Y-99960000I-249999J0D01*
G01*
X176634999Y-99960000D01*
G75*
G02*
X176385000Y-99710001I0J249999D01*
G01*
G37*
G36*
G01*
X176385000Y-106695001D02*
X176385000Y-105394999D01*
G75*
G02*
X176634999Y-105145000I249999J0D01*
G01*
X177285001Y-105145000D01*
G75*
G02*
X177535000Y-105394999I0J-249999D01*
G01*
X177535000Y-106695001D01*
G75*
G02*
X177285001Y-106945000I-249999J0D01*
G01*
X176634999Y-106945000D01*
G75*
G02*
X176385000Y-106695001I0J249999D01*
G01*
G37*
G36*
G01*
X179335000Y-106695001D02*
X179335000Y-105394999D01*
G75*
G02*
X179584999Y-105145000I249999J0D01*
G01*
X180235001Y-105145000D01*
G75*
G02*
X180485000Y-105394999I0J-249999D01*
G01*
X180485000Y-106695001D01*
G75*
G02*
X180235001Y-106945000I-249999J0D01*
G01*
X179584999Y-106945000D01*
G75*
G02*
X179335000Y-106695001I0J249999D01*
G01*
G37*
G36*
G01*
X170404400Y-104840000D02*
X169955600Y-104840000D01*
G75*
G02*
X169880000Y-104764400I0J75600D01*
G01*
X169880000Y-104375600D01*
G75*
G02*
X169955600Y-104300000I75600J0D01*
G01*
X170404400Y-104300000D01*
G75*
G02*
X170480000Y-104375600I0J-75600D01*
G01*
X170480000Y-104764400D01*
G75*
G02*
X170404400Y-104840000I-75600J0D01*
G01*
G37*
G36*
G01*
X170404400Y-103980000D02*
X169955600Y-103980000D01*
G75*
G02*
X169880000Y-103904400I0J75600D01*
G01*
X169880000Y-103515600D01*
G75*
G02*
X169955600Y-103440000I75600J0D01*
G01*
X170404400Y-103440000D01*
G75*
G02*
X170480000Y-103515600I0J-75600D01*
G01*
X170480000Y-103904400D01*
G75*
G02*
X170404400Y-103980000I-75600J0D01*
G01*
G37*
D13*
X104140000Y-65405000D03*
X104140000Y-87905000D03*
D14*
X104140000Y-76655000D03*
X213995000Y-81100000D03*
D13*
X213995000Y-92350000D03*
X213995000Y-69850000D03*
D10*
X103505000Y-59690000D03*
X160655000Y-52070000D03*
D15*
X158655000Y-52070000D03*
X187325000Y-101155000D03*
X187325000Y-99155000D03*
D10*
X187325000Y-97155000D03*
X172085000Y-118745000D03*
D15*
X174085000Y-118745000D03*
X176085000Y-118745000D03*
X104045000Y-113665000D03*
D10*
X106045000Y-113665000D03*
D16*
X104775000Y-94060000D03*
D17*
X104775000Y-99060000D03*
X214630000Y-103505000D03*
D16*
X214630000Y-98505000D03*
D10*
X214630000Y-110490000D03*
D15*
X214630000Y-112490000D03*
D10*
X213360000Y-63500000D03*
X160655000Y-118110000D03*
X118745000Y-118110000D03*
D15*
X120745000Y-118110000D03*
X122745000Y-118110000D03*
X124745000Y-118110000D03*
X126745000Y-118110000D03*
G36*
G01*
X152125000Y-108630000D02*
X152675000Y-108630000D01*
G75*
G02*
X152875000Y-108830000I0J-200000D01*
G01*
X152875000Y-109230000D01*
G75*
G02*
X152675000Y-109430000I-200000J0D01*
G01*
X152125000Y-109430000D01*
G75*
G02*
X151925000Y-109230000I0J200000D01*
G01*
X151925000Y-108830000D01*
G75*
G02*
X152125000Y-108630000I200000J0D01*
G01*
G37*
G36*
G01*
X152125000Y-110280000D02*
X152675000Y-110280000D01*
G75*
G02*
X152875000Y-110480000I0J-200000D01*
G01*
X152875000Y-110880000D01*
G75*
G02*
X152675000Y-111080000I-200000J0D01*
G01*
X152125000Y-111080000D01*
G75*
G02*
X151925000Y-110880000I0J200000D01*
G01*
X151925000Y-110480000D01*
G75*
G02*
X152125000Y-110280000I200000J0D01*
G01*
G37*
M02*
